<svg xmlns="http://www.w3.org/2000/svg" viewBox="0 0 737.79 737.79"><defs><style>.cls-1{fill:#fff;}.cls-1,.cls-2{opacity:0.8;}.cls-3{fill:#484848;}</style></defs><title>add2_1</title><g id="Layer_2" data-name="Layer 2"><g id="Capa_1" data-name="Capa 1"><path class="cls-1" d="M368.9,0C165.16,0,0,165.16,0,368.9S165.16,737.79,368.9,737.79,737.79,572.63,737.79,368.9,572.63,0,368.9,0Zm0,691.23c-178,0-322.34-144.31-322.34-322.33S190.87,46.56,368.9,46.56,691.23,190.87,691.23,368.9,546.92,691.23,368.9,691.23Z"/><g class="cls-2"><path class="cls-3" d="M551.9,380.7h-366a12,12,0,0,1-12-12V347.9a12,12,0,0,1,12-12h366a12,12,0,0,1,12,12v20.8A12,12,0,0,1,551.9,380.7Z"/><path class="cls-3" d="M346.5,551.9v-366a12,12,0,0,1,12-12h20.8a12,12,0,0,1,12,12v366a12,12,0,0,1-12,12H358.5A12,12,0,0,1,346.5,551.9Z"/></g></g></g></svg>