<svg xmlns="http://www.w3.org/2000/svg" viewBox="0 0 512 512"><defs><style>.cls-1{fill:#940a37;}.cls-2{fill:none;stroke:#940a37;stroke-linecap:round;stroke-linejoin:round;stroke-width:2px;}.cls-3{fill:#fff;}</style></defs><title>addLocation_1</title><g id="Layer_2" data-name="Layer 2"><g id="Capa_1" data-name="Capa 1"><circle class="cls-1" cx="256" cy="256" r="256"/><line class="cls-2" x1="256" y1="128" x2="256" y2="384"/><line class="cls-2" x1="384" y1="256" x2="128" y2="256"/><path class="cls-3" d="M265.77,177.19H246.23v30h-30v19.54h30v30h19.54v-30h30V207.15h-30Z"/><path class="cls-3" d="M256,89.25A127.82,127.82,0,0,0,128.33,216.92,126.29,126.29,0,0,0,155.81,296L256,422.75,356.19,296a126.31,126.31,0,0,0,27.48-79.12A127.82,127.82,0,0,0,256,89.25Zm84.86,194.67L256,391.24,171.14,283.92a107,107,0,0,1-23.27-67,108.13,108.13,0,0,1,216.26,0A107,107,0,0,1,340.86,283.92Z"/></g></g></svg>