<svg xmlns="http://www.w3.org/2000/svg" viewBox="0 0 702.55 583.53"><defs><style>.cls-1{fill:#484848;}</style></defs><title>back</title><g id="Layer_2" data-name="Layer 2"><g id="Capa_1" data-name="Capa 1"><path class="cls-1" d="M663.06,236.67l1.1.24H194L341.83,88.8a38.82,38.82,0,0,0,0-54.56l-23-23a38.46,38.46,0,0,0-54.29,0L11.2,264.51a38.74,38.74,0,0,0,0,54.49L264.54,572.33a38.5,38.5,0,0,0,54.29,0l23-23A38.05,38.05,0,0,0,353,522.18a36.88,36.88,0,0,0-11.2-26.63L192.37,346.61H663.58c21.18,0,39-18.25,39-39.41V274.66C702.55,253.5,684.23,236.67,663.06,236.67Z"/></g></g></svg>