<svg id="Capa_1" data-name="Capa 1" xmlns="http://www.w3.org/2000/svg" viewBox="0 0 550.88 564.28"><defs><style>.cls-1{fill:#e26241;opacity:0.8;}.cls-2{fill:#fcfcfc;}</style></defs><title>back2</title><circle class="cls-1" cx="275.72" cy="277.39" r="261.21"/><path class="cls-2" d="M429.92,250.15l.54.12H198L271.05,177a19.21,19.21,0,0,0,0-27l-11.38-11.37a19,19,0,0,0-26.85,0L107.52,263.92a19.15,19.15,0,0,0,0,26.94l125.3,125.3a19,19,0,0,0,26.85,0l11.38-11.38a18.81,18.81,0,0,0,5.54-13.42,18.26,18.26,0,0,0-5.54-13.18l-73.92-73.66H430.18c10.47,0,19.27-9,19.27-19.49v-16.1C449.45,258.47,440.39,250.15,429.92,250.15Z"/></svg>