<svg xmlns="http://www.w3.org/2000/svg" viewBox="0 0 737.8 737.8"><defs><style>.cls-1,.cls-4{opacity:0.8;}.cls-2,.cls-4{fill:#e26241;}.cls-3{fill:#fff;}.cls-4{isolation:isolate;}</style></defs><title>Barley</title><g id="Layer_2" data-name="Layer 2"><g id="Capa_1" data-name="Capa 1"><g class="cls-1"><path class="cls-2" d="M359.18,256.66a11.63,11.63,0,0,0,17.67-.13c9.77-11.77,24.32-33.36,24.13-57.95s-15-45.87-25.05-57.48a11.67,11.67,0,0,0-8.86-4,11.55,11.55,0,0,0-8.8,4.14c-9.78,11.77-24.33,33.36-24.14,57.86S349.13,245.05,359.18,256.66Z"/><path class="cls-2" d="M368.74,337c1.81.07,45.3,1.46,70.72-24.38,17.18-17.45,21.83-43,23-58.37a11.67,11.67,0,0,0-12.66-12.46c-15.22,1.42-40.73,6.39-58,23.93-19,19.29-22.65,48.5-23.23,62.79-.8-14.28-4.93-43.34-24.22-62.42-17.54-17.18-43.12-21.82-58.37-23a11.67,11.67,0,0,0-12.46,12.65c1.42,15.23,6.39,40.74,23.93,58C323.38,339.21,366.92,337.14,368.74,337Z"/><path class="cls-2" d="M392.54,357.8c-19,19.29-22.65,48.5-23.23,62.79-.81-14.28-4.93-43.34-24.22-62.41-17.54-17.18-43.12-21.83-58.37-23a11.65,11.65,0,0,0-12.46,12.66c1.42,15.23,6.38,40.73,23.92,58,25.84,25.43,69.29,23.35,71.11,23.25,1.82.07,45.3,1.46,70.73-24.37,17.18-17.46,21.83-43,23-58.37a11.65,11.65,0,0,0-12.65-12.46C435.31,335.3,409.81,340.35,392.54,357.8Z"/><path class="cls-2" d="M393.27,449.85c-19,19.28-22.66,48.49-23.24,62.79-.8-14.28-4.93-43.35-24.21-62.42-17.46-17.27-43-21.83-58.38-23A11.65,11.65,0,0,0,275,439.87c1.42,15.23,6.38,40.73,23.92,58,17.72,17.44,43.64,21.91,58.81,23l.52,66.33c.06,7.53,5.3,13.55,12.84,13.49s12.68-6.16,12.62-13.69l-.53-66.41c15.32-1.42,40.48-6.47,57.57-23.84s21.83-43,23-58.37a11.67,11.67,0,0,0-12.65-12.46C436,427.34,410.53,432.39,393.27,449.85Z"/></g><circle class="cls-3" cx="410.86" cy="293.32" r="9.96"/><circle class="cls-3" cx="331.49" cy="391.55" r="9.96"/><circle class="cls-3" cx="416.74" cy="478.61" r="9.96"/><circle class="cls-3" cx="361.5" cy="177.28" r="9.96"/><path class="cls-4" d="M366,0C162.29,1.62-1.6,168.12,0,371.81s168.11,367.59,371.8,366S739.4,569.68,737.79,366,569.78-1.6,366,0Zm5.45,691.18C193.45,692.6,48,549.44,46.61,371.44S188.36,48,366.36,46.61,689.78,188.36,691.19,366.36,549.54,689.78,371.44,691.19Z"/></g></g></svg>