<?xml version="1.0" encoding="UTF-8"?>
<svg width="50px" height="50px" viewBox="0 0 50 50" version="1.1" xmlns="http://www.w3.org/2000/svg" xmlns:xlink="http://www.w3.org/1999/xlink">
    <!-- Generator: Sketch 54.1 (76490) - https://sketchapp.com -->
    <title>Group 31</title>
    <desc>Created with Sketch.</desc>
    <g id="Page-1" stroke="none" stroke-width="1" fill="none" fill-rule="evenodd" opacity="0.8">
        <g id="Group-31" fill="#E26241" fill-rule="nonzero">
            <g id="Group" transform="translate(14.000000, 10.000000)">
                <path d="M19.5262581,8.03863636 C18.6902793,7.41220729 17.7569701,6.9043068 16.7573548,6.53181818 C16.8189355,6.39545455 16.8797742,6.2475 16.9354194,6.09409091 C17.4889032,4.56477273 17.0838065,3.62113636 16.652,3.09886364 C16.0940645,2.42863636 15.4040645,2.18181818 14.8068065,2.13681818 C14.6900701,1.91398609 14.5548879,1.69971997 14.4024516,1.49590909 C13.6694194,0.521590909 12.6633548,0.00681818182 11.4925806,0.00681818182 C10.3218065,0.00681818182 9.315,0.521590909 8.58196774,1.49590909 C8.42975188,1.69972201 8.29481645,1.91399005 8.17835484,2.13681818 C7.58109677,2.18181818 6.89035484,2.42863636 6.33241935,3.09818182 C5.89764516,3.62113636 5.49551613,4.56477273 6.049,6.09409091 C6.10464516,6.2475 6.16548387,6.39409091 6.22780645,6.53181818 C5.22810677,6.90415014 4.29477311,7.41206393 3.45890323,8.03863636 C1.21603226,9.73772727 0.0311612903,12.1118182 0.0311612903,14.9052273 C0.0311612903,17.6986364 1.23977419,20.5418182 3.3476129,22.7243182 C4.83148387,24.2631818 6.61806452,25.3390909 8.54116129,25.8845455 C8.51370968,26.0311364 8.48032258,26.1845455 8.44619355,26.3413636 C8.26145161,27.1936364 8.03070968,28.2504545 8.75409677,29.0645455 C9.28087097,29.6556818 10.1763871,29.9427273 11.4918387,29.9427273 C12.8072903,29.9427273 13.7020645,29.6556818 14.2295806,29.0645455 C14.9529677,28.2538636 14.7222258,27.1936364 14.5367419,26.3413636 C14.5026129,26.1845455 14.4699677,26.0318182 14.4425161,25.8845455 C16.3656129,25.3390909 18.1521935,24.2631818 19.6360645,22.7243182 C21.7431613,20.5425 22.9525161,17.6925 22.9525161,14.9052273 C22.9525161,12.1179545 21.7683871,9.73772727 19.5262581,8.03863636 Z M7.91645161,4.21159091 C8.13903226,3.945 8.37125806,3.94568182 8.4996129,3.97568182 L9.49603226,4.38477273 L9.79725806,3.34295455 C9.89436463,3.05567289 10.0376578,2.78334528 10.2223871,2.535 C10.7484194,1.84090909 11.3085806,1.84090909 11.4925806,1.84090909 C12.7175161,1.84090909 13.1700968,3.29045455 13.1879032,3.34704545 L13.4290323,4.41068182 L14.4870323,3.97568182 C14.616129,3.94568182 14.8483548,3.945 15.0709355,4.21159091 C15.3365484,4.53136364 15.1762903,5.14704545 15.0568387,5.48590909 C14.998096,5.65031429 14.9297385,5.81168544 14.8520645,5.96931818 C12.6423012,5.49977492 10.3450859,5.49977492 8.13532258,5.96931818 C7.83558065,5.35568182 7.613,4.57704545 7.91645161,4.21159091 Z M12.6870968,27.9027273 C12.6870968,27.9027273 12.4904839,28.1072727 11.4918387,28.1072727 C10.4931935,28.1072727 10.2980645,27.9027273 10.2958387,27.9027273 C10.1711935,27.7663636 10.3218065,27.0715909 10.4019355,26.7006818 C10.4345806,26.5520455 10.4672258,26.4013636 10.4961613,26.2493182 C11.1579941,26.3111341 11.8249413,26.3111341 12.4867742,26.2493182 C12.5164516,26.4013636 12.5490968,26.5520455 12.581,26.7006818 C12.6626129,27.0715909 12.8124839,27.7629545 12.6870968,27.9027273 Z M18.1447742,21.5079545 C16.3040323,23.4136364 13.9417097,24.4629545 11.4918387,24.4629545 C9.04196774,24.4629545 6.67741935,23.4136364 4.83890323,21.5079545 C3.05083871,19.6561364 2.02548387,17.25 2.02548387,14.9052273 C2.02548387,12.6777273 2.95958065,10.7925 4.7276129,9.45068182 C6.43406452,8.15931818 8.83422581,7.44818182 11.4925806,7.44818182 C14.1509355,7.44818182 16.5533226,8.16 18.2575484,9.45068182 C20.0248387,10.7904545 20.9596774,12.6756818 20.9596774,14.9052273 C20.9589355,17.25 19.9335806,19.6561364 18.1455161,21.5079545 L18.1447742,21.5079545 Z" id="Shape"></path>
                <path d="M11.4925806,12.84 L6.739,16.7686364 L11.4925806,23.7054545 L16.2483871,16.7686364 L11.4925806,12.84 Z M9.32167742,17.0986364 L11.4925806,15.3054545 L13.6627419,17.0986364 L11.4925806,20.2663636 L9.32167742,17.0986364 Z" id="Shape"></path>
                <path d="M6.43183871,12.0770455 C5.89415114,12.0709618 5.40571523,12.3639294 5.19534777,12.8187021 C4.9849803,13.2734748 5.09434898,13.7999754 5.47221804,14.151555 C5.85008709,14.5031345 6.42161161,14.6101553 6.91905041,14.4224815 C7.41648922,14.2348077 7.74131409,13.789612 7.74135484,13.2954545 C7.7454658,12.6268362 7.15940557,12.08155 6.43183871,12.0770455 Z" id="Path"></path>
                <path d="M16.5451613,12.0681818 C16.0035093,12.061821 15.5113306,12.3567697 15.2992357,12.8148297 C15.0871407,13.2728897 15.1971484,13.8033129 15.5777147,14.1575694 C15.958281,14.5118259 16.5340103,14.6197325 17.0351446,14.4307296 C17.5362789,14.2417267 17.8635364,13.7932584 17.8635806,13.2954545 C17.8676927,12.6222054 17.2777645,12.0730608 16.5451613,12.0681818 L16.5451613,12.0681818 Z" id="Path"></path>
            </g>
            <path d="M25.0003388,0 C11.1928869,0 0,11.1928869 0,25.0003388 C0,38.8077908 11.1928869,50 25.0003388,50 C38.8077908,50 50,38.8071131 50,25.0003388 C50,11.1935646 38.8071131,0 25.0003388,0 Z M25.0003388,46.8446306 C12.9372857,46.8446306 3.15536941,37.0647474 3.15536941,25.0003388 C3.15536941,12.9359303 12.9352526,3.15536941 25.0003388,3.15536941 C37.0654251,3.15536941 46.8446306,12.9352526 46.8446306,25.0003388 C46.8446306,37.0654251 37.0647474,46.8446306 25.0003388,46.8446306 Z" id="Shape"></path>
        </g>
    </g>
</svg>