<?xml version="1.0" encoding="UTF-8"?>
<svg width="50px" height="50px" viewBox="0 0 50 50" version="1.1" xmlns="http://www.w3.org/2000/svg" xmlns:xlink="http://www.w3.org/1999/xlink">
    <!-- Generator: Sketch 54.1 (76490) - https://sketchapp.com -->
    <title>Group 28</title>
    <desc>Created with Sketch.</desc>
    <g id="Page-1" stroke="none" stroke-width="1" fill="none" fill-rule="evenodd" opacity="0.8">
        <g id="Group-28" fill="#E26241" fill-rule="nonzero">
            <g id="Group" transform="translate(13.000000, 12.000000)">
                <ellipse id="Oval" cx="8.50572519" cy="9.88388325" rx="1" ry="1.32741117"></ellipse>
                <ellipse id="Oval" cx="17.7131043" cy="9.88388325" rx="1" ry="1.32741117"></ellipse>
                <path d="M9.33396947,18.2043147 C9.33396947,19.376269 9.92557252,20.2937817 10.6812977,20.2937817 C11.4370229,20.2937817 12.028626,19.376269 12.028626,18.2043147 C12.028626,17.0323604 11.4370229,16.1167513 10.6812977,16.1167513 C9.92557252,16.1167513 9.33396947,17.0329949 9.33396947,18.2043147 Z M11.0807888,17.1484772 C11.2366412,17.4213198 11.3263359,17.8058376 11.3263359,18.2043147 C11.3263359,18.6027919 11.2366412,18.9879442 11.0807888,19.2607868 C10.9611959,19.4689086 10.8117048,19.5932741 10.6812977,19.5932741 C10.5508906,19.5932741 10.4007634,19.4663706 10.2818066,19.2607868 C10.1253181,18.9879442 10.0362595,18.6034264 10.0362595,18.2049492 C10.0362595,17.8064721 10.1253181,17.4213198 10.2818066,17.1484772 C10.4007634,16.9403553 10.5502545,16.8159898 10.6812977,16.8159898 C10.812341,16.8159898 10.9611959,16.9428934 11.0807888,17.1484772 Z" id="Shape"></path>
                <path d="M14.1902036,18.2043147 C14.1902036,19.376269 14.7824427,20.2937817 15.5375318,20.2937817 C16.2926209,20.2937817 16.8848601,19.376269 16.8848601,18.2043147 C16.8848601,17.0323604 16.293257,16.1167513 15.5375318,16.1167513 C14.7818066,16.1167513 14.1902036,17.0329949 14.1902036,18.2043147 Z M15.9370229,17.1484772 C16.0935115,17.4213198 16.18257,17.8058376 16.18257,18.2043147 C16.18257,18.6027919 16.0935115,18.9879442 15.9370229,19.2607868 C15.8180662,19.4689086 15.6685751,19.5932741 15.5375318,19.5932741 C15.4064885,19.5932741 15.2576336,19.4663706 15.1380407,19.2607868 C14.9821883,18.9879442 14.8924936,18.6034264 14.8924936,18.2043147 C14.8924936,17.805203 14.9821883,17.4213198 15.1380407,17.1484772 C15.2576336,16.9403553 15.4071247,16.8159898 15.5375318,16.8159898 C15.6679389,16.8159898 15.8180662,16.9416244 15.9370229,17.1484772 Z" id="Shape"></path>
                <path d="M24.9898219,6.27474619 C22.9866412,4.27664975 20.3778626,3.98413706 18.4026718,4.13705584 L18.5445293,1.23477157 C18.5680714,0.698407503 18.2139169,0.218094204 17.6935936,0.0807111532 C17.1732704,-0.0566718976 16.6272592,0.185967026 16.3816794,0.663705584 L15.1062341,3.17639594 C13.4644592,2.63189151 11.690121,2.63189151 10.0483461,3.17639594 L8.77608142,0.664340102 C8.53050158,0.186601544 7.98449043,-0.0560373798 7.46416717,0.0813456709 C6.94384392,0.218728722 6.58968942,0.69904202 6.61323155,1.23540609 L6.75508906,4.13959391 C6.03038632,4.08069744 5.30151584,4.09685818 4.58015267,4.18781726 C4.38667174,4.21057276 4.24487373,4.3803709 4.25740588,4.57429523 C4.26993804,4.76821955 4.4324178,4.91845375 4.62722646,4.91624365 C4.64339029,4.916134 4.65953361,4.91507463 4.67557252,4.91307107 C5.37701232,4.82486148 6.08594001,4.81231017 6.79007634,4.87563452 L6.80470738,5.16814721 C6.46641882,5.49859605 6.15440925,5.85478859 5.87150127,6.23350254 C4.5394402,5.62373096 3.08524173,5.63705584 1.99618321,5.7893401 C2.42910096,5.54092 2.88847906,5.341503 3.36577608,5.19479695 C3.49203181,5.1570566 3.5882379,5.05458615 3.61771954,4.92644846 C3.64720119,4.79831077 3.60541515,4.66425234 3.50829072,4.57537772 C3.4111663,4.4865031 3.27367072,4.4565082 3.14821883,4.49682741 C2.02353571,4.83622175 0.999820516,5.44636417 0.167302799,6.27347716 C0.0618150306,6.37851205 0.0306268109,6.53681704 0.0884223919,6.67385787 C0.374132321,7.30444948 0.744116639,7.89355587 1.18829517,8.4251269 C2.05025445,9.45431472 3.06234097,10.0571066 4.13867684,10.1871827 C3.88811327,11.5114724 3.90780156,12.8725585 4.19656489,14.1890863 C3.44147583,15.2436548 3.04007634,16.4333756 3.04007634,17.6719543 C3.04007634,19.6345178 4.04580153,21.4727157 5.87150127,22.8483503 C8.42938931,24.7747462 11.2150127,24.9333756 12.5776081,24.9422589 C14.3862115,24.9528954 16.1767789,24.5834107 17.8326972,23.857868 L19.9611959,22.715736 C20.1459845,22.5133387 20.1883034,22.2189828 20.0679856,21.9729434 C19.9476678,21.726904 19.6890572,21.5789621 19.4153944,21.5996193 C18.7086679,21.9628159 17.9794547,22.2807191 17.2321883,22.5513959 C15.5642494,23.1554569 13.7480916,23.5818528 12.6469466,23.5856599 C7.84669211,23.6027919 4.44656489,20.4663706 4.40458015,17.6510152 C4.35559796,14.3343909 8.97201018,11.8420051 12.6469466,11.8800761 C13.057888,11.8838832 16.0604326,11.8508883 18.4802799,13.9847716 C19.2245547,14.6453046 20.5330789,15.7994924 20.6743003,17.6554569 C20.7818066,19.0888325 20.1361323,20.2024112 19.8282443,20.6637056 C19.8282443,20.7195431 19.8072519,21.1611675 20.0744275,21.3172589 C20.278626,21.4359137 20.5407125,21.322335 20.6469466,21.2760152 C21.3727735,20.9587563 22.1284987,19.3642132 22.1183206,17.6738579 C22.1094148,16.0970812 21.4357506,14.8756345 20.9618321,14.1909898 C21.2505954,12.8744621 21.2702837,11.513376 21.0197201,10.1890863 C21.4790076,10.0939086 22.898855,9.73794416 23.9701018,8.42639594 C24.4768571,7.80036 24.8264539,7.06269683 24.9898219,6.27474619 Z M23.4777354,5.74873096 C22.4344784,5.60152284 21.0407125,5.58883249 19.764631,6.17258883 C19.4945123,5.81054823 19.1967652,5.4698567 18.8740458,5.1535533 L18.8874046,4.87246193 C20.2430025,4.75888325 21.9554707,4.86928934 23.4777354,5.74873096 L23.4777354,5.74873096 Z M16.9777354,1.62944162 C17.0502743,1.48815375 17.2117037,1.41636605 17.3655473,1.45698151 C17.5193909,1.49759697 17.6240799,1.63964122 17.6170483,1.79822335 L17.4815522,4.56281726 C17.0140988,4.19342639 16.5009902,3.8854896 15.9548346,3.6465736 L16.9777354,1.62944162 Z M7.74236641,1.3857868 C7.89626948,1.3455086 8.05751771,1.41760882 8.12977099,1.55901015 L9.15267176,3.57423858 C8.60642139,3.81244491 8.09327693,4.11997668 7.6259542,4.4892132 L7.49109415,1.72715736 C7.48397507,1.56859423 7.58856491,1.42650179 7.74236641,1.3857868 Z M1.91475827,7.76395939 C1.61438403,7.40330189 1.35177924,7.01294582 1.13104326,6.59898477 C1.9192112,6.38261421 3.80979644,5.99492386 5.44274809,6.68464467 C4.95294789,7.46375875 4.58325917,8.31184196 4.34605598,9.20050761 C3.46628499,9.11865482 2.65012723,8.63642132 1.91475827,7.76395939 Z M6.22201018,12.5634518 C5.8558891,12.8380742 5.5140903,13.1435538 5.20038168,13.4765228 C5.13293571,13.0319212 5.0989138,12.5829113 5.09860051,12.1332487 C5.09860051,7.62119289 8.4821883,3.94796954 12.6412214,3.94796954 C13.0319516,3.94801202 13.4219919,3.98069818 13.8072519,4.04568528 C13.31743,4.84010152 13.1157761,6.01269036 13.2506361,7.36865482 C13.3778626,8.66687817 13.7907125,9.85279188 14.3664122,10.677665 C13.7950444,10.5954913 13.2184978,10.5543533 12.6412214,10.5545685 C10.2207379,10.5564721 7.94083969,11.2690355 6.22201018,12.5634518 Z M19.0604326,12.5634518 C18.0521628,11.8020305 16.8505089,11.2449239 15.5400763,10.9137056 C14.7442748,10.3426396 14.1081425,8.90545685 13.9497455,7.30266497 C13.8187023,5.9822335 14.0413486,4.85025381 14.5464377,4.21573604 C17.7862595,5.13324873 20.1844784,8.3356599 20.1844784,12.1345178 C20.1844815,12.5841923 20.1504578,13.0332258 20.0826972,13.4777919 C19.768988,13.1442042 19.4269603,12.8382858 19.0604326,12.5634518 Z M21.076972,9.24555838 C20.8395193,8.35817494 20.4698342,7.51138356 19.9802799,6.73350254 C21.6138677,6.04378173 23.5044529,6.43083756 24.2919847,6.64720812 C23.8924936,7.39213198 22.802799,9.08312183 21.076972,9.24555838 Z" id="Shape"></path>
            </g>
            <path d="M25.0003388,0 C11.1928869,0 0,11.1928869 0,25.0003388 C0,38.8077908 11.1928869,50 25.0003388,50 C38.8077908,50 50,38.8071131 50,25.0003388 C50,11.1935646 38.8071131,0 25.0003388,0 Z M25.0003388,46.8446306 C12.9372857,46.8446306 3.15536941,37.0647474 3.15536941,25.0003388 C3.15536941,12.9359303 12.9352526,3.15536941 25.0003388,3.15536941 C37.0654251,3.15536941 46.8446306,12.9352526 46.8446306,25.0003388 C46.8446306,37.0654251 37.0647474,46.8446306 25.0003388,46.8446306 Z" id="Shape"></path>
        </g>
    </g>
</svg>