<?xml version="1.0" encoding="UTF-8"?>
<svg width="50px" height="50px" viewBox="0 0 50 50" version="1.1" xmlns="http://www.w3.org/2000/svg" xmlns:xlink="http://www.w3.org/1999/xlink">
    <!-- Generator: Sketch 54.1 (76490) - https://sketchapp.com -->
    <title>Group 32</title>
    <desc>Created with Sketch.</desc>
    <g id="Page-1" stroke="none" stroke-width="1" fill="none" fill-rule="evenodd" opacity="0.8">
        <g id="Group-32" fill="#E26241" fill-rule="nonzero">
            <g id="Group" transform="translate(13.000000, 11.000000)">
                <path d="M9.45285714,13.4252632 C8.96040505,13.4195579 8.51304957,13.6933603 8.32036588,14.1184007 C8.12768218,14.543441 8.22783609,15.0355295 8.57390791,15.3641345 C8.91997973,15.6927396 9.44342134,15.7927729 9.89901304,15.6173712 C10.3546047,15.4419695 10.6521053,15.0258755 10.6521429,14.5640191 C10.6544233,14.2637858 10.5292823,13.9750288 10.3043099,13.7614111 C10.0793376,13.5477935 9.77300749,13.4268564 9.45285714,13.4252632 L9.45285714,13.4252632 Z" id="Path"></path>
                <path d="M15.5228571,13.416555 C15.0265884,13.4105774 14.5756296,13.6863262 14.3812828,14.1145962 C14.186936,14.5428661 14.2877051,15.0388084 14.6363736,15.3700434 C14.9850422,15.7012784 15.5125319,15.802182 15.9716813,15.6254745 C16.4308308,15.4487671 16.7306734,15.0294579 16.7307143,14.5640191 C16.7331853,14.2615383 16.6072256,13.9705644 16.3806251,13.755294 C16.1540247,13.5400236 15.8454054,13.4181476 15.5228571,13.416555 L15.5228571,13.416555 Z" id="Path"></path>
                <path d="M10.3864286,22.7168421 C9.96147877,22.711952 9.57546375,22.9482487 9.40921657,23.3150365 C9.24296939,23.6818244 9.32941816,24.1064546 9.628065,24.3900044 C9.92671183,24.6735543 10.3784046,24.7598618 10.7715427,24.6084953 C11.1646808,24.4571288 11.4213966,24.098069 11.4214286,23.6995215 C11.4231388,23.4404962 11.315054,23.1914432 11.1209527,23.007154 C10.9268515,22.8228648 10.6626342,22.7184361 10.3864286,22.7168421 L10.3864286,22.7168421 Z" id="Path"></path>
                <path d="M14.5914286,22.708134 C14.1628907,22.702699 13.7733158,22.9406031 13.60529,23.3103454 C13.4372643,23.6800876 13.5240875,24.1083915 13.8250673,24.3945193 C14.1260471,24.6806471 14.5815346,24.7678933 14.9780516,24.6153672 C15.3745685,24.4628411 15.6335322,24.1007708 15.6335714,23.6988517 C15.6371347,23.1555384 15.1707728,22.7121894 14.5914286,22.708134 L14.5914286,22.708134 Z" id="Path"></path>
                <path d="M24.7142857,0.681913876 L24.5657143,0.127272727 L23.9621429,0.0435406699 C23.8571429,0.0288038278 21.3571429,-0.298086124 19.2564286,1.23253589 C18.0114286,2.13885167 17.185,3.47923445 16.7914286,5.22555024 C15.5878571,4.77406699 14.1485714,4.54631579 12.4921429,4.54631579 C10.8357143,4.54631579 9.39571429,4.77406699 8.19214286,5.22555024 C7.79857143,3.47923445 6.97285714,2.13885167 5.72785714,1.23253589 C3.62642857,-0.298086124 1.12714286,0.0267942584 1.02142857,0.0435406699 L0.418571429,0.127272727 L0.27,0.681913876 C0.00575614868,1.83650132 -0.0218778736,3.02768936 0.188571429,4.19196172 C0.489285714,5.8384689 1.42857143,8.02956938 4.13857143,9.45770335 C3.77571429,10.6600957 3.68428571,12.0661244 3.86928571,13.6670813 C4.11428571,15.7811483 4.64642857,17.0398086 5.26285714,18.4974163 C5.50285714,19.063445 5.75071429,19.6495694 6.00214286,20.3355024 C6.145,20.7320574 6.16928571,21.8667943 6.13857143,22.5460287 L6.13857143,22.5828708 C6.13857143,25.15311 7.49214286,26.4512919 8.62714286,27.0876555 C9.945,27.8244976 11.4564286,27.9819139 12.4928571,27.9819139 C13.5292857,27.9819139 15.04,27.8265072 16.3578571,27.0876555 C17.4935714,26.4512919 18.8464286,25.15311 18.8464286,22.5828708 L18.8464286,22.5460287 C18.8164286,21.88689 18.8385714,20.7287081 18.9828571,20.3355024 C19.235,19.6495694 19.4828571,19.0627751 19.7221429,18.4974163 C20.3385714,17.0398086 20.8714286,15.7811483 21.1157143,13.6670813 C21.3007143,12.0661244 21.21,10.6600957 20.8464286,9.45770335 C23.5564286,8.02956938 24.4957143,5.84047847 24.7964286,4.19196172 C25.0064688,3.02763503 24.9785931,1.8364778 24.7142857,0.681913876 Z M4.85142857,7.86545455 C3.28571429,6.98325359 2.32857143,5.6723445 2,3.95818182 C1.86403192,3.2196516 1.84190112,2.46663343 1.93428571,1.72220096 C2.60714286,1.7476555 3.69071429,1.90976077 4.62428571,2.59703349 C5.62428571,3.3338756 6.25285714,4.51282297 6.50642857,6.11043062 C6.18534444,6.33901221 5.8880649,6.59559628 5.61857143,6.87674641 C5.32790604,7.18117208 5.07087915,7.51243316 4.85142857,7.86545455 L4.85142857,7.86545455 Z M15.4228571,25.6166507 C14.4121429,26.1833493 13.1542857,26.2677512 12.4942857,26.2677512 C11.8342857,26.2677512 10.5764286,26.1833493 9.56571429,25.6166507 C8.49428571,25.0137799 7.97071429,24.0290909 7.96642857,22.6022967 C7.97,22.530622 7.97428571,22.4120574 7.97714286,22.2606699 C9,21.3684211 10.695,20.8238278 12.4928571,20.8238278 C14.2907143,20.8238278 15.9828571,21.3677512 17.0092857,22.2586603 C17.0128571,22.4100478 17.0171429,22.5266029 17.02,22.6002871 C17.0157143,24.0297608 16.4928571,25.0164593 15.4207143,25.6173206 L15.4228571,25.6166507 Z M19.3014286,13.4815311 C19.0835714,15.3644976 18.6164286,16.4677512 18.0257143,17.8644019 C17.7785714,18.4491866 17.5257143,19.054067 17.2571429,19.777512 C17.2043742,19.9250896 17.1637784,20.0762525 17.1357143,20.2296651 C15.85,19.5155981 14.2192857,19.1123445 12.4928571,19.1123445 C10.7664286,19.1123445 9.13571429,19.5142584 7.85,20.2296651 C7.8219314,20.077259 7.78182088,19.9270205 7.73,19.7801914 C7.465,19.0567464 7.20857143,18.451866 6.96142857,17.8677512 C6.37071429,16.4704306 5.90357143,15.367177 5.68571429,13.4842105 C5.40428571,11.0499522 5.83928571,9.21253589 6.97857143,8.02220096 C8.09642857,6.85397129 9.95214286,6.26114833 12.4928571,6.26114833 C15.0335714,6.26114833 16.8885714,6.85397129 18.0071429,8.02220096 C19.1428571,9.21052632 19.5807143,11.0479426 19.2992857,13.482201 L19.3014286,13.4815311 Z M22.9978571,3.90258373 C22.68,5.64421053 21.7185714,6.9738756 20.1357143,7.86545455 C19.7138001,7.18318184 19.1511854,6.5865642 18.4807143,6.11043062 C18.7342857,4.51282297 19.3657143,3.33119617 20.3628571,2.59703349 C21.2971429,1.90976077 22.3807143,1.7476555 23.0528571,1.7215311 C23.1421092,2.44750093 23.122876,3.18160045 22.9957143,3.90258373 L22.9978571,3.90258373 Z" id="Shape"></path>
            </g>
            <path d="M25.0003388,0 C11.1928869,0 0,11.1928869 0,25.0003388 C0,38.8077908 11.1928869,50 25.0003388,50 C38.8077908,50 50,38.8071131 50,25.0003388 C50,11.1935646 38.8071131,0 25.0003388,0 Z M25.0003388,46.8446306 C12.9372857,46.8446306 3.15536941,37.0647474 3.15536941,25.0003388 C3.15536941,12.9359303 12.9352526,3.15536941 25.0003388,3.15536941 C37.0654251,3.15536941 46.8446306,12.9352526 46.8446306,25.0003388 C46.8446306,37.0654251 37.0647474,46.8446306 25.0003388,46.8446306 Z" id="Shape"></path>
        </g>
    </g>
</svg>