<?xml version="1.0" encoding="UTF-8"?>
<svg width="50px" height="50px" viewBox="0 0 50 50" version="1.1" xmlns="http://www.w3.org/2000/svg" xmlns:xlink="http://www.w3.org/1999/xlink">
    <!-- Generator: Sketch 54.1 (76490) - https://sketchapp.com -->
    <title>Group 33</title>
    <desc>Created with Sketch.</desc>
    <g id="Page-1" stroke="none" stroke-width="1" fill="none" fill-rule="evenodd" opacity="0.8">
        <g id="Group-33" fill="#E26241" fill-rule="nonzero">
            <path d="M25.0003388,0 C11.1928869,0 0,11.1928869 0,25.0003388 C0,38.8077908 11.1928869,50 25.0003388,50 C38.8077908,50 50,38.8071131 50,25.0003388 C50,11.1935646 38.8071131,0 25.0003388,0 Z M25.0003388,46.8446306 C12.9372857,46.8446306 3.15536941,37.0647474 3.15536941,25.0003388 C3.15536941,12.9359303 12.9352526,3.15536941 25.0003388,3.15536941 C37.0654251,3.15536941 46.8446306,12.9352526 46.8446306,25.0003388 C46.8446306,37.0654251 37.0647474,46.8446306 25.0003388,46.8446306 Z" id="Shape"></path>
            <g id="Group" transform="translate(11.000000, 13.000000)">
                <path d="M26.7724211,5.89314199 C25.8882105,4.48465257 24.6355789,3.14495468 23.7977895,2.44244713 C21.9608421,0.907492447 20.4282105,0.945015106 19.6781053,1.10413897 C19.3748151,1.16687591 19.0845472,1.27627451 18.8189474,1.42794562 C17.5103158,0.512114804 15.9187368,0.0632326284 13.9926316,0.0632326284 C12.0665263,0.0632326284 10.4742105,0.512114804 9.16557895,1.42794562 C8.89997913,1.27627451 8.60971126,1.16687591 8.30642105,1.10413897 C7.55631579,0.945015106 6.02221053,0.907492447 4.18747368,2.44244713 C3.346,3.14495468 2.1,4.48465257 1.21284211,5.89314199 C0.0117894737,7.79984894 -0.256421053,9.34244713 0.417052632,10.4792447 C1.23936842,11.8654985 2.48684211,12.220574 3.49336842,12.3081269 C3.2197349,13.3150256 3.08574005,14.3511402 3.09473684,15.3905438 C3.09473684,16.9922054 3.48157895,18.3701208 4.24421053,19.4860725 C4.914,20.4665257 5.87926316,21.2524169 7.112,21.8208157 C9.38957895,22.8707553 12.1306316,22.9916616 13.9941053,22.9916616 C15.8575789,22.9916616 18.5986316,22.8707553 20.8762105,21.8208157 C22.1089474,21.2524169 23.0734737,20.4665257 23.744,19.4860725 C24.5066316,18.3701208 24.8927368,16.9922054 24.8927368,15.3905438 C24.9017799,14.3505934 24.7672822,13.3139544 24.4926316,12.3067372 C25.4991579,12.2191843 26.7466316,11.8641088 27.5689474,10.477855 C28.2409474,9.34244713 27.9734737,7.79984894 26.7724211,5.89314199 Z M4.02315789,10.7217523 C3.13231579,10.6995166 2.40726316,10.5369184 1.90621053,9.69265861 C1.56652632,9.11939577 1.848,8.03401813 2.67915789,6.71516616 C3.46831579,5.46441088 4.60084211,4.2463142 5.31852632,3.64664653 C6.50484211,2.65577039 7.39421053,2.60435045 7.812,2.6536858 C6.56747368,4.08510574 5.80410526,5.94456193 5.166,7.75329305 C4.90221053,8.50166163 4.65021053,9.14302115 4.40115789,9.75936556 C4.26926316,10.0901208 4.14252632,10.4083686 4.02315789,10.7217523 Z M12.8792632,15.9971601 C12.4371579,15.5802417 12.2072632,15.1445619 12.2072632,14.9277644 C12.2072632,14.7345921 12.2418947,14.7193051 12.3723158,14.6692749 C12.7407368,14.5212689 13.4775789,14.5045921 13.9933684,14.5045921 C14.5091579,14.5045921 15.2408421,14.5212689 15.6144211,14.6692749 C15.7448421,14.7206949 15.7802105,14.7345921 15.7802105,14.9277644 C15.7802105,15.1445619 15.5488421,15.5809366 15.1074737,15.9971601 C14.6661053,16.4133837 14.21,16.6267069 13.9948421,16.6267069 C13.7796842,16.6267069 13.3132632,16.4057402 12.8792632,15.9971601 L12.8792632,15.9971601 Z M20.1253684,20.3748036 C18.816,20.9786405 17.0829474,21.3059215 14.8451579,21.3705438 L14.8451579,18.0748036 C15.5149474,17.8316012 16.0609474,17.3716012 16.3114737,17.1353474 C16.6644211,16.8025076 17.4837895,15.9228097 17.4837895,14.9277644 C17.4837895,14.1140785 17.0542105,13.4956495 16.2738947,13.186435 C15.7536842,12.9779758 15.0949474,12.895287 13.9896842,12.895287 C12.8844211,12.895287 12.2278947,12.9800604 11.7054737,13.186435 C10.9251579,13.4956495 10.4955789,14.1140785 10.4955789,14.9277644 C10.4955789,15.9228097 11.3156842,16.8038973 11.6678947,17.1353474 C11.9191579,17.3716012 12.4644211,17.8302115 13.1342105,18.0748036 L13.1342105,21.3705438 C10.8971579,21.3059215 9.16336842,20.9786405 7.854,20.3748036 C5.79526316,19.4256193 4.79463158,17.7954683 4.79463158,15.3905438 C4.79463158,13.3337462 5.29715789,12.0718731 5.99273684,10.3256798 C6.23294737,9.72253776 6.50852632,9.03879154 6.77968421,8.26123867 C8.288,3.98782477 9.88326316,1.6718429 13.9874737,1.6718429 C18.0916842,1.6718429 19.6869474,3.98782477 21.1945263,8.26123867 C21.4693684,9.03879154 21.7412632,9.72045317 21.9814737,10.3256798 C22.6770526,12.0718731 23.1803158,13.3337462 23.1803158,15.3905438 C23.1854737,17.7954683 22.1841053,19.4256193 20.1253684,20.3748036 Z M26.0783158,9.69265861 C25.5772632,10.5369184 24.8529474,10.6995166 23.9621053,10.7217523 C23.8427368,10.4083686 23.716,10.0901208 23.5841053,9.75936556 C23.338,9.14163142 23.0830526,8.50166163 22.8185263,7.75329305 C22.1804211,5.94664653 21.4185263,4.08510574 20.1725263,2.6536858 C20.5910526,2.60087613 21.4804211,2.6536858 22.666,3.64664653 C23.3844211,4.2463142 24.5169474,5.46232628 25.3053684,6.7144713 C26.1365263,8.03401813 26.418,9.11939577 26.0783158,9.69265861 Z" id="Shape"></path>
                <path d="M11.1535789,8.6163142 C10.6932598,8.6106762 10.2749446,8.86786575 10.0946988,9.26733758 C9.91445289,9.66680941 10.0079999,10.1293907 10.331494,10.4382686 C10.6549882,10.7471466 11.144315,10.8411035 11.570126,10.6761015 C11.995937,10.5110996 12.2738391,10.1198412 12.2735789,9.68570997 C12.2768461,9.09897472 11.7757526,8.62052177 11.1535789,8.6163142 Z" id="Path"></path>
                <path d="M16.8228421,8.60589124 C16.3593114,8.60025411 15.9380881,8.85923133 15.7565452,9.26147377 C15.5750023,9.66371621 15.6691079,10.1295297 15.9947669,10.4406476 C16.3204259,10.7517656 16.8131171,10.8465478 17.24198,10.6805822 C17.6708428,10.5146166 17.9509088,10.120785 17.9509474,9.68362538 C17.9546225,9.09239815 17.4497814,8.61009873 16.8228421,8.60589124 L16.8228421,8.60589124 Z" id="Path"></path>
            </g>
        </g>
    </g>
</svg>