<?xml version="1.0" encoding="UTF-8"?>
<svg width="50px" height="50px" viewBox="0 0 50 50" version="1.1" xmlns="http://www.w3.org/2000/svg" xmlns:xlink="http://www.w3.org/1999/xlink">
    <!-- Generator: Sketch 54.1 (76490) - https://sketchapp.com -->
    <title>Group 21</title>
    <desc>Created with Sketch.</desc>
    <g id="Page-1" stroke="none" stroke-width="1" fill="none" fill-rule="evenodd" opacity="0.8">
        <g id="Group-21" fill="#E26241" fill-rule="nonzero">
            <path d="M25.0003388,0 C11.1928869,0 0,11.1928869 0,25.0003388 C0,38.8077908 11.1928869,50 25.0003388,50 C38.8077908,50 50,38.8071131 50,25.0003388 C50,11.1935646 38.8071131,0 25.0003388,0 Z M25.0003388,46.8446306 C12.9372857,46.8446306 3.15536941,37.0647474 3.15536941,25.0003388 C3.15536941,12.9359303 12.9352526,3.15536941 25.0003388,3.15536941 C37.0654251,3.15536941 46.8446306,12.9352526 46.8446306,25.0003388 C46.8446306,37.0654251 37.0647474,46.8446306 25.0003388,46.8446306 Z" id="Shape"></path>
            <g id="Group" transform="translate(15.000000, 10.000000)">
                <path d="M4.44444444,6.35945946 C4.13476703,6.35945946 3.76487455,6.58175676 3.76487455,7.64324324 C3.76487455,8.70472973 4.13476703,8.92702703 4.44444444,8.92702703 C4.75412186,8.92702703 5.12401434,8.70472973 5.12401434,7.64324324 C5.12401434,6.58175676 4.75125448,6.35945946 4.44444444,6.35945946 Z" id="Path"></path>
                <path d="M15.7706093,6.35945946 C15.4609319,6.35945946 15.0910394,6.58175676 15.0910394,7.64324324 C15.0910394,8.70472973 15.4609319,8.92702703 15.7706093,8.92702703 C16.0802867,8.92702703 16.4501792,8.70472973 16.4501792,7.64324324 C16.4501792,6.58175676 16.0774194,6.35945946 15.7706093,6.35945946 Z" id="Path"></path>
                <path d="M19.027957,9.30405405 C18.7240143,8.36351351 18.4623656,7.55135135 18.4623656,7.0277027 C18.4623656,5.02162162 17.9053763,3.3027027 17.3870968,2.55472973 C16.0896057,0.675675676 12.6358423,0.00675675676 10.0530466,0 L10.0043011,0 C7.42365591,0.00743243243 3.96774194,0.675675676 2.66953405,2.55540541 C2.15197133,3.30337838 1.59426523,5.0222973 1.59426523,7.02837838 C1.59426523,7.55202703 1.33261649,8.36418919 1.02939068,9.30472973 C0.527598566,10.8493243 -0.088172043,12.7709459 0.10609319,14.575 C0.313978495,16.4993243 0.966308244,17.9675676 2.03655914,18.9391892 C2.65841507,19.4966962 3.42472355,19.8904648 4.25878136,20.0810811 L4.31397849,20.0952703 C4.16630824,21.822973 4.07741935,23.7108108 4.07741935,25.7709459 C4.07741935,27.1358108 4.7655914,28.2608108 6.06738351,29.0236486 C7.12759857,29.6452703 8.5390681,29.9878378 10.0422939,29.9878378 L10.0422939,29.9878378 C11.5476703,29.9878378 12.9569892,29.6452703 14.0172043,29.0236486 C15.3189964,28.2608108 16.0071685,27.1358108 16.0071685,25.7709459 C16.0071685,23.7047297 15.9182796,21.8141892 15.7698925,20.0837838 L15.7913978,20.0783784 C16.6266481,19.8881027 17.3942041,19.4943281 18.0172043,18.9364865 C19.0924731,17.9648649 19.7376344,16.4966216 19.9469534,14.5722973 C20.1433692,12.7702703 19.525448,10.8486486 19.027957,9.30405405 Z M10.1075269,26.4331081 C10.2602151,26.5006757 10.5082437,27.0378378 10.6150538,27.2709459 C10.6810036,27.4135135 10.744086,27.5513514 10.8107527,27.6763514 C10.5792115,27.697973 10.344086,27.7094595 10.1075269,27.7094595 C9.87096774,27.7094595 9.63584229,27.697973 9.40501792,27.6763514 C9.47096774,27.5493243 9.53476703,27.4114865 9.6,27.2709459 C9.70394265,27.0378378 9.95197133,26.497973 10.1075269,26.4331081 Z M13.1268817,27.2135135 C12.7050994,27.4525765 12.2469902,27.6293976 11.7684588,27.7378378 C11.7449409,27.732152 11.7209643,27.72831 11.6967742,27.7263514 C11.5880683,27.5533653 11.4938746,27.3726347 11.4150538,27.1858108 C11.1526882,26.6135135 10.8265233,25.902027 10.1476703,25.902027 C9.4688172,25.902027 9.14408602,26.6135135 8.87956989,27.1858108 C8.80104922,27.3727601 8.70684409,27.5535126 8.59784946,27.7263514 C8.57366787,27.7283723 8.54969655,27.7322134 8.52616487,27.7378378 C8.04792314,27.6292112 7.5900795,27.4523993 7.16845878,27.2135135 C6.29749104,26.7027027 5.85591398,25.9891892 5.85591398,25.0925676 C5.85591398,18.1655405 6.990681,13.7283784 7.81935484,10.4885135 C7.82365591,10.472973 7.82724014,10.4581081 7.83154122,10.4425676 C8.39354839,10.8297297 9.30179211,11.3452703 10.1455197,11.3452703 C10.9892473,11.3452703 11.897491,10.8297297 12.4602151,10.4425676 C12.4645161,10.4581081 12.4681004,10.4736486 12.4724014,10.4898649 C13.3010753,13.7290541 14.4358423,18.1662162 14.4358423,25.0925676 C14.4358423,25.9891892 13.9942652,26.7027027 13.1232975,27.2135135 L13.1268817,27.2135135 Z M18.2336918,14.4304054 C17.8695341,17.802027 16.027957,18.4648649 15.246595,18.675 C14.8222222,14.4858108 14.027957,11.3824324 13.4458781,9.09864865 C13.3832736,8.85675676 13.3235364,8.62252252 13.2666667,8.39594595 C13.2663558,8.39461047 13.2663558,8.39322736 13.2666667,8.39189189 L13.2666667,8.38513514 C13.2441234,8.30455584 13.1970211,8.23197012 13.1311828,8.17635135 L13.1240143,8.17162162 L13.097491,8.15067568 L13.083871,8.14189189 L13.0609319,8.12837838 L13.0437276,8.11959459 L13.0222222,8.10878378 L13.0043011,8.10135135 C12.9968244,8.09823999 12.9891656,8.09553289 12.981362,8.09324324 L12.9648746,8.08783784 L12.9390681,8.08040541 L12.9240143,8.08040541 L12.8960573,8.075 L12.8817204,8.075 L12.8523297,8.075 L12.809319,8.075 L12.7870968,8.075 L12.7663082,8.075 C12.754718,8.07636457 12.7432271,8.07839538 12.7318996,8.08108108 L12.7247312,8.08108108 L12.7247312,8.08108108 C12.669391,8.09449147 12.6171452,8.1173962 12.5706093,8.14864865 L12.5620072,8.15405405 L12.5412186,8.17027027 L12.5268817,8.18108108 L12.5268817,8.18108108 C12.1512545,8.50608108 10.9842294,9.34932432 10.1154122,9.34932432 C9.24659498,9.34932432 8.08028674,8.50540541 7.70322581,8.18040541 L7.70322581,8.18040541 C7.69390681,8.1722973 7.68387097,8.16486486 7.67383513,8.15743243 L7.66810036,8.15337838 C7.65878136,8.14662162 7.64874552,8.14054054 7.63870968,8.13445946 L7.63082437,8.12972973 L7.61218638,8.12027027 L7.590681,8.10945946 C7.590681,8.10945946 7.58637993,8.10945946 7.58494624,8.10945946 L7.5483871,8.09594595 L7.54408602,8.09594595 C7.53117382,8.09163517 7.51801005,8.08802565 7.5046595,8.08513514 L7.5046595,8.08513514 L7.49462366,8.08513514 L7.46236559,8.07972973 C7.45591876,8.07939846 7.44945758,8.07939846 7.44301075,8.07972973 L7.41935484,8.07972973 L7.37562724,8.07972973 L7.35053763,8.07972973 L7.33189964,8.07972973 C7.32418107,8.08068871 7.31652344,8.08204206 7.30896057,8.08378378 L7.28817204,8.08783784 L7.2688172,8.09324324 L7.24516129,8.10067568 L7.23010753,8.10608108 L7.20430108,8.11689189 L7.19139785,8.12297297 L7.1655914,8.13648649 L7.15340502,8.14391892 C7.14519081,8.14863947 7.13729075,8.15382935 7.1297491,8.15945946 L7.11469534,8.17027027 C7.10896057,8.175 7.10179211,8.17972973 7.09605735,8.18513514 L7.07670251,8.2027027 L7.06594982,8.21283784 L7.06594982,8.21283784 C7.05806452,8.22094595 7.0516129,8.22972973 7.04444444,8.23783784 L7.03727599,8.24594595 L7.02007168,8.27027027 C7.02007168,8.27364865 7.01433692,8.2777027 7.01218638,8.28175676 C7.00937373,8.28581394 7.0069736,8.29011228 7.00501792,8.29459459 C7,8.3027027 6.99498208,8.31081081 6.990681,8.31959459 L6.990681,8.31959459 C6.98494624,8.33175676 6.97921147,8.34459459 6.97419355,8.35743243 C6.96989247,8.37027027 6.9655914,8.38310811 6.96272401,8.39594595 L6.96272401,8.39594595 C6.90537634,8.62117117 6.84587814,8.85518018 6.78422939,9.09797297 C6.19928315,11.3831081 5.40645161,14.4864865 4.98207885,18.6824324 C4.21935484,18.4797297 2.33405018,17.8459459 1.96487455,14.4297297 C1.80573477,12.9587838 2.34121864,11.297973 2.77204301,9.96418919 C3.06953405,9.04189189 3.32616487,8.24527027 3.32616487,7.64054054 C3.32616487,6.0777027 3.7562724,4.61418919 4.15842294,4.03040541 C4.6,3.39256757 5.49820789,2.8722973 6.75483871,2.52567568 C8.94659351,1.94370291 11.2663097,1.94370291 13.4580645,2.52567568 C14.7146953,2.8722973 15.6121864,3.39256757 16.0544803,4.03040541 C16.4580645,4.61418919 16.8867384,6.0777027 16.8867384,7.64054054 C16.8867384,8.24527027 17.1433692,9.04189189 17.4408602,9.96418919 C17.8530466,11.2986486 18.3885305,12.9587838 18.2301075,14.4304054 L18.2336918,14.4304054 Z" id="Shape"></path>
            </g>
        </g>
    </g>
</svg>