<?xml version="1.0" encoding="UTF-8"?>
<svg width="50px" height="50px" viewBox="0 0 50 50" version="1.1" xmlns="http://www.w3.org/2000/svg" xmlns:xlink="http://www.w3.org/1999/xlink">
    <!-- Generator: Sketch 54.1 (76490) - https://sketchapp.com -->
    <title>Group 29</title>
    <desc>Created with Sketch.</desc>
    <g id="Page-1" stroke="none" stroke-width="1" fill="none" fill-rule="evenodd" opacity="0.8">
        <g id="Group-29" fill="#E26241" fill-rule="nonzero">
            <path d="M25.0003388,0 C11.1928869,0 0,11.1928869 0,25.0003388 C0,38.8077908 11.1928869,50 25.0003388,50 C38.8077908,50 50,38.8071131 50,25.0003388 C50,11.1935646 38.8071131,0 25.0003388,0 Z M25.0003388,46.8446306 C12.9372857,46.8446306 3.15536941,37.0647474 3.15536941,25.0003388 C3.15536941,12.9359303 12.9352526,3.15536941 25.0003388,3.15536941 C37.0654251,3.15536941 46.8446306,12.9352526 46.8446306,25.0003388 C46.8446306,37.0654251 37.0647474,46.8446306 25.0003388,46.8446306 Z" id="Shape"></path>
            <g id="Group" transform="translate(13.000000, 12.000000)">
                <path d="M9.48303835,11.987069 C8.98958481,11.9820744 8.54138358,12.2264254 8.34838786,12.6056595 C8.15539213,12.9848935 8.2558254,13.4239019 8.60264119,13.7170377 C8.94945698,14.0101735 9.47396719,14.0993801 9.93047284,13.9428701 C10.3869785,13.78636 10.685067,13.4151306 10.6851032,13.0030788 C10.6870651,12.7352479 10.5615201,12.4777364 10.3360879,12.2871965 C10.1106557,12.0966566 9.80380352,11.9886971 9.48303835,11.987069 L9.48303835,11.987069 Z" id="Path"></path>
                <path d="M15.5663717,11.979064 C15.0689776,11.9738192 14.6170561,12.2199595 14.4223433,12.6021623 C14.2276305,12.9843652 14.328699,13.4269162 14.6781958,13.7224696 C15.0276926,14.018023 15.5563823,14.1080296 16.0165611,13.9503192 C16.47674,13.7926087 16.7772465,13.4184238 16.7772861,13.0030788 C16.7813722,12.4411666 16.2393379,11.982793 15.5663717,11.979064 L15.5663717,11.979064 Z" id="Path"></path>
                <path d="M10.4181416,20.2783251 C9.99186452,20.2738289 9.60457103,20.4848083 9.43776587,20.8123882 C9.27096071,21.1399681 9.35769897,21.5192332 9.65733086,21.7724413 C9.95696274,22.0256494 10.4101114,22.1026233 10.8044092,21.9672892 C11.1987069,21.8319551 11.4560174,21.5111316 11.4557522,21.1551724 C11.4590206,20.6738595 10.9945789,20.2813766 10.4181416,20.2783251 L10.4181416,20.2783251 Z" id="Path"></path>
                <path d="M14.6327434,20.2715517 C14.2031225,20.266805 13.8126467,20.4792735 13.6443526,20.8093619 C13.4760586,21.1394503 13.5633058,21.5217283 13.8651967,21.7770018 C14.1670876,22.0322753 14.6237813,22.1099439 15.0212012,21.9736002 C15.418621,21.8372565 15.6779902,21.5139266 15.6777286,21.1551724 C15.680998,20.6703575 15.2133721,20.2749415 14.6327434,20.2715517 L14.6327434,20.2715517 Z" id="Path"></path>
                <path d="M24.7787611,0.615763547 L24.6312684,0.123152709 L24.0265487,0.0486453202 C23.9210914,0.0350985222 21.4159292,-0.259236453 19.3067847,1.10899015 C18.1659292,1.8479064 17.3761062,2.91133005 16.9469027,4.27832512 C16.8809554,3.90325343 16.689197,3.55143078 16.3938053,3.2635468 C15.4867257,2.38238916 13.7905605,2.19704433 12.5294985,2.19704433 C11.2684366,2.19704433 9.57079646,2.3817734 8.66445428,3.26477833 C8.37020743,3.55153478 8.17876227,3.90175792 8.1120944,4.27524631 C7.68362832,2.90825123 6.89380531,1.84544335 5.75221239,1.10591133 C3.6460177,-0.259236453 1.14085546,0.0320197044 1.03244838,0.0455665025 L0.428466077,0.123152709 L0.280973451,0.615763547 C0.0160250282,1.64590239 -0.011755127,2.70872726 0.199115044,3.74753695 C0.500737463,5.21551724 1.43952802,7.16687192 4.14749263,8.44150246 C3.81268437,9.44889163 3.69174041,10.6853448 3.88864307,12.203202 C4.13348083,14.0899015 4.66740413,15.2130542 5.28539823,16.5135468 C5.52581121,17.0190887 5.77433628,17.5418719 6.02654867,18.1539409 C6.1740413,18.5080049 6.1939528,19.5203202 6.16297935,20.1243842 L6.16297935,20.1570197 C6.16297935,22.4507389 7.51917404,23.6096059 8.65707965,24.1773399 C9.97787611,24.8368227 11.4933628,24.9778325 12.5317109,24.9778325 C13.570059,24.9778325 15.0848083,24.8399015 16.4056047,24.1773399 C17.5435103,23.6096059 18.899705,22.453202 18.899705,20.1570197 L18.899705,20.1243842 C18.869469,19.53633 18.8915929,18.5030788 19.0368732,18.1539409 C19.2890855,17.5418719 19.5368732,17.0190887 19.7743363,16.5135468 C20.3923304,15.2130542 20.9262537,14.0899015 21.1710914,12.203202 C21.3679941,10.6853448 21.2448378,9.44889163 20.9122419,8.44150246 C23.6202065,7.16687192 24.5597345,5.21551724 24.8606195,3.74753695 C25.0708435,2.70868785 25.043066,1.64596529 24.7787611,0.615763547 L24.7787611,0.615763547 Z M10.0538348,4.25985222 C10.3923304,3.93041872 11.340708,3.72536946 12.5294985,3.72536946 C13.7182891,3.72536946 14.6681416,3.93041872 15.0044248,4.25985222 C15.0951327,4.3479064 15.1917404,4.48768473 15.1356932,4.79187192 C14.9992625,5.53078818 14.8215339,6.37561576 14.6851032,7.00862069 L12.5294985,6.18842365 L10.3738938,7.00615764 C10.2367257,6.37561576 10.0597345,5.53325123 9.92330383,4.78940887 C9.86651917,4.48768473 9.96386431,4.3479064 10.0538348,4.25985222 Z M4.85029499,7.01539409 C3.29424779,6.22783251 2.34292035,5.06157635 2.01253687,3.5387931 C1.87645328,2.87960851 1.85434999,2.20753044 1.94690265,1.54310345 C2.62168142,1.56650246 3.70722714,1.7112069 4.64306785,2.32450739 C5.63348083,2.9729064 6.26548673,4.01416256 6.52212389,5.41933498 C5.84274254,5.85275429 5.27427386,6.39545912 4.85029499,7.01539409 Z M15.4646018,22.8669951 C14.4513274,23.3725369 13.1902655,23.4482759 12.5294985,23.4482759 C11.8687316,23.4482759 10.6076696,23.3725369 9.59439528,22.8669951 C8.5199115,22.330665 7.99557522,21.4507389 7.99188791,20.1742611 C7.99188791,20.1126847 7.99926254,20.0043103 8.00221239,19.8700739 C9.03097345,19.0745074 10.730826,18.5892857 12.5294985,18.5892857 C14.3281711,18.5892857 16.0272861,19.0745074 17.0567847,19.8700739 C17.0567847,20.0043103 17.0641593,20.1108374 17.0671091,20.1742611 C17.0626844,21.4501232 16.5383481,22.330665 15.4646018,22.8669951 Z M19.3510324,12.0375616 C19.1297935,13.7179803 18.6651917,14.7025862 18.0730088,15.9488916 C17.8252212,16.4710591 17.5685841,17.010468 17.3023599,17.6564039 C17.2507802,17.7873886 17.2108488,17.9213732 17.1828909,18.057266 C15.8945428,17.4199507 14.259587,17.0603448 12.5294985,17.0603448 C10.79941,17.0603448 9.16445428,17.4199507 7.87536873,18.057266 C7.84776237,17.9213117 7.80782441,17.7873053 7.75589971,17.6564039 C7.48967552,17.010468 7.23377581,16.4710591 6.98525074,15.9495074 C6.39528024,14.7025862 5.92551622,13.7179803 5.70722714,12.0375616 C5.46681416,10.1853448 5.74041298,8.71243842 6.52212389,7.65948276 C6.97075966,7.06107604 7.60367968,6.57428576 8.35471976,6.25 C8.57153392,7.30357143 8.78539823,8.23706897 8.78834808,8.25 L9.00958702,9.20381773 L12.5324484,7.86699507 L16.0545723,9.20381773 L16.2758112,8.25 C16.2758112,8.23706897 16.4918879,7.30357143 16.7094395,6.25 C17.4601046,6.57450023 18.0927243,7.06125542 18.5412979,7.65948276 C19.3215339,8.71182266 19.5921829,10.1853448 19.3510324,12.0375616 Z M23.0560472,3.48891626 C22.7389381,5.03633005 21.7817109,6.21921182 20.2079646,7.01539409 C19.7842952,6.39510135 19.2157845,5.85214707 18.5361357,5.41871921 C18.7949853,4.0135468 19.4255162,2.97229064 20.4151917,2.32389163 C21.3517699,1.70812808 22.4380531,1.56527094 23.1113569,1.54248768 C23.2015428,2.19028298 23.1829264,2.84542128 23.0560472,3.48891626 L23.0560472,3.48891626 Z" id="Shape"></path>
            </g>
        </g>
    </g>
</svg>