<?xml version="1.0" encoding="UTF-8"?>
<svg width="50px" height="50px" viewBox="0 0 50 50" version="1.1" xmlns="http://www.w3.org/2000/svg" xmlns:xlink="http://www.w3.org/1999/xlink">
    <!-- Generator: Sketch 54.1 (76490) - https://sketchapp.com -->
    <title>Group 30</title>
    <desc>Created with Sketch.</desc>
    <g id="Page-1" stroke="none" stroke-width="1" fill="none" fill-rule="evenodd" opacity="0.8">
        <g id="Group-30" fill="#E26241" fill-rule="nonzero">
            <path d="M25.0003388,0 C11.1928869,0 0,11.1928869 0,25.0003388 C0,38.8077908 11.1928869,50 25.0003388,50 C38.8077908,50 50,38.8071131 50,25.0003388 C50,11.1935646 38.8071131,0 25.0003388,0 Z M25.0003388,46.8446306 C12.9372857,46.8446306 3.15536941,37.0647474 3.15536941,25.0003388 C3.15536941,12.9359303 12.9352526,3.15536941 25.0003388,3.15536941 C37.0654251,3.15536941 46.8446306,12.9352526 46.8446306,25.0003388 C46.8446306,37.0654251 37.0647474,46.8446306 25.0003388,46.8446306 Z" id="Shape"></path>
            <g id="Group" transform="translate(10.000000, 10.000000)">
                <circle id="Oval" cx="13.2367925" cy="16.7483491" r="1"></circle>
                <circle id="Oval" cx="16.7483491" cy="16.7483491" r="1"></circle>
                <path d="M28.1957547,11.4707547 C28.7496796,10.1965933 28.6678043,8.7354337 27.975,7.53113208 C27.2597484,6.31139519 26.0184747,5.49311661 24.615566,5.31650943 C24.4619357,3.93435497 23.6605208,2.7074983 22.456597,2.01142311 C21.2526731,1.31534793 19.7895771,1.23292747 18.5150943,1.78938679 C17.6898295,0.671222208 16.3826562,0.0113408795 14.9929245,0.0113408795 C13.6031929,0.0113408795 12.2960196,0.671222208 11.4707547,1.78938679 C10.1961808,1.23296535 8.73302866,1.31538966 7.52901063,2.01143859 C6.32499259,2.70748751 5.52342302,3.93431029 5.36957547,5.31650943 C3.96678227,5.49342903 2.72563469,6.31162447 2.01014151,7.53113208 C1.31733723,8.7354337 1.23546191,10.1965933 1.78938679,11.4707547 C0.671222208,12.2960196 0.0113408795,13.6031929 0.0113408795,14.9929245 C0.0113408795,16.3826562 0.671222208,17.6898295 1.78938679,18.5150943 C1.23513037,19.7889538 1.31701734,21.2500588 2.01014151,22.4540094 C2.70495283,23.6568396 3.98419811,24.4570755 5.37028302,24.6148585 C5.52806604,26.0009434 6.32900943,27.2808962 7.53113208,27.975 C8.73526853,28.6683596 10.1966954,28.7502499 11.4707547,28.1957547 C12.2956638,29.314463 13.6029665,29.9747692 14.9929245,29.9747692 C16.3828825,29.9747692 17.6901853,29.314463 18.5150943,28.1957547 C19.7889538,28.7500111 21.2500588,28.6681242 22.4540094,27.975 C23.6568396,27.2808962 24.4570755,26.0009434 24.6148585,24.6148585 C26.0009434,24.4570755 27.2808962,23.6568396 27.975,22.4540094 C28.6681242,21.2500588 28.7500111,19.7889538 28.1957547,18.5150943 C29.314463,17.6901853 29.9747692,16.3828825 29.9747692,14.9929245 C29.9747692,13.6029665 29.314463,12.2956638 28.1957547,11.4707547 L28.1957547,11.4707547 Z M26.6518868,17.3950472 C26.410044,17.5027352 26.2296964,17.7137889 26.1610397,17.9694663 C26.0923831,18.2251437 26.1427468,18.49815 26.2981132,18.7125 C26.9101583,19.5527604 26.9711259,20.6742876 26.4537736,21.5759434 C25.942217,22.4625 24.8900943,22.9839623 23.8358491,22.8735849 C23.5726823,22.8464107 23.3112778,22.9392475 23.1242013,23.126324 C22.9371249,23.3134004 22.844288,23.5748049 22.8714623,23.8379717 C22.9818396,24.8908019 22.4610849,25.942217 21.5745283,26.4558962 C20.6726537,26.973373 19.5508582,26.9124058 18.7103774,26.3002358 C18.4960274,26.1448694 18.223021,26.0945057 17.9673437,26.1631624 C17.7116663,26.231819 17.5006125,26.4121666 17.3929245,26.6540094 C16.973128,27.6059614 16.0308527,28.2202609 14.9904481,28.2202609 C13.9500435,28.2202609 13.0077683,27.6059614 12.5879717,26.6540094 C12.4802837,26.4121666 12.2692299,26.231819 12.0135526,26.1631624 C11.7578752,26.0945057 11.4848689,26.1448694 11.2705189,26.3002358 C10.4302585,26.9122809 9.30873131,26.9732485 8.40707547,26.4558962 C7.52051887,25.9443396 6.9990566,24.8929245 7.10943396,23.8379717 C7.13715032,23.5746757 7.04448969,23.3129433 6.85728264,23.1257362 C6.67007559,22.9385292 6.40834313,22.8458686 6.14504717,22.8735849 C5.09221698,22.9839623 4.04080189,22.4625 3.52712264,21.5766509 C3.0096459,20.6747763 3.07061304,19.5529808 3.68278302,18.7125 C3.83814946,18.49815 3.88851317,18.2251437 3.81985652,17.9694663 C3.75119987,17.7137889 3.57085224,17.5027352 3.32900943,17.3950472 C2.37705743,16.9752506 1.76275797,16.0329754 1.76275797,14.9925708 C1.76275797,13.9521661 2.37705743,13.0098909 3.32900943,12.5900943 C3.57104399,12.4826095 3.75157822,12.2715501 3.8202589,12.0157833 C3.88893958,11.7600164 3.83841718,11.4869117 3.68278302,11.2726415 C3.07109324,10.4322547 3.01013722,9.3109411 3.52712264,8.40919811 C4.05,7.50353774 5.1254717,6.94669811 6.14504717,7.05353774 C6.40847934,7.08129151 6.6703488,6.98854111 6.85758571,6.80116684 C7.04482262,6.61379256 7.13738093,6.35185514 7.10943396,6.0884434 C6.99560792,5.05361268 7.50392301,4.04926696 8.40521221,3.52820195 C9.30650142,3.00713695 10.4305198,3.06777686 11.2705189,3.68278302 C11.4848689,3.83814946 11.7578752,3.88851317 12.0135526,3.81985652 C12.2692299,3.75119987 12.4802837,3.57085224 12.5879717,3.32900943 C13.0077683,2.37705743 13.9500435,1.76275797 14.9904481,1.76275797 C16.0308527,1.76275797 16.973128,2.37705743 17.3929245,3.32900943 C17.5006125,3.57085224 17.7116663,3.75119987 17.9673437,3.81985652 C18.223021,3.88851317 18.4960274,3.83814946 18.7103774,3.68278302 C19.5502438,3.067083 20.6746579,3.0060762 21.5762096,3.52729292 C22.4777612,4.04850964 22.9859558,5.05338135 22.8714623,6.0884434 C22.8440216,6.35186208 22.9368464,6.61360748 23.1241195,6.80088054 C23.3113925,6.9881536 23.5731379,7.08097843 23.8365566,7.05353774 C24.8540094,6.94599057 25.9294811,7.50424528 26.4544811,8.40919811 C26.9718334,9.31085395 26.9108658,10.4323811 26.2988208,11.2726415 C26.1434543,11.4869915 26.0930906,11.7599978 26.1617473,12.0156752 C26.2304039,12.2713526 26.4107515,12.4824063 26.6525943,12.5900943 C27.6045463,13.0098909 28.2188458,13.9521661 28.2188458,14.9925708 C28.2188458,16.0329754 27.6045463,16.9752506 26.6525943,17.3950472 L26.6518868,17.3950472 Z" id="Shape"></path>
                <path d="M17.3688679,20.8804245 C17.697426,20.5353605 17.6908381,19.9912323 17.3540219,19.6542241 C17.0172058,19.317216 16.4730815,19.3103179 16.1278302,19.6386792 L14.9957547,20.7707547 L13.8636792,19.6386792 C13.5201206,19.2996728 12.9673511,19.3015161 12.626061,19.6428063 C12.2847708,19.9840964 12.2829276,20.5368659 12.621934,20.8804245 L14.3773585,22.6358491 C14.5419345,22.8006835 14.7653027,22.8933083 14.9982311,22.8933083 C15.2311596,22.8933083 15.4545277,22.8006835 15.6191038,22.6358491 L17.3688679,20.8804245 Z" id="Path"></path>
                <path d="M25.5849057,12.359434 L23.2988208,12.359434 C23.6093062,11.8262227 23.773109,11.2203231 23.7735849,10.6033019 C23.7600959,10.1282568 23.3711092,9.75015869 22.8958726,9.75015869 C22.4206361,9.75015869 22.0316494,10.1282568 22.0181604,10.6033019 C22.0309219,11.2389828 21.6990916,11.8319143 21.1506043,12.1534958 C20.602117,12.4750773 19.9226472,12.4750773 19.3741599,12.1534958 C18.8256725,11.8319143 18.4938422,11.2389828 18.5066038,10.6033019 C18.4931148,10.1282568 18.1041281,9.75015869 17.6288915,9.75015869 C17.1536549,9.75015869 16.7646683,10.1282568 16.7511792,10.6033019 C16.7639408,11.2389828 16.4321105,11.8319143 15.8836232,12.1534958 C15.3351358,12.4750773 14.6556661,12.4750773 14.1071787,12.1534958 C13.5586914,11.8319143 13.2268611,11.2389828 13.2396226,10.6033019 C13.2261336,10.1282568 12.8371469,9.75015869 12.3619104,9.75015869 C11.8866738,9.75015869 11.4976871,10.1282568 11.4841981,10.6033019 C11.4969597,11.2389828 11.1651293,11.8319143 10.616642,12.1534958 C10.0681547,12.4750773 9.38868493,12.4750773 8.8401976,12.1534958 C8.29171027,11.8319143 7.95987995,11.2389828 7.97264151,10.6033019 C7.9591525,10.1282568 7.57016581,9.75015869 7.09492925,9.75015869 C6.61969268,9.75015869 6.230706,10.1282568 6.21721698,10.6033019 C6.21671108,11.2201736 6.37980129,11.8261465 6.68985849,12.359434 L4.40023585,12.359434 C3.91556955,12.3594338 3.52256036,12.7521263 3.52216981,13.2367925 C3.52216981,15.6629717 5.54363208,17.6235849 7.96981132,17.6235849 L8.84787736,17.6235849 L8.84787736,18.5009434 C8.82415147,20.7119427 9.99010673,22.7652188 11.9010319,23.8776242 C13.8119571,24.9900297 16.1731844,24.9900297 18.0841096,23.8776242 C19.9950348,22.7652188 21.16099,20.7119427 21.1372642,18.5009434 L21.1372642,17.6235849 L22.0153302,17.6235849 C24.4415094,17.6235849 26.4629717,15.6608491 26.4629717,13.2367925 C26.4625812,12.7521263 26.069572,12.3594338 25.5849057,12.359434 Z M7.96698113,15.870283 C6.84219405,15.8621272 5.83738016,15.1653851 5.43537736,14.1148585 L8.84504717,14.1148585 L8.84504717,15.870283 L7.96698113,15.870283 Z M19.3790094,18.5037736 C19.3790094,20.9278998 17.4138668,22.8930425 14.9897406,22.8930425 C12.5656143,22.8930425 10.6004717,20.9278998 10.6004717,18.5037736 L10.6004717,14.0037736 C11.2807917,13.827119 11.8925114,13.4505245 12.3566038,12.9226415 C13.0219841,13.6804903 13.9815976,14.1149558 14.9900943,14.1149558 C15.9985911,14.1149558 16.9582046,13.6804903 17.6235849,12.9226415 C18.0875161,13.4503715 18.6989621,13.8269493 19.3790094,14.0037736 L19.3790094,18.5037736 Z M22.0125,15.870283 L21.1372642,15.870283 L21.1372642,14.1141509 L24.546934,14.1141509 C24.1453236,15.1650844 23.1403577,15.8622128 22.0153302,15.870283 L22.0125,15.870283 Z" id="Shape"></path>
            </g>
        </g>
    </g>
</svg>