<svg id="Capa_1" data-name="Capa 1" xmlns="http://www.w3.org/2000/svg" viewBox="0 0 669.77 664.61"><defs><style>.cls-1{fill:#e26241;opacity:0.8;}.cls-2{fill:#fff;}</style></defs><title>camera</title><circle class="cls-1" cx="340.73" cy="329.13" r="322.34"/><path class="cls-2" d="M125.72,261.42V451.16a52.51,52.51,0,0,0,52.48,52.48H503.26a52.51,52.51,0,0,0,52.48-52.48V261.42a50,50,0,0,0-49.93-49.94H436l-1.67-7.28a63.78,63.78,0,0,0-62.48-49.58H309.58a63.94,63.94,0,0,0-62.49,49.58l-1.67,7.28H175.66A50,50,0,0,0,125.72,261.42ZM254,233a10.69,10.69,0,0,0,10.45-8.33l3.6-15.62a42.43,42.43,0,0,1,41.51-32.91H371.8A42.45,42.45,0,0,1,413.31,209l3.6,15.62A10.79,10.79,0,0,0,427.35,233h78.37a28.43,28.43,0,0,1,28.43,28.44V451.16a31,31,0,0,1-31,31h-325a31,31,0,0,1-31-31V261.42A28.44,28.44,0,0,1,175.66,233Z"/><circle class="cls-2" cx="198.47" cy="278.88" r="14.39"/><path class="cls-2" d="M340.73,448.43a90.3,90.3,0,1,0-90.3-90.3A90.45,90.45,0,0,0,340.73,448.43Zm0-159.1a68.8,68.8,0,1,1-68.8,68.8A68.91,68.91,0,0,1,340.73,289.33Z"/></svg>