<svg xmlns="http://www.w3.org/2000/svg" viewBox="0 0 490 397.7"><defs><style>.cls-1{fill:#484848;}</style></defs><title>camera</title><g id="Layer_2" data-name="Layer 2"><g id="Capa_1" data-name="Capa 1"><path class="cls-1" d="M0,121.7V337.9a59.83,59.83,0,0,0,59.8,59.8H430.2A59.83,59.83,0,0,0,490,337.9V121.7a56.93,56.93,0,0,0-56.9-56.9H353.5l-1.9-8.3A72.69,72.69,0,0,0,280.4,0H209.5a72.86,72.86,0,0,0-71.2,56.5l-1.9,8.3H56.9A57,57,0,0,0,0,121.7ZM146.2,89.3a12.19,12.19,0,0,0,11.9-9.5L162.2,62a48.37,48.37,0,0,1,47.3-37.5h70.9A48.37,48.37,0,0,1,327.7,62l4.1,17.8a12.29,12.29,0,0,0,11.9,9.5H433a32.39,32.39,0,0,1,32.4,32.4V337.9a35.29,35.29,0,0,1-35.3,35.3H59.8a35.29,35.29,0,0,1-35.3-35.3V121.7A32.39,32.39,0,0,1,56.9,89.3Z"/><circle class="cls-1" cx="82.9" cy="141.6" r="16.4"/><path class="cls-1" d="M245,334.8A102.9,102.9,0,1,0,142.1,231.9,103.07,103.07,0,0,0,245,334.8Zm0-181.3a78.4,78.4,0,1,1-78.4,78.4A78.53,78.53,0,0,1,245,153.5Z"/></g></g></svg>