<svg xmlns="http://www.w3.org/2000/svg" viewBox="0 0 725.49 729.58"><defs><style>.cls-1,.cls-3{fill:#e26241;}.cls-1,.cls-2{opacity:0.8;isolation:isolate;}</style></defs><title>Cantaloupe</title><g id="Layer_2" data-name="Layer 2"><g id="Capa_1" data-name="Capa 1"><circle class="cls-1" cx="501.62" cy="213.03" r="21.33"/><g class="cls-2"><path class="cls-3" d="M374.73,221.54V197h59.94V173H290.81v24h59.94v24.59A144,144,0,0,0,218.88,364.79v47.95a143.86,143.86,0,1,0,287.72,0V364.79A144,144,0,0,0,374.73,221.54ZM266.84,484.36a118.88,118.88,0,0,1-21.58-47.64h21.58Zm215.79-71.62a119.78,119.78,0,0,1-56.35,101.47L410.7,485.62v-.94h-.52l-10.79-19.74,43.72-43.72-16.95-17L387.42,443l-26.18-48-21.05,11.49,42.68,78.13H314.79v24H396l8.85,16.22a118.61,118.61,0,0,1-114-16.45v-71.7h36v-24h-36v-24h-24v24h-24V364.79A119.38,119.38,0,0,1,276,282.31l46.37,40.58-18.27,36.54,21.46,10.72L341,339.21l25.85,22.62,15.8-18.05-50-43.73,44.07-7.34-4-23.65-63.44,10.61-15-13.18A119.18,119.18,0,0,1,410.7,255V388.77h24v-31l15.5,15.5,17-16.95-32.46-32.46V269.11a119.69,119.69,0,0,1,48,95.68Z"/><rect class="cls-3" x="266.84" y="340.81" width="23.98" height="23.98"/></g><path class="cls-1" d="M362.74,0C162.44,0,0,163.36,0,364.79S162.44,729.58,362.74,729.58,725.49,566.22,725.49,364.79,563,0,362.74,0Zm0,683.6c-175,0-316.92-142.69-316.92-318.71S187.71,46.18,362.74,46.18,679.66,188.87,679.66,364.89,537.77,683.6,362.74,683.6Z"/></g></g></svg>