<svg xmlns="http://www.w3.org/2000/svg" viewBox="0 0 737.8 737.8"><defs><style>.cls-1,.cls-3{fill:#e26241;}.cls-1,.cls-2{opacity:0.8;isolation:isolate;}</style></defs><title>clover</title><g id="Layer_2" data-name="Layer 2"><g id="Capa_1" data-name="Capa 1"><path class="cls-1" d="M368.9,0C165.2,0,0,165.2,0,368.9S165.2,737.8,368.9,737.8,737.8,572.6,737.8,368.9,572.7,0,368.9,0Zm0,691.3C190.9,691.3,46.6,547,46.6,369S190.9,46.7,368.9,46.7,691.2,191,691.2,369,547,691.3,368.9,691.3Z"/><g class="cls-2"><path class="cls-3" d="M528,321.61c-15.47-12.39-39.68-18.88-69.71-19.38,24-12.81,41.09-28.12,49.16-44.84a43.22,43.22,0,0,0,.83-38.34,47.54,47.54,0,0,0-29.11-25.87,63.61,63.61,0,0,0-29.28-1.58,63.53,63.53,0,0,0-14.56-25.71,47.48,47.48,0,0,0-35.18-15,43.22,43.22,0,0,0-34.27,17.38c-11.57,14.39-18,36.44-19.22,63.64-13.64-27-29.95-46.09-47.83-54.4a43.24,43.24,0,0,0-38.18-1,47.57,47.57,0,0,0-25.87,29.11,63.55,63.55,0,0,0-1.58,29.2A64.31,64.31,0,0,0,207.44,249a47.51,47.51,0,0,0-15.05,35.85,43.27,43.27,0,0,0,17.22,34c15.47,12.39,39.67,18.88,69.7,19.29-24,12.81-41.09,28.12-49.08,44.84a43.28,43.28,0,0,0-.91,38.35,47.57,47.57,0,0,0,29,25.78,59.31,59.31,0,0,0,17.8,2.58,70,70,0,0,0,11.65-1,63.42,63.42,0,0,0,14.14,25.79,47.5,47.5,0,0,0,35.6,15.06,43.28,43.28,0,0,0,34.27-17.39,70.71,70.71,0,0,0,9.07-15.3,562.37,562.37,0,0,1-13,119.86,8.32,8.32,0,0,0,6.18,10,8.11,8.11,0,0,0,2.14.22h31.44a8.32,8.32,0,0,0,7.66-5.15c18.21-44.42,13.55-94.75,5.82-130.68a73.53,73.53,0,0,0,17.8,12.47,47.11,47.11,0,0,0,20.55,4.91A41.7,41.7,0,0,0,477,464.19a47.49,47.49,0,0,0,26-28.87A63.61,63.61,0,0,0,504.57,406a63.78,63.78,0,0,0,25.79-14.14,47.51,47.51,0,0,0,15-35.85A43.27,43.27,0,0,0,528,321.61ZM220,306.06l.25.08a26.78,26.78,0,0,1-11.14-21.3c0-28.86,30.86-34.6,34.1-35.1a7.74,7.74,0,0,0,4.58-.83,8.33,8.33,0,0,0,3.66-9.9v-1.16c0-.59-10.57-33.28,16.63-46.25a26.85,26.85,0,0,1,24,.83c24,11.56,45.92,48.91,59.56,100.9.92,5,1.83,10,3,15.05a8.27,8.27,0,0,0,2.91,4.75,8.29,8.29,0,0,0-5.49-.75C346.94,313.62,342,315,337,316.29,283.89,326.35,240.8,322.69,220,306.06Zm153.72,20a8.32,8.32,0,0,0-6.57,9.48l.59,2.83a8,8,0,0,0,0,3.16c.74,3.08,1.49,6,2.24,8.9a274.6,274.6,0,0,1,4.58,54c-.67,24.95-5.91,45-15.64,57.23a26.85,26.85,0,0,1-21.3,11.14c-28.61,0-34.35-30.61-34.93-34.1a7.67,7.67,0,0,0-.84-4.58,8.3,8.3,0,0,0-9.64-3.74h-1s-33.28,10.56-46.34-16.64a26.79,26.79,0,0,1,.84-24c11.23-23.29,46.75-44.58,96.41-58.22l8.31-1.58a8.39,8.39,0,0,0,2.91-1.34l2.83-.66A8.16,8.16,0,0,0,359,313.13a8.28,8.28,0,0,0,4,1.16h1.75a8.31,8.31,0,0,0,6.32-9.9l-1.16-2.16a8.4,8.4,0,0,0,0-3.16c-.67-3-1.42-5.91-2.16-8.74-8.91-50.32-5-91.5,11.06-111.46a26.87,26.87,0,0,1,21.13-11.4c28.61,0,34.35,30.61,34.93,34.11a7.71,7.71,0,0,0,.84,4.57,8.3,8.3,0,0,0,9.81,3.66h.92s33.27-10.56,46.25,16.64a26.79,26.79,0,0,1-.84,24c-11.14,23.12-46.41,44.42-95.74,58.23l-8.23,1.83a8.26,8.26,0,0,0-2.83,1.24l-2.83.75a8.33,8.33,0,0,0-6.24,9.57l.25.08a8.34,8.34,0,0,0,2.91,4.58A8.3,8.3,0,0,0,373.72,326Zm28.37,244.06h-15.8c5.4-26.71,18.13-99.82,7.48-154.56C401.42,437.4,423.47,510.19,402.09,570.08ZM494.59,391a7.85,7.85,0,0,0-4.49.84,8.3,8.3,0,0,0-3.66,10.23v1.16c0,.58,10.56,33.28-16.64,46.25a26.85,26.85,0,0,1-24-.83c-14.22-6.82-27.7-22.71-39.18-45.42a283.89,283.89,0,0,1-20.13-55.06c-.91-5-1.83-10.07-3-15.23a8.29,8.29,0,0,0-3.25-4.9,8.53,8.53,0,0,0,3.91,1.08H386c5.07-1.17,10.06-2.5,14.89-3.83,52.73-10.15,96-6.57,116.45,10.07a26.79,26.79,0,0,1,11.15,21.29C528.86,384.83,497.67,390.57,494.59,391Z"/></g><circle class="cls-1" cx="463.04" cy="362.02" r="13.17"/><circle class="cls-1" cx="289.07" cy="275.29" r="13.17"/></g></g></svg>