<svg xmlns="http://www.w3.org/2000/svg" viewBox="0 0 737.79 737.79"><defs><style>.cls-1,.cls-3{fill:#e26241;}.cls-1,.cls-2{opacity:0.8;}</style></defs><title>corn</title><g id="Layer_2" data-name="Layer 2"><g id="Capa_1" data-name="Capa 1"><path class="cls-1" d="M368.9,0C165.16,0,0,165.16,0,368.9S165.16,737.79,368.9,737.79,737.79,572.63,737.79,368.9,572.63,0,368.9,0Zm0,691.23c-178,0-322.34-144.31-322.34-322.33S190.87,46.56,368.9,46.56,691.23,190.87,691.23,368.9,546.92,691.23,368.9,691.23Z"/><g class="cls-2"><path class="cls-3" d="M368.9,124.05c-56.32,0-100.43,75.62-100.43,172.16V325.7a130.75,130.75,0,0,0-14.35-.8H225.43A14.35,14.35,0,0,0,219,352.08a89,89,0,0,1,49.45,80V454a103.36,103.36,0,0,0,57.39,92.35v53a14.35,14.35,0,0,0,14.34,14.35h57.39a14.36,14.36,0,0,0,14.35-14.35v-43h14.34c56.07,0,100.43-47.42,100.43-102.34V310.55a14.34,14.34,0,0,0-14.35-14.34,71.35,71.35,0,0,0-43,14.38V296.21C469.32,199.67,425.21,124.05,368.9,124.05ZM297.16,454V432.1a118.17,118.17,0,0,0-29-77.53A100.59,100.59,0,0,1,354.55,454v59.3a42.84,42.84,0,0,0,2.08,13.22C323.34,520.36,297.16,489.66,297.16,454Zm57.39,131V555.3a97.76,97.76,0,0,0,14.35,1.06h14.34v28.69Zm34.25-60.41a14.34,14.34,0,0,1-5.56-11.32V454a129.33,129.33,0,0,0-86.08-121.73V296.21c0-54.64,23.38-143.47,71.74-143.47S440.63,241,440.63,296.21V454C440.63,486.88,418.36,515.53,388.8,524.64ZM498,327.36V454c0,35.28-25.65,65.71-58.45,72.32A102.72,102.72,0,0,0,469.32,454V367.94A43.12,43.12,0,0,1,498,327.36Z"/><circle class="cls-3" cx="397.59" cy="367.94" r="14.35"/><circle class="cls-3" cx="368.9" cy="310.55" r="14.35"/><circle class="cls-3" cx="397.59" cy="253.17" r="14.35"/><circle class="cls-3" cx="340.2" cy="253.17" r="14.35"/><circle class="cls-3" cx="368.9" cy="195.78" r="14.35"/></g></g></g></svg>