<svg xmlns="http://www.w3.org/2000/svg" viewBox="0 0 725.49 729.58"><defs><style>.cls-1,.cls-2{fill:#e26241;}.cls-1{opacity:0.8;isolation:isolate;}</style></defs><title>cucumbers</title><g id="Layer_2" data-name="Layer 2"><g id="Capa_1" data-name="Capa 1"><path class="cls-1" d="M362.74,0C162.44,0,0,163.36,0,364.79S162.44,729.58,362.74,729.58,725.49,566.22,725.49,364.79,563,0,362.74,0Zm0,683.6c-175,0-316.92-142.69-316.92-318.71S187.71,46.18,362.74,46.18,679.66,188.87,679.66,364.89,537.77,683.6,362.74,683.6Z"/><path class="cls-1" d="M506.64,204.06a90.08,90.08,0,0,1,4.86-26.71,13,13,0,0,0-24.57-8.6,115,115,0,0,0-6.2,31.95,62.65,62.65,0,0,0-36.09,15.17,62.62,62.62,0,0,0-8.47-13.59,115.22,115.22,0,0,0,18.74-26.6,13,13,0,0,0-23.22-11.77,90.45,90.45,0,0,1-15.89,22,62.83,62.83,0,0,0-81.48,22.69A1733.3,1733.3,0,0,1,191.71,403.77,62.93,62.93,0,0,0,287,486,1404.18,1404.18,0,0,0,404.84,332a1393.3,1393.3,0,0,0-25.32,172.91,62.92,62.92,0,0,0,125.29,11.69,1732.44,1732.44,0,0,1,41.92-238.05,62.84,62.84,0,0,0-40.09-74.47ZM267.46,468.77a36.9,36.9,0,0,1-55.87-48.19,1759.15,1759.15,0,0,0,144.76-198.1,36.54,36.54,0,0,1,24.31-16.61c30.86-5.9,54.86,27.64,38.39,55C373.15,337,322.14,407,267.46,468.77Zm254-196.52a1759.49,1759.49,0,0,0-42.55,241.63,36.28,36.28,0,0,1-14.38,25.46c-24.75,18.68-61.7.07-59.08-32.35,6.66-82.24,21.77-167.49,44.9-253.38,8.34-31,49.15-36.69,66.24-10.4a36.55,36.55,0,0,1,4.87,29Z"/><circle class="cls-2" cx="361.45" cy="259.78" r="16.37"/><circle class="cls-2" cx="450.39" cy="379.49" r="16.37"/><circle class="cls-2" cx="498.2" cy="254.64" r="16.37"/><circle class="cls-2" cx="320.07" cy="361.76" r="16.37"/><circle class="cls-2" cx="236.93" cy="426.37" r="16.37"/><circle class="cls-2" cx="457.78" cy="483.57" r="16.37"/></g></g></svg>