<svg xmlns="http://www.w3.org/2000/svg" viewBox="0 0 644.68 644.68"><defs><style>.cls-1{fill:#e26241;opacity:0.8;}.cls-2{fill:#fff;}</style></defs><title>delete</title><g id="Layer_2" data-name="Layer 2"><g id="Capa_1" data-name="Capa 1"><circle class="cls-1" cx="322.34" cy="322.34" r="322.34"/><path class="cls-2" d="M472.71,213.51a6.74,6.74,0,0,0-5-1.95H400.88l-15.15-36.13q-3.24-8-11.68-13.63T357,156.17H287.72q-8.66,0-17.09,5.63t-11.69,13.63L243.8,211.56H176.94a6.67,6.67,0,0,0-6.92,6.92v13.85a6.66,6.66,0,0,0,6.92,6.92h20.77v206q0,18,10.17,30.61t24.45,12.66h180q14.3,0,24.46-13.09t10.16-31V239.25h20.77a6.66,6.66,0,0,0,6.93-6.92V218.48A6.74,6.74,0,0,0,472.71,213.51ZM284.47,186.24a6.16,6.16,0,0,1,3.68-2.38h68.59a6.16,6.16,0,0,1,3.68,2.38l10.39,25.32H273.87Zm134.8,258.13a24.57,24.57,0,0,1-1.51,8.76,19.83,19.83,0,0,1-3.14,5.84c-1.09,1.23-1.84,1.84-2.27,1.84h-180c-.43,0-1.19-.61-2.27-1.84a19.6,19.6,0,0,1-3.14-5.84,24.57,24.57,0,0,1-1.51-8.76V239.25H419.27V444.37Z"/><path class="cls-2" d="M260,419.27h13.84a6.68,6.68,0,0,0,6.93-6.93V287.72a6.66,6.66,0,0,0-6.93-6.92H260a6.66,6.66,0,0,0-6.93,6.92V412.34a6.68,6.68,0,0,0,6.93,6.93Z"/><path class="cls-2" d="M315.42,419.27h13.84a6.66,6.66,0,0,0,6.92-6.93V287.72a6.64,6.64,0,0,0-6.92-6.92H315.42a6.66,6.66,0,0,0-6.93,6.92V412.34a6.68,6.68,0,0,0,6.93,6.93Z"/><path class="cls-2" d="M370.81,419.27h13.84a6.66,6.66,0,0,0,6.92-6.93V287.72a6.64,6.64,0,0,0-6.92-6.92H370.81a6.66,6.66,0,0,0-6.93,6.92V412.34a6.68,6.68,0,0,0,6.93,6.93Z"/></g></g></svg>