<svg xmlns="http://www.w3.org/2000/svg" viewBox="0 0 304.64 332.33"><defs><style>.cls-1{fill:#484848;}</style></defs><title>delete1</title><g id="Layer_2" data-name="Layer 2"><g id="Capa_1" data-name="Capa 1"><path class="cls-1" d="M302.69,57.33a6.77,6.77,0,0,0-5-1.94H230.86L215.71,19.26q-3.24-8-11.68-13.64T186.94,0H117.7Q109,0,100.61,5.62T88.92,19.26L73.78,55.39H6.92A6.66,6.66,0,0,0,0,62.31V76.16a6.67,6.67,0,0,0,6.92,6.92H27.69v206q0,18,10.17,30.62t24.45,12.66h180q14.28,0,24.45-13.09t10.16-31.05V83.08h20.78a6.67,6.67,0,0,0,6.92-6.92V62.31A6.78,6.78,0,0,0,302.69,57.33ZM114.46,30.07a6.07,6.07,0,0,1,3.67-2.38h68.59a6.12,6.12,0,0,1,3.68,2.38l10.39,25.31H103.85ZM249.25,288.19a24.49,24.49,0,0,1-1.51,8.76,19.57,19.57,0,0,1-3.14,5.84c-1.09,1.23-1.84,1.84-2.27,1.84h-180c-.43,0-1.18-.61-2.27-1.84A19.34,19.34,0,0,1,56.9,297a24.53,24.53,0,0,1-1.51-8.76V83.08H249.25V288.19Z"/><path class="cls-1" d="M90,263.09h13.84a6.66,6.66,0,0,0,6.93-6.92V131.54a6.67,6.67,0,0,0-6.93-6.92H90a6.67,6.67,0,0,0-6.93,6.92V256.17A6.66,6.66,0,0,0,90,263.09Z"/><path class="cls-1" d="M145.4,263.09h13.84a6.64,6.64,0,0,0,6.92-6.92V131.54a6.66,6.66,0,0,0-6.92-6.92H145.4a6.67,6.67,0,0,0-6.93,6.92V256.17a6.66,6.66,0,0,0,6.93,6.92Z"/><path class="cls-1" d="M200.79,263.09h13.84a6.64,6.64,0,0,0,6.92-6.92V131.54a6.66,6.66,0,0,0-6.92-6.92H200.79a6.67,6.67,0,0,0-6.93,6.92V256.17a6.66,6.66,0,0,0,6.93,6.92Z"/></g></g></svg>