<svg xmlns="http://www.w3.org/2000/svg" viewBox="0 0 644.68 644.68"><defs><style>.cls-1{fill:#e26241;opacity:0.8;}.cls-2{fill:#fff;}</style></defs><title>edit2_2</title><g id="Layer_2" data-name="Layer 2"><g id="Capa_1" data-name="Capa 1"><circle class="cls-1" cx="322.34" cy="322.34" r="322.34"/><path class="cls-2" d="M493.8,150.88a86.89,86.89,0,0,0-123,0L145.37,376.26a11.19,11.19,0,0,0-3.19,6.46L125.47,506.45a11.26,11.26,0,0,0,3.19,9.48,11.47,11.47,0,0,0,8,3.36,9.62,9.62,0,0,0,1.51-.08l74.53-10.08a11.35,11.35,0,1,0-3-22.49L149.9,494.7l11.67-86.29,90.82,90.82a11.45,11.45,0,0,0,8,3.36,11.14,11.14,0,0,0,8-3.36L493.8,273.85a86.85,86.85,0,0,0,0-123Zm-118.61,27.7,37.86,37.86L207.31,422.17l-37.85-37.85ZM260.45,475.22l-37-37L429.16,232.47l37,37ZM482,253.29l-90.57-90.57A64.34,64.34,0,0,1,482,253.29Z"/></g></g></svg>