<svg xmlns="http://www.w3.org/2000/svg" viewBox="0 0 393.95 393.9"><defs><style>.cls-1{fill:#484848;}</style></defs><title>edit3_1</title><g id="Layer_2" data-name="Layer 2"><g id="Capa_1" data-name="Capa 1"><path class="cls-1" d="M368.43,25.5a86.88,86.88,0,0,0-123,0L20,250.87a11.34,11.34,0,0,0-3.19,6.47L.11,381.06a11.28,11.28,0,0,0,3.19,9.49,11.46,11.46,0,0,0,8,3.35,9.49,9.49,0,0,0,1.51-.08l74.54-10.07a11.35,11.35,0,0,0-3-22.5l-59.76,8.06L36.2,283,127,373.84a11.43,11.43,0,0,0,8,3.36,11.06,11.06,0,0,0,8-3.36L368.43,148.47a86.83,86.83,0,0,0,0-123ZM249.83,53.2l37.85,37.85L82,296.79,44.09,258.93ZM135.08,349.84l-37-37L303.8,107.09l37,37ZM356.6,127.9,266,37.33A64.34,64.34,0,0,1,356.6,127.9Z"/></g></g></svg>