<svg xmlns="http://www.w3.org/2000/svg" viewBox="0 0 725.49 729.58"><defs><style>.cls-1{fill:#e26241;opacity:0.8;isolation:isolate;}</style></defs><title>fish</title><g id="Layer_2" data-name="Layer 2"><g id="Capa_1" data-name="Capa 1"><path class="cls-1" d="M362.74,0C162.44,0,0,163.36,0,364.79S162.44,729.58,362.74,729.58,725.49,566.22,725.49,364.79,563,0,362.74,0Zm0,683.6c-175,0-316.92-142.69-316.92-318.71S187.71,46.18,362.74,46.18,679.66,188.87,679.66,364.89,537.77,683.6,362.74,683.6Z"/><path class="cls-1" d="M586.74,358.19c-.63-1.09-15.58-27.11-43.91-53.22-38-35-82.16-53.55-127.74-53.55-45.27,0-96.68,17.49-152.81,52A565.81,565.81,0,0,0,215,336v-4.51a66.76,66.76,0,0,0-66.69-66.69H135v40a66.64,66.64,0,0,0,26.72,53.35A66.65,66.65,0,0,0,135,411.48v40h13.34a66.77,66.77,0,0,0,66.14-58.29,562.33,562.33,0,0,0,47.81,33c56.13,34.5,107.54,52,152.81,52,45.58,0,89.75-18.52,127.74-53.54,28.33-26.12,43.28-52.14,43.91-53.23l3.75-6.6ZM161.67,293.72a40.07,40.07,0,0,1,26.67,37.73V342.5a40.08,40.08,0,0,1-26.67-37.73Zm26.67,91.08a40.08,40.08,0,0,1-26.67,37.73v-11a40.08,40.08,0,0,1,26.67-37.73Zm33.23-20c30.63-24.66,115.49-86.7,193.52-86.7A144,144,0,0,1,448.53,282a160.2,160.2,0,0,0,6.86,163.66,142.35,142.35,0,0,1-40.3,5.82C337.19,451.49,252.23,389.43,221.57,364.79Zm259.27,70.87a133.44,133.44,0,0,1-6.58-145c34.09,15.06,64.62,43.7,85.09,74.08C549.49,379.42,522.51,414.9,480.84,435.66Z"/><circle class="cls-1" cx="501.3" cy="357.35" r="18.98"/><circle class="cls-1" cx="401.13" cy="315.27" r="21.13"/><circle class="cls-1" cx="308.23" cy="388.27" r="21.13"/></g></g></svg>