<svg xmlns="http://www.w3.org/2000/svg" viewBox="0 0 737.8 737.8"><defs><style>.cls-1,.cls-3{fill:#e26241;}.cls-1,.cls-2{opacity:0.8;}.cls-1{isolation:isolate;}</style></defs><title>grass</title><g id="Layer_2" data-name="Layer 2"><g id="Capa_1" data-name="Capa 1"><path class="cls-1" d="M368.9,0C165.2,0,0,165.2,0,368.9S165.2,737.8,368.9,737.8,737.8,572.6,737.8,368.9,572.7,0,368.9,0Zm0,691.3C190.9,691.3,46.6,547,46.6,369S190.9,46.7,368.9,46.7,691.2,191,691.2,369,547,691.3,368.9,691.3Z"/><g class="cls-2"><path class="cls-3" d="M593.6,268.13a7.54,7.54,0,0,0-10.4-.8c-4,3.2-77.6,64.8-116.8,167.2-7.2-18.4-15.2-36.8-24-52.8,20.8-68,41.6-115.2,63.2-140a8.57,8.57,0,0,0-.8-11.2,7.73,7.73,0,0,0-11.2,0c-1.6,1.6-40.8,40.8-80,101.6-8.8-13.6-17.6-25.6-26.4-36.8,10.4-23.2,21.6-41.6,32-54.4a8.57,8.57,0,0,0-.8-11.2,7.73,7.73,0,0,0-11.2,0c-.8.8-16.8,16.8-38.4,42.4a486.93,486.93,0,0,0-38.4-42.4,7.73,7.73,0,0,0-11.2,0,8.57,8.57,0,0,0-.8,11.2c11.2,13.6,22.4,32,32,54.4-8.8,11.2-16.8,23.2-25.6,36.8-38.4-60.8-77.6-100-80-101.6a7.73,7.73,0,0,0-11.2,0,8.57,8.57,0,0,0-.8,11.2c24.8,28.8,46.4,84,63.2,140a394.08,394.08,0,0,0-24,53.6c-40-103.2-113.6-164.8-116.8-168-3.2-2.4-8-2.4-10.4.8a7.73,7.73,0,0,0,0,11.2c53.6,63.2,80,225.6,85.6,265.6H183.2a8,8,0,1,0,0,16H557.6a8,8,0,0,0,0-16H508c5.6-40,32-202.4,85.6-265.6A9.61,9.61,0,0,0,593.6,268.13ZM452,304.93c-7.2,16.8-13.6,36.8-20.8,58.4-3.2-4.8-5.6-9.6-8.8-14.4A524.4,524.4,0,0,1,452,304.93Zm-69.6,80c-4,10.4-8.8,20.8-13.6,31.2-4.8-11.2-9.6-21.6-15.2-32q7.2-24,14.4-43.2A404.09,404.09,0,0,1,382.4,384.93Zm-24-71.2a11.37,11.37,0,0,1,1.6,4.8c-5.6,14.4-11.2,29.6-16.8,46.4-3.2-5.6-6.4-11.2-9.6-16C342.4,336.13,350.4,324.13,358.4,313.73Zm-112,231.2h-.8c-4-28-20-136-54.4-215.2,24.8,31.2,53.6,75.2,72,130.4C253.6,488.93,248.8,517.73,246.4,544.93Zm49.6,0H261.6c3.2-44.8,16.8-92,40-140,5.6,19.2,10.4,37.6,14.4,54.4C305.6,499.33,299.2,532.13,296,544.93Zm16.8,0c2.4-10.4,5.6-28.8,11.2-51.2,5.6,23.2,8.8,41.6,11.2,51.2Zm28.8-44c-11.2-51.2-30.4-132-56.8-195.2,26.4,33.6,55.2,79.2,75.2,132C352,459.33,346.4,480.13,341.6,500.93Zm44.8,43.2H352.1c3.3-43.8,16.1-89.9,38.3-137.6,5.6,18.4,10.4,36,14.4,52C395.2,497.73,388.8,530.53,386.4,544.13Zm16.8.8c1.6-10.4,5.6-28.8,10.4-51.2,4.8,23.2,8.8,41.6,11.2,51.2Zm38.4.8h-.8c-5.6-28.8-28.8-140-63.2-227.2a11.37,11.37,0,0,0,1.6-4.8c28,38.4,59.2,88.8,78.4,146.4A396.6,396.6,0,0,0,441.6,545.73Zm50.4-.8H458.4c6.4-94.4,52-169.6,88-215.2C512,409.73,496,516.93,492,544.93Z"/></g><circle class="cls-1" cx="498.9" cy="312.06" r="21.33"/><circle class="cls-1" cx="216.36" cy="288.62" r="21.33"/><circle class="cls-1" cx="423.99" cy="198.2" r="21.33"/></g></g></svg>