<svg xmlns="http://www.w3.org/2000/svg" viewBox="0 0 904.06 903.16"><defs><style>.cls-1{fill:#484848;}</style></defs><title>homepage_1</title><g id="Layer_2" data-name="Layer 2"><g id="Capa_1" data-name="Capa 1"><path class="cls-1" d="M897.64,312a42,42,0,0,0-9.77-9.77L462.57.56,442.2,0,8.25,312.28a27.66,27.66,0,0,0-5.59,7.81A28.88,28.88,0,0,0,.43,337.21V876a30.66,30.66,0,0,0,6.7,16.37,31.11,31.11,0,0,0,19.35,10.79l855.81-.09a35.65,35.65,0,0,0,21.21-20.93l.56-556.47A42.14,42.14,0,0,0,897.64,312Zm-61,511.38A29.82,29.82,0,0,1,830,833.67a30.51,30.51,0,0,1-11.41,7.25L89.47,841A26.77,26.77,0,0,1,73,832a25.36,25.36,0,0,1-5.71-13.72V366.74a23.75,23.75,0,0,1,1.9-14.34,23.18,23.18,0,0,1,4.76-6.55L443.65,84.16l17.36.47,362.34,252.8a35.54,35.54,0,0,1,8.33,8.18,34.83,34.83,0,0,1,5.46,11.46Q836.92,590.23,836.67,823.38Z"/><path class="cls-1" d="M371.94,606.56a23.77,23.77,0,0,1,7.15-5.4L528,600.25a26.26,26.26,0,0,1,8.46,10.82,39.32,39.32,0,0,1,3.25,14.41l.18,277.68h63q-.17-172.47-.32-344.93A37.19,37.19,0,0,0,582.47,527l-255.62,1.11a42.89,42.89,0,0,0-12.28,6.7,43.67,43.67,0,0,0-13.4,17.86q1,175.26,2,350.51h62.12q-.6-141.09-1.18-282.18A37.21,37.21,0,0,1,371.94,606.56Z"/></g></g></svg>