<svg xmlns="http://www.w3.org/2000/svg" viewBox="0 0 737.79 737.79"><defs><style>.cls-1,.cls-3{fill:#e26241;}.cls-1,.cls-2{opacity:0.8;}</style></defs><title>i-chicken</title><g id="Layer_2" data-name="Layer 2"><g id="Capa_1" data-name="Capa 1"><path class="cls-1" d="M368.9,0C165.16,0,0,165.16,0,368.9S165.16,737.79,368.9,737.79,737.79,572.63,737.79,368.9,572.63,0,368.9,0Zm0,691.23c-178,0-322.34-144.31-322.34-322.33S190.87,46.56,368.9,46.56,691.23,190.87,691.23,368.9,546.92,691.23,368.9,691.23Z"/><g class="cls-2"><path class="cls-3" d="M477.18,269.9a145.68,145.68,0,0,0-37.32-22.1c.83-2,1.65-4.17,2.4-6.42,7.46-22.43,2-36.27-3.82-43.93-7.52-9.83-16.82-13.45-24.87-14.11a70.86,70.86,0,0,0-5.45-9.4c-9.88-14.29-23.44-21.84-39.22-21.84s-29.35,7.55-39.23,21.84a70.72,70.72,0,0,0-5.44,9.4c-8.05.66-17.36,4.28-24.88,14.1-5.86,7.67-11.28,21.51-3.82,43.94.75,2.25,1.57,4.4,2.41,6.42a145.51,145.51,0,0,0-37.32,22.1c-30.23,24.92-46.2,59.74-46.2,100.71s16.29,82.67,44.7,114.68c20,22.57,44.08,38.35,70,46.35-.37,2.15-.82,4.4-1.28,6.7-2.49,12.5-5.6,28,4.15,39.94,7.1,8.67,19.17,12.88,36.9,12.88s29.79-4.21,36.9-12.88c9.75-11.89,6.64-27.44,4.14-39.94-.46-2.3-.9-4.54-1.27-6.7,25.92-8,50-23.78,70-46.35,28.4-32,44.7-73.8,44.7-114.68S507.4,294.82,477.18,269.9ZM320.7,213.77c3-3.91,6.13-3.9,7.86-3.46l13.43,6,4.06-15.28a44.27,44.27,0,0,1,5.73-11.85C358.87,179,366.42,179,368.9,179c16.51,0,22.61,21.26,22.85,22.09L395,216.69l14.26-6.38c1.74-.44,4.87-.45,7.87,3.46,3.58,4.69,1.42,13.72-.19,18.69a70.52,70.52,0,0,1-2.76,7.09,200.93,200.93,0,0,0-90.53,0C319.61,230.55,316.61,219.13,320.7,213.77ZM385,561.24s-2.65,3-16.11,3-16.09-3-16.12-3c-1.68-2,.35-12.19,1.43-17.63.44-2.18.88-4.39,1.27-6.62a132.67,132.67,0,0,0,26.83,0c.4,2.23.84,4.44,1.27,6.62C384.67,549.05,386.69,559.19,385,561.24Zm73.56-93.79c-24.81,27.95-56.65,43.34-89.67,43.34S304,495.4,279.22,467.45c-24.1-27.16-37.92-62.45-37.92-96.84,0-32.67,12.59-60.32,36.42-80,23-18.94,55.35-29.37,91.18-29.37s68.21,10.44,91.18,29.37c23.82,19.65,36.42,47.3,36.42,80C496.49,405,482.67,440.29,458.57,467.45Z"/><path class="cls-3" d="M368.9,340.32l-64.07,57.62L368.9,499.68,433,397.94Zm-29.26,62.46,29.26-26.3,29.25,26.3L368.9,449.24Z"/><path class="cls-3" d="M300.69,329.13A17.87,17.87,0,1,0,318.34,347,17.77,17.77,0,0,0,300.69,329.13Z"/><path class="cls-3" d="M437,329a18,18,0,1,0,17.77,18A17.9,17.9,0,0,0,437,329Z"/></g></g></g></svg>