<svg xmlns="http://www.w3.org/2000/svg" viewBox="0 0 737.79 737.79"><defs><style>.cls-1,.cls-3{opacity:0.8;}.cls-2,.cls-3{fill:#e26241;}</style></defs><title>i-dog</title><g id="Layer_2" data-name="Layer 2"><g id="Capa_1" data-name="Capa 1"><g class="cls-1"><path class="cls-2" d="M542.34,287.81c-12-20.27-29-39.55-40.37-49.66-24.93-22.09-45.73-21.55-55.91-19.26a38.39,38.39,0,0,0-11.66,4.66c-17.76-13.18-39.36-19.64-65.5-19.64s-47.75,6.46-65.51,19.64a38.39,38.39,0,0,0-11.66-4.66c-10.18-2.29-31-2.83-55.9,19.26-11.42,10.11-28.33,29.39-40.37,49.66-16.3,27.44-19.94,49.64-10.8,66,11.16,19.95,28.09,25.06,41.75,26.32A173,173,0,0,0,221,424.49c0,23.05,5.25,42.88,15.6,58.94,9.09,14.11,22.19,25.42,38.92,33.6,30.91,15.11,68.11,16.85,93.4,16.85s62.49-1.74,93.4-16.85c16.73-8.18,29.82-19.49,38.92-33.6,10.35-16.06,15.59-35.89,15.59-58.94a172.52,172.52,0,0,0-5.43-44.38c13.66-1.26,30.59-6.37,41.75-26.32C562.27,337.45,558.64,315.25,542.34,287.81ZM233.6,357.3c-12.09-.32-21.93-2.66-28.73-14.81-4.61-8.25-.79-23.87,10.49-42.85,10.71-18,26.08-35.53,35.82-44.16,16.1-14.26,28.17-15,33.84-14.29-16.89,20.6-27.25,47.36-35.91,73.39-3.58,10.77-7,20-10.38,28.87C236.94,348.21,235.22,352.79,233.6,357.3Zm120.19,75.92c-6-6-9.12-12.27-9.12-15.39,0-2.78.47-3,2.24-3.72,5-2.13,15-2.37,22-2.37s16.93.24,22,2.37c1.77.74,2.25.94,2.25,3.72,0,3.12-3.14,9.4-9.13,15.39s-12.18,9.06-15.1,9.06S359.68,439.1,353.79,433.22Zm98.34,63c-17.77,8.69-41.29,13.4-71.66,14.33V463.12c9.09-3.5,16.5-10.12,19.9-13.52,4.79-4.79,15.91-17.45,15.91-31.77,0-11.71-5.83-20.61-16.42-25.06-7.06-3-16-4.19-31-4.19s-23.91,1.22-31,4.19c-10.59,4.45-16.42,13.35-16.42,25.06,0,14.32,11.13,27,15.91,31.77,3.41,3.4,10.81,10,19.9,13.52v47.43c-30.36-.93-53.89-5.64-71.66-14.33-27.94-13.66-41.52-37.12-41.52-71.73,0-29.6,6.82-47.76,16.26-72.89,3.26-8.68,7-18.52,10.68-29.71,20.47-61.5,42.12-94.83,97.82-94.83s77.35,33.33,97.81,94.83c3.73,11.19,7.42,21,10.68,29.71,9.44,25.13,16.27,43.29,16.27,72.89C493.66,459.1,480.07,482.56,452.13,496.22Zm80.79-153.73c-6.8,12.15-16.63,14.49-28.72,14.81-1.62-4.51-3.34-9.09-5.13-13.85-3.34-8.89-6.8-18.1-10.39-28.87-8.66-26-19-52.79-35.91-73.39,5.68-.76,17.75,0,33.84,14.29,9.75,8.63,25.12,26.13,35.82,44.15C533.71,318.62,537.53,334.24,532.92,342.49Z"/><path class="cls-2" d="M330.37,327a15.4,15.4,0,1,0,15.2,15.39A15.31,15.31,0,0,0,330.37,327Z"/><path class="cls-2" d="M407.31,326.85a15.51,15.51,0,1,0,15.31,15.51A15.42,15.42,0,0,0,407.31,326.85Z"/></g><path class="cls-3" d="M368.9,0C165.16,0,0,165.16,0,368.9S165.16,737.79,368.9,737.79,737.79,572.63,737.79,368.9,572.63,0,368.9,0Zm0,691.23c-178,0-322.34-144.31-322.34-322.33S190.87,46.56,368.9,46.56,691.23,190.87,691.23,368.9,546.92,691.23,368.9,691.23Z"/></g></g></svg>