<svg xmlns="http://www.w3.org/2000/svg" viewBox="0 0 737.79 737.79"><defs><style>.cls-1,.cls-3{fill:#e26241;}.cls-1,.cls-2{opacity:0.8;}</style></defs><title>i-horse.svg</title><g id="Layer_2" data-name="Layer 2"><g id="Capa_1" data-name="Capa 1"><path class="cls-1" d="M368.9,0C165.16,0,0,165.16,0,368.9S165.16,737.79,368.9,737.79,737.79,572.63,737.79,368.9,572.63,0,368.9,0Zm0,691.23c-178,0-322.34-144.31-322.34-322.33S190.87,46.56,368.9,46.56,691.23,190.87,691.23,368.9,546.92,691.23,368.9,691.23Z"/><g class="cls-2"><path class="cls-3" d="M327.59,360.67a16.5,16.5,0,1,0,16.3,16.5A16.4,16.4,0,0,0,327.59,360.67Z"/><path class="cls-3" d="M410.08,360.54a16.63,16.63,0,1,0,16.42,16.63A16.53,16.53,0,0,0,410.08,360.54Z"/><path class="cls-3" d="M340.27,495.32a14.25,14.25,0,1,0,14.07,14.24A14.16,14.16,0,0,0,340.27,495.32Z"/><path class="cls-3" d="M397.42,495.21a14.36,14.36,0,1,0,14.17,14.35A14.27,14.27,0,0,0,397.42,495.21Z"/><path class="cls-3" d="M535,176l-2-8-8.2-1.21c-1.43-.22-35.4-5-64,17.22-15.47,12-26.18,29.27-32,51.47A32.61,32.61,0,0,0,421.3,219C409,204.69,386,201.68,368.9,201.68s-40.12,3-52.41,17.34A32.61,32.61,0,0,0,309,235.43c-5.81-22.2-16.52-39.46-32-51.47-28.56-22.17-62.53-17.44-64-17.22L204.81,168l-2,8a134.88,134.88,0,0,0-1.11,50.86c4.09,23.84,16.82,55.53,53.54,76.23-4.54,16.36-6.18,36.44-3.51,61.09,3.32,30.64,10.56,48.88,18.94,70,3.26,8.21,6.63,16.7,10.05,26.64,2,5.75,2.27,22.19,1.85,32v.53c0,37.25,18.39,56.07,33.82,65.29,17.91,10.71,38.46,13,52.54,13s34.62-2.24,52.53-13c15.43-9.22,33.82-28,33.82-65.29v-.53c-.41-9.55-.11-26.33,1.86-32,3.42-9.94,6.78-18.43,10-26.64,8.38-21.12,15.62-39.36,18.94-70,2.67-24.65,1-44.73-3.51-61.09,36.72-20.7,49.46-52.39,53.54-76.23A135.24,135.24,0,0,0,535,176ZM335.33,235.18c4.59-5.35,17.45-8.68,33.57-8.68s29,3.33,33.56,8.68c1.23,1.43,2.54,3.7,1.78,8.64-1.85,12-4.26,25.72-6.11,36L368.9,266.5l-29.23,13.28c-1.86-10.24-4.26-23.92-6.11-36C332.79,238.88,334.11,236.61,335.33,235.18Zm-70.56,44.75c-21.1-12.79-34-31.73-38.48-56.46a113.56,113.56,0,0,1-.89-32.41c9.15.38,23.87,2.73,36.56,12.69,13.43,10.53,22,27.44,25.48,50.26A86.77,86.77,0,0,0,264.77,279.93ZM408.7,537.36c-13.74,8.21-30.84,9.44-39.8,9.44s-26.06-1.23-39.8-9.44c-14.57-8.71-21.68-23-21.73-43.73,0-1,.1-2.76.14-4.94,13.95-12.92,37-20.8,61.39-20.8s47.43,7.88,61.39,20.8c0,2.18.1,3.91.14,4.94C430.37,514.35,423.26,528.65,408.7,537.36Zm52.7-175.87c-3,27.29-9.3,43.28-17.33,63.52-3.36,8.48-6.84,17.24-10.45,27.73a45.51,45.51,0,0,0-1.62,6.51c-17.47-10.35-39.64-16.19-63.1-16.19s-45.63,5.84-63.11,16.19a44.21,44.21,0,0,0-1.62-6.51c-3.61-10.49-7.08-19.25-10.45-27.72-8-20.25-14.37-36.24-17.33-63.53-3.26-30.08.45-54,11.05-71.1a64,64,0,0,1,24.85-22.89c2.94,17.11,5.84,32.27,5.88,32.48l3,15.49,47.77-21.71,47.76,21.71,3-15.49c0-.21,2.93-15.37,5.88-32.48a64.05,64.05,0,0,1,24.84,22.89C461,307.48,464.67,331.41,461.4,361.49Zm50.24-138.83c-4.3,25.13-17.28,44.34-38.62,57.27A86.63,86.63,0,0,0,450.35,254c3.51-22.82,12.06-39.73,25.48-50.26,12.7-10,27.43-12.32,36.56-12.69A113.74,113.74,0,0,1,511.64,222.66Z"/></g></g></g></svg>