<svg xmlns="http://www.w3.org/2000/svg" viewBox="0 0 737.79 737.79"><defs><style>.cls-1{fill:#e26241;opacity:0.8;}</style></defs><title>location1</title><g id="Layer_2" data-name="Layer 2"><g id="Capa_1" data-name="Capa 1"><path class="cls-1" d="M368.9,0C165.16,0,0,165.16,0,368.9S165.16,737.79,368.9,737.79,737.79,572.63,737.79,368.9,572.63,0,368.9,0Zm0,691.23c-178,0-322.34-144.31-322.34-322.33S190.87,46.56,368.9,46.56,691.23,190.87,691.23,368.9,546.92,691.23,368.9,691.23Z"/><path class="cls-1" d="M550.73,494.14h-34V364.37l.16.12a11.32,11.32,0,0,0,15.68-2.39l27.16-36.21a11.31,11.31,0,0,0-2.4-15.94l-181.8-132a11.31,11.31,0,0,0-13.35,0l-73.31,53.24V210.45a11.31,11.31,0,0,0-11.32-11.31H232.33A11.31,11.31,0,0,0,221,210.45v70L180.41,310A11.32,11.32,0,0,0,178,325.9l27.17,36.2a11.31,11.31,0,0,0,15.67,2.39l.17-.12V494.14h-34a11.32,11.32,0,0,0,0,22.64h94.86l-14.44,28.89a11.31,11.31,0,0,0,10.12,16.38H459.43a11.32,11.32,0,0,0,10.13-16.38l-14.45-28.89h95.62a11.32,11.32,0,0,0,0-22.64ZM243.65,221.77h22.64v25.82L243.65,264Zm-27,117.86L203,321.51,368.9,201.05,534.78,321.51l-13.6,18.12L375.55,234.5a11.33,11.33,0,0,0-13.3,0Zm27,8.4L368.9,257.61,494.14,348V494.14h-46V391.53a11.31,11.31,0,0,0-11.32-11.31H300.24a11.31,11.31,0,0,0-11.32,11.31V494.14H243.65ZM380.21,494.14V402.85h45.27v91.29Zm-68.65,0V402.85h46v91.29Zm-15.65,45.27,11.32-22.63H429.8l11.32,22.63Z"/></g></g></svg>