<svg xmlns="http://www.w3.org/2000/svg" viewBox="0 0 725.49 729.58"><defs><style>.cls-1{fill:#e26241;opacity:0.8;isolation:isolate;}</style></defs><title>meat</title><g id="Layer_2" data-name="Layer 2"><g id="Capa_1" data-name="Capa 1"><path class="cls-1" d="M362.74,0C162.44,0,0,163.36,0,364.79S162.44,729.58,362.74,729.58,725.49,566.22,725.49,364.79,563,0,362.74,0Zm0,683.6c-175,0-316.92-142.69-316.92-318.71S187.71,46.18,362.74,46.18,679.66,188.87,679.66,364.89,537.77,683.6,362.74,683.6Z"/><path class="cls-1" d="M526.74,264.21c-18-14.36-43.46-26.12-75.6-34.95-61.82-17-131.53-18.81-158.64-18.81-70.22,0-127.35,57.14-127.35,127.36v54A127.5,127.5,0,0,0,292.5,519.13c32.39,0,56.71-10.14,82.45-20.88,26.63-11.11,54.16-22.6,92.88-22.6a92.61,92.61,0,0,0,92.51-92.5v-54C560.34,303.84,549,282,526.74,264.21ZM544.9,383.15a77.15,77.15,0,0,1-77.07,77.07C426,460.22,397,472.31,369,484c-24.28,10.12-47.21,19.69-76.51,19.69A112.06,112.06,0,0,1,180.82,399a127.47,127.47,0,0,0,111.68,66.2c32.39,0,56.71-10.15,82.45-20.89,26.63-11.1,54.16-22.59,92.88-22.59,2.88,0,5.78-.13,8.64-.4A7.72,7.72,0,0,0,475,405.92c-2.38.22-4.8.34-7.2.34C426,406.26,397,418.35,369,430c-24.28,10.12-47.21,19.69-76.51,19.69a111.92,111.92,0,0,1,0-223.84c26.48,0,94.54,1.78,154.55,18.26,64.93,17.83,97.85,46.44,97.85,85a77.36,77.36,0,0,1-24.33,56.06,7.72,7.72,0,1,0,10.58,11.24,92.88,92.88,0,0,0,13.75-16.33Z"/><path class="cls-1" d="M346.6,258.86l.39,0q.31,0,.63,0a7.72,7.72,0,0,0,.6-15.41l-.4,0a7.72,7.72,0,0,0-1.22,15.39Z"/><path class="cls-1" d="M529.46,329.19a44.89,44.89,0,0,0-4.82-20.79C517,293.26,500,280.19,474,269.53c-21-8.62-43.94-14.07-59.51-17.12-9.32-1.83-19.09-3.47-29-4.86a7.72,7.72,0,1,0-2.14,15.29c9.67,1.35,19.16,2.94,28.21,4.71,53,10.4,89.23,27.83,99.34,47.81A30,30,0,0,1,514,329.19a46.25,46.25,0,0,1-46.2,46.19,235.94,235.94,0,0,0-76.46,12.87c-11.07,3.73-21.81,8.19-32.21,12.5-6.87,2.85-14,5.81-21,8.48-17.8,6.74-31.45,9.62-45.63,9.62a81,81,0,1,1,0-162.08c8.72,0,17.57.16,26.31.49l4.45.17a7.72,7.72,0,1,0,.68-15.42l-4.56-.18c-8.92-.33-18-.5-26.88-.5a96.48,96.48,0,0,0,0,193c16.16,0,31.45-3.18,51.1-10.63,7.28-2.76,14.5-5.75,21.48-8.65,10.15-4.21,20.65-8.57,31.22-12.13a220.65,220.65,0,0,1,71.53-12.06A61.7,61.7,0,0,0,529.46,329.19Z"/><path class="cls-1" d="M299.9,272c-21.58,0-39.13,15.92-39.13,35.49S278.32,343,299.9,343,339,327.09,339,307.52,321.48,272,299.9,272Zm0,55.54c-13.07,0-23.7-9-23.7-20.05s10.63-20,23.7-20,23.69,9,23.69,20S313,327.57,299.9,327.57Z"/><circle class="cls-1" cx="546.79" cy="491.51" r="14.36"/></g></g></svg>