<svg xmlns="http://www.w3.org/2000/svg" viewBox="0 0 737.8 737.8"><defs><style>.cls-1{fill:none;stroke:#e26241;stroke-miterlimit:10;stroke-width:0.71px;}.cls-1,.cls-2{opacity:0.8;isolation:isolate;}.cls-2{fill:#e26241;}</style></defs><title>peanut-butter</title><g id="Layer_2" data-name="Layer 2"><g id="Capa_1" data-name="Capa 1"><path class="cls-1" d="M486.44,256.29H251.36a10.65,10.65,0,0,1-10.65-10.65v-43A10.65,10.65,0,0,1,251.36,192H486.44a10.65,10.65,0,0,1,10.65,10.65v43A10.65,10.65,0,0,1,486.44,256.29Z"/><path class="cls-1" d="M489.08,545.77H248.72a21.45,21.45,0,0,1-21.45-21.46V306.16a21.45,21.45,0,0,1,21.45-21.45H489.08a21.45,21.45,0,0,1,21.45,21.45V524.31A21.45,21.45,0,0,1,489.08,545.77Z"/><path class="cls-1" d="M227.27,308.76V524.31a21.45,21.45,0,0,0,21.45,21.46H489.08a21.45,21.45,0,0,0,21.45-21.46V308.76Z"/><path class="cls-1" d="M452.27,456.92H285.53a15,15,0,0,1-15-15V345.83a15,15,0,0,1,15-15H452.27a15,15,0,0,1,15,15v96.11A15,15,0,0,1,452.27,456.92Z"/><path class="cls-1" d="M408.74,364.23A107.24,107.24,0,0,0,378,369.76a26.73,26.73,0,0,1-18.12,0,107.18,107.18,0,0,0-30.78-5.53c-19,0-34.41,13.28-34.41,29.66s15.4,29.64,34.41,29.64A107.14,107.14,0,0,0,359.84,418,26.73,26.73,0,0,1,378,418a107.19,107.19,0,0,0,30.78,5.52c19,0,34.41-13.27,34.41-29.64S427.75,364.23,408.74,364.23Z"/><path class="cls-2" d="M285.53,462.26H452.27a20.35,20.35,0,0,0,20.32-20.32V345.83a20.35,20.35,0,0,0-20.32-20.32H428.76a5.34,5.34,0,0,0,0,10.68h23.51a9.65,9.65,0,0,1,9.64,9.64v96.11a9.65,9.65,0,0,1-9.64,9.64H285.53a9.65,9.65,0,0,1-9.64-9.64V345.83a9.66,9.66,0,0,1,9.64-9.64h123.3a5.34,5.34,0,0,0,0-10.68H285.53a20.35,20.35,0,0,0-20.32,20.32v96.11A20.35,20.35,0,0,0,285.53,462.26Z"/><path class="cls-2" d="M489.08,279.37H483V261.62h3.49a16,16,0,0,0,16-16v-43a16,16,0,0,0-16-16H251.36a16,16,0,0,0-16,16v43a16,16,0,0,0,16,16h3.49v17.75h-6.13a26.82,26.82,0,0,0-26.79,26.79V524.31a26.83,26.83,0,0,0,26.79,26.8H489.08a26.83,26.83,0,0,0,26.79-26.8V306.16A26.82,26.82,0,0,0,489.08,279.37Zm-37.93-82h35.29a5.32,5.32,0,0,1,5.31,5.31v43a5.33,5.33,0,0,1-5.31,5.31H451.15Zm-51.27,0h40.59V251H399.88Zm-51.28,0h40.6V251H348.6Zm-51.27,0h40.59V251H330.4a5.34,5.34,0,1,0,0,10.67H472.27v17.75H265.53V261.62h44.94a5.34,5.34,0,1,0,0-10.67H297.33Zm-46,53.58a5.32,5.32,0,0,1-5.31-5.31v-43a5.31,5.31,0,0,1,5.31-5.31h35.29V251ZM248.72,290H489.08A16.15,16.15,0,0,1,505,303.42H232.84A16.15,16.15,0,0,1,248.72,290ZM505.2,524.31a16.14,16.14,0,0,1-16.12,16.12H248.72a16.14,16.14,0,0,1-16.12-16.12V314.1H505.2Z"/><path class="cls-2" d="M376.14,364.74a21.43,21.43,0,0,1-14.48,0,112.83,112.83,0,0,0-32.6-5.84c-21.92,0-39.75,15.69-39.75,35s17.83,35,39.75,35a112.83,112.83,0,0,0,32.6-5.84,21.43,21.43,0,0,1,14.48,0,112.89,112.89,0,0,0,32.6,5.84c21.92,0,39.75-15.69,39.75-35s-17.83-35-39.75-35A112.89,112.89,0,0,0,376.14,364.74Zm61.67,29.15c0,13.4-13,24.31-29.07,24.31a102,102,0,0,1-29-5.21A32,32,0,0,0,358,413a102,102,0,0,1-29,5.21c-16,0-29.07-10.91-29.07-24.31s13-24.32,29.07-24.32a102,102,0,0,1,29,5.21,32.2,32.2,0,0,0,21.74,0,102,102,0,0,1,29-5.21C424.77,369.57,437.81,380.48,437.81,393.89Z"/><circle class="cls-2" cx="477.17" cy="501.94" r="15.18"/><path class="cls-2" d="M368.9,0C165.2,0,0,165.2,0,368.9S165.2,737.8,368.9,737.8,737.8,572.6,737.8,368.9,572.6,0,368.9,0Zm0,691.3C190.9,691.3,46.6,547,46.6,369S190.9,46.7,368.9,46.7,691.2,191,691.2,369,546.9,691.3,368.9,691.3Z"/></g></g></svg>