<svg xmlns="http://www.w3.org/2000/svg" viewBox="0 0 737.8 737.8"><defs><style>.cls-1{fill:#e26241;opacity:0.8;isolation:isolate;}</style></defs><title>pears</title><g id="Layer_2" data-name="Layer 2"><g id="Capa_1" data-name="Capa 1"><path class="cls-1" d="M368.9,0C165.2,0,0,165.2,0,368.9S165.2,737.8,368.9,737.8,737.8,572.6,737.8,368.9,572.6,0,368.9,0Zm0,691.3C190.9,691.3,46.6,547,46.6,369S190.9,46.7,368.9,46.7,691.2,191,691.2,369,546.9,691.3,368.9,691.3Z"/><path class="cls-1" d="M475.49,350.63c-8.76-12.11-17-23.54-21.51-35.2-2.7-7-4.89-14.39-7.08-21.67-8.87-29.55-20.17-65.35-65.73-71V172.58H356.63v11.81A58.62,58.62,0,0,0,346.17,178c-20.7-9.48-45.4-6.38-69.64,8.71A12.29,12.29,0,0,0,271,199.82c3.53,15.58,12.66,27.71,26.43,35.05C303.34,238,310,239.82,317,241c-14.27,14.52-20.71,34.76-26.11,52.76-2.19,7.28-4.38,14.64-7.08,21.67-4.48,11.66-12.75,23.09-21.51,35.2-17.89,24.72-40.15,55.49-40.65,104v.13c0,61.93,46.88,110.43,106.75,110.43a74,74,0,0,0,21.1-3.22,67.19,67.19,0,0,1,38.79,0,73.89,73.89,0,0,0,21.09,3.22c59.87,0,106.75-48.5,106.75-110.56-.5-48.54-22.76-79.31-40.65-104ZM298.15,202.78c14-6.59,26.88-7.5,37.82-2.49a34.14,34.14,0,0,1,15.72,14.49c-16.91,4.58-32.09,4.1-42.67-1.56a26.64,26.64,0,0,1-10.87-10.44Zm111.24,337.9c-5.91,0-9.78-1-14.68-2.37a91.6,91.6,0,0,0-51.61,0c-4.9,1.33-8.77,2.37-14.69,2.37-46.09,0-82.19-37.69-82.21-85.83.44-40.7,18.52-65.68,36-89.83,9.71-13.45,18.9-26.14,24.52-40.79,2.93-7.61,5.31-15.54,7.67-23.42,10.46-34.88,18.16-54.61,54.5-54.61s44,19.73,54.5,54.61c2.36,7.88,4.74,15.81,7.67,23.42,5.61,14.65,14.81,27.34,24.52,40.79,17.5,24.17,35.59,49.16,36,89.77,0,48.16-36.11,85.89-82.21,85.89Z"/><circle class="cls-1" cx="422.2" cy="365.44" r="21.33"/><circle class="cls-1" cx="316.93" cy="490.02" r="21.33"/><circle class="cls-1" cx="364.93" cy="276.93" r="21.33"/></g></g></svg>