<svg xmlns="http://www.w3.org/2000/svg" viewBox="0 0 725.49 729.58"><defs><style>.cls-1,.cls-3{fill:#e26241;}.cls-1,.cls-2{opacity:0.8;isolation:isolate;}</style></defs><title>plum</title><g id="Layer_2" data-name="Layer 2"><g id="Capa_1" data-name="Capa 1"><path class="cls-1" d="M362.74,0C162.44,0,0,163.36,0,364.79S162.44,729.58,362.74,729.58,725.49,566.22,725.49,364.79,563,0,362.74,0Zm0,683.6c-175,0-316.92-142.69-316.92-318.71S187.71,46.18,362.74,46.18,679.66,188.87,679.66,364.89,537.77,683.6,362.74,683.6Z"/><g class="cls-2"><path class="cls-3" d="M457.26,302.75c-13.1-16-28.51-28.19-45.36-36.22a82.49,82.49,0,0,0,25.19-27.15c12.54-21.27,15.92-45.09,17.73-57.89.2-1.4.38-2.65.55-3.74l3.21-20.6-20.07,5.68c-1.05.3-2.27.62-3.64,1-12.48,3.35-35.72,9.58-55.32,24.6a82.18,82.18,0,0,0-24.75,30c-15.26-20.25-33.2-27.79-34.35-28.26l-10.07,24.78c.27.11,24.16,10.19,34.52,41.83-29.06,4.64-55.81,20.56-76.67,46-24.44,29.8-37.9,69.27-37.9,111.13s13.46,81.33,37.9,111.14c25.07,30.57,58.64,47.41,94.51,47.41s69.45-16.84,94.52-47.41c24.44-29.81,37.9-69.28,37.9-111.14S481.7,332.55,457.26,302.75Zm-61.45-93.1c9.25-7.09,20.14-11.85,29.68-15.14-2.11,9.87-5.52,21.25-11.44,31.29-9.22,15.65-22.47,24.6-40.31,27.15C374.11,234.93,381.4,220.69,395.81,209.65Zm-33.07,336c-58.26,0-105.66-59.12-105.66-131.8s47.4-131.8,105.66-131.8,105.67,59.12,105.67,131.8S421,545.68,362.74,545.68Z"/></g><circle class="cls-3" cx="409.83" cy="470.07" r="24.37"/></g></g></svg>