<svg xmlns="http://www.w3.org/2000/svg" viewBox="0 0 725.49 729.58"><defs><style>.cls-1,.cls-3{fill:#e26241;}.cls-1,.cls-2{opacity:0.8;isolation:isolate;}</style></defs><title>pumpkins</title><g id="Layer_2" data-name="Layer 2"><g id="Capa_1" data-name="Capa 1"><path class="cls-1" d="M362.74,0C162.44,0,0,163.36,0,364.79S162.44,729.58,362.74,729.58,725.49,566.22,725.49,364.79,563,0,362.74,0Zm0,683.6c-175,0-316.92-142.69-316.92-318.71S187.71,46.18,362.74,46.18,679.66,188.87,679.66,364.89,537.77,683.6,362.74,683.6Z"/><g class="cls-2"><path class="cls-3" d="M504.15,286.31a48.64,48.64,0,0,0-30.73-10.44,50.06,50.06,0,0,0-23.58,6.29,90,90,0,0,0-9.71-8.74,54.47,54.47,0,0,0-48.1-9.6l-6.17-48.51H339.63l-6.17,48.51a54.47,54.47,0,0,0-48.1,9.6,90.06,90.06,0,0,0-9.72,8.74,50,50,0,0,0-23.58-6.29,48.72,48.72,0,0,0-30.73,10.44,79.67,79.67,0,0,0-31,63.28v76.94a79.68,79.68,0,0,0,31,63.28,48.76,48.76,0,0,0,30.16,10.44h.57A50,50,0,0,0,275.64,494a92.22,92.22,0,0,0,9.72,8.74,54.56,54.56,0,0,0,56.84,6.37,53.3,53.3,0,0,0,20.54-16.7,53.26,53.26,0,0,0,20.55,16.7,54.56,54.56,0,0,0,56.84-6.37,92.11,92.11,0,0,0,9.71-8.74,50,50,0,0,0,23.58,6.28H474a48.73,48.73,0,0,0,30.15-10.44,79.65,79.65,0,0,0,31-63.28V349.59A79.64,79.64,0,0,0,504.15,286.31Zm-136.09-50.8,4.82,37.87a52.34,52.34,0,0,0-10.14,10.36,51.79,51.79,0,0,0-10.14-10.36l4.82-37.87ZM233.73,473.86a59.59,59.59,0,0,1-23.17-47.33V349.59a59.59,59.59,0,0,1,23.17-47.33,28.62,28.62,0,0,1,29.44-3.76,89.41,89.41,0,0,0-12.5,45.8v87.52a89.41,89.41,0,0,0,12.5,45.8,28.62,28.62,0,0,1-29.44-3.76ZM352.62,462.2a32.32,32.32,0,0,1-19,28.58,34.43,34.43,0,0,1-35.88-4,69.14,69.14,0,0,1-26.89-54.93V344.3a69.18,69.18,0,0,1,26.89-54.94,34.45,34.45,0,0,1,35.88-4,32.31,32.31,0,0,1,19,28.58c0,.47,0,.94,0,1.42V460.78c0,.47,0,1,0,1.42Zm75.1,24.55a34.41,34.41,0,0,1-35.87,4,32.3,32.3,0,0,1-19-28.58c0-.47,0-.95,0-1.42V315.34c0-.48,0-.95,0-1.42a32.29,32.29,0,0,1,19-28.58,34.44,34.44,0,0,1,35.87,4,69.16,69.16,0,0,1,26.9,54.94v87.52a69.12,69.12,0,0,1-26.9,54.93Zm87.2-60.22a59.56,59.56,0,0,1-23.17,47.33,28.59,28.59,0,0,1-29.44,3.75,89.26,89.26,0,0,0,12.51-45.79V344.3a89.32,89.32,0,0,0-12.51-45.8,28.61,28.61,0,0,1,29.44,3.76,59.56,59.56,0,0,1,23.17,47.33Z"/></g><circle class="cls-3" cx="398.26" cy="339.39" r="15.77"/><circle class="cls-3" cx="303.88" cy="445.43" r="15.77"/><circle class="cls-3" cx="233.95" cy="359.89" r="15.77"/><circle class="cls-3" cx="495.76" cy="374.15" r="15.77"/></g></g></svg>