<svg xmlns="http://www.w3.org/2000/svg" viewBox="0 0 737.79 737.79"><defs><style>.cls-1,.cls-3{fill:#e26241;}.cls-1,.cls-2{opacity:0.8;}</style></defs><title>sheep11</title><g id="Layer_2" data-name="Layer 2"><g id="Capa_1" data-name="Capa 1"><path class="cls-1" d="M368.9,0C165.16,0,0,165.16,0,368.9S165.16,737.79,368.9,737.79,737.79,572.63,737.79,368.9,572.63,0,368.9,0Zm0,691.23c-178,0-322.34-144.31-322.34-322.33S190.87,46.56,368.9,46.56,691.23,190.87,691.23,368.9,546.92,691.23,368.9,691.23Z"/><g class="cls-2"><circle class="cls-3" cx="344.08" cy="393.71" r="12.41"/><circle class="cls-3" cx="393.71" cy="393.71" r="12.41"/><path class="cls-3" d="M555.5,319.12a62.05,62.05,0,0,0-3.12-55.68,64.36,64.36,0,0,0-47.48-31.3,61.85,61.85,0,0,0-86.22-49.85,61.87,61.87,0,0,0-99.56,0,61.86,61.86,0,0,0-86.23,49.85,64.39,64.39,0,0,0-47.48,31.3,62.05,62.05,0,0,0-3.12,55.68,61.87,61.87,0,0,0,0,99.56,62,62,0,0,0,3.12,55.67c9.82,17,27.9,28.31,47.49,30.54,2.23,19.59,13.55,37.68,30.54,47.49a62,62,0,0,0,55.68,3.12,61.85,61.85,0,0,0,99.56,0,62,62,0,0,0,55.67-3.12c17-9.81,28.31-27.9,30.54-47.49,19.59-2.23,37.68-13.54,47.49-30.54a62,62,0,0,0,3.12-55.67,61.85,61.85,0,0,0,0-99.56Zm-21.82,83.73a12.41,12.41,0,0,0-5,18.62,37.25,37.25,0,0,1,2.2,40.47c-7.23,12.53-22.1,19.9-37,18.34a12.42,12.42,0,0,0-13.63,13.63c1.56,14.88-5.8,29.74-18.33,37a37.26,37.26,0,0,1-40.48-2.2,12.41,12.41,0,0,0-18.62,5,37.11,37.11,0,0,1-67.91,0,12.41,12.41,0,0,0-18.62-5,37.25,37.25,0,0,1-40.47,2.2c-12.53-7.23-19.9-22.09-18.34-37a12.4,12.4,0,0,0-13.63-13.63c-14.88,1.56-29.74-5.81-37-18.33a37.26,37.26,0,0,1,2.2-40.48,12.41,12.41,0,0,0-5-18.62,37.11,37.11,0,0,1,0-67.91,12.4,12.4,0,0,0,5-18.62,37.27,37.27,0,0,1-2.2-40.47c7.39-12.8,22.59-20.67,37-19.16a12.4,12.4,0,0,0,13.63-13.64,37.11,37.11,0,0,1,58.81-34,12.41,12.41,0,0,0,18.62-5,37.11,37.11,0,0,1,67.91,0,12.41,12.41,0,0,0,18.62,5,37.1,37.1,0,0,1,58.81,34,12.42,12.42,0,0,0,13.64,13.64c14.38-1.52,29.58,6.37,37,19.16a37.25,37.25,0,0,1-2.2,40.47,12.41,12.41,0,0,0,5,18.62,37.11,37.11,0,0,1,0,67.91Z"/><path class="cls-3" d="M402.48,452.11a12.41,12.41,0,0,0-17.54-17.55l-16,16-16-16a12.41,12.41,0,0,0-17.55,17.55l24.81,24.81a12.4,12.4,0,0,0,17.55,0Z"/><path class="cls-3" d="M518.6,331.68H486.29A49.4,49.4,0,0,0,493,306.86a12.41,12.41,0,0,0-24.81,0,24.82,24.82,0,1,1-49.63,0,12.41,12.41,0,0,0-24.81,0,24.82,24.82,0,1,1-49.63,0,12.41,12.41,0,0,0-24.81,0,24.82,24.82,0,1,1-49.63,0,12.41,12.41,0,0,0-24.81,0,49.3,49.3,0,0,0,6.68,24.82H219.19a12.41,12.41,0,0,0-12.41,12.4c0,34.29,28.57,62,62.86,62h12.41v12.4a86.85,86.85,0,1,0,173.69,0v-12.4h12.41c34.29,0,62.86-27.74,62.86-62A12.41,12.41,0,0,0,518.6,331.68Zm-249,49.62a38.61,38.61,0,0,1-35.78-24.81h48.19V381.3Zm161.29,37.22a62,62,0,1,1-124.07,0v-63.6a49.67,49.67,0,0,0,24.82-15.28,49.53,49.53,0,0,0,74.44,0,49.68,49.68,0,0,0,24.81,15.28Zm37.22-37.22H455.74V356.48h48.19A38.6,38.6,0,0,1,468.15,381.3Z"/></g></g></g></svg>