<svg xmlns="http://www.w3.org/2000/svg" viewBox="0 0 737.8 737.8"><defs><style>.cls-1{fill:#e26241;}.cls-1,.cls-2,.cls-3,.cls-4{opacity:0.8;isolation:isolate;}.cls-3{fill:#f7846d;}.cls-4{fill:#ef3314;}</style></defs><title>silage</title><g id="Layer_2" data-name="Layer 2"><g id="Capa_1" data-name="Capa 1"><path class="cls-1" d="M368.9,0C165.2,0,0,165.2,0,368.9S165.2,737.8,368.9,737.8,737.8,572.6,737.8,368.9,572.6,0,368.9,0Zm0,691.3C190.9,691.3,46.6,547,46.6,369S190.9,46.7,368.9,46.7,691.2,191,691.2,369,546.9,691.3,368.9,691.3Z"/><path class="cls-1" d="M371,207.87l-142.91,82.5V303.3a32.76,32.76,0,0,0-12.65-2.59,8.08,8.08,0,0,0,.45,16.15c3.23-.09,7.78,1.82,12.2,4.36v3.9a43.65,43.65,0,0,0-12.88,2.36A8.08,8.08,0,0,0,218,343.14a8.19,8.19,0,0,0,2.81-.51,26.54,26.54,0,0,1,7.25-1.31v4.8l-10.56,5.74a8.09,8.09,0,0,0,3.87,15.19,8,8,0,0,0,3.85-1l2.84-1.54v5.14l-.16-.08a8.08,8.08,0,0,0-7.77,14.16,47.81,47.81,0,0,1-8,2.72,8.08,8.08,0,1,0,3.74,15.73,64.77,64.77,0,0,0,12.24-4.29v3.15c-4.5,3.82-9.82,8.34-12,10.26a8.08,8.08,0,1,0,10.64,12.17l1.38-1.2v7.46a98.87,98.87,0,0,1-11.25,3,8.08,8.08,0,0,0,.17,16.16,24,24,0,0,0,4.42-.6,30.39,30.39,0,0,0-6,4.93,8.08,8.08,0,1,0,12,10.87c2-2.24,6.52-4.47,11.13-6.23l.95.56a26.14,26.14,0,0,0-6.4,3.79,8.08,8.08,0,0,0,10.35,12.42c2.86-2.38,10.21-3.75,16.73-4.28l1.5.87c-1.05.26-2.12.51-3.24.76a8.08,8.08,0,0,0,1.72,16,7.93,7.93,0,0,0,1.74-.19,144.62,144.62,0,0,0,18.93-5.5l5.83,3.37c-3,1.6-5.89,3.31-8.46,5.05a8.09,8.09,0,0,0,9.07,13.39,120.88,120.88,0,0,1,16.19-8.74l5,2.86-2.86,2.11a8.08,8.08,0,1,0,9.58,13l8.56-6.29,1.79,1-4.38,8a8.08,8.08,0,0,0,14.18,7.76l4.2-7.69,5.57,3.22c.18,4.56-.27,8.83-1.26,10.13a8.09,8.09,0,1,0,12.91,9.74,23.86,23.86,0,0,0,4.07-10.8L371,534.35,513.9,451.84V290.37Z"/><path class="cls-1" d="M527.19,370.31,513.9,364.2V363L525,361.41a8.08,8.08,0,0,0-2.26-16l-8.79,1.23V334.15l12-3.25a8.08,8.08,0,1,0-4.22-15.6l-7.81,2.1v-3.72a53,53,0,0,1,14.15-13.5,8.08,8.08,0,1,0-8.47-13.77,56.5,56.5,0,0,0-5.68,4v0L371,372.88v27.27l-14,10.42a8.09,8.09,0,0,0,9.66,13L371,420.3v6.52c-6.24,6.35-14.63,14.55-17.34,16.45a8.08,8.08,0,1,0,9.27,13.24c.59-.41,1.3-1,2.07-1.61a85.25,85.25,0,0,0-6.87,15.91A8.06,8.06,0,0,0,371,479.35v9.41c-.71,1.89-3.31,7.63-10.16,13.06a8.09,8.09,0,0,0,10.05,12.67l.11-.09V517l-10.36,20.95a8.08,8.08,0,1,0,14.49,7.17l9.07-18.35,2.86-1.65a28.7,28.7,0,0,0,.58,8.2,8.1,8.1,0,0,0,7.86,6.2,7.69,7.69,0,0,0,1.89-.23,8.07,8.07,0,0,0,6-9.75c-.78-3.26.65-10,2.25-15.13l5.51-3.18a8.66,8.66,0,0,1,1.48,3,8.08,8.08,0,0,0,7.82,6.06,8.37,8.37,0,0,0,2-.26,8.08,8.08,0,0,0,5.8-9.85,24.39,24.39,0,0,0-3.1-7.08l2-1.14a59.75,59.75,0,0,0,10.62,5.68,8.32,8.32,0,0,0,2.88.53,8.09,8.09,0,0,0,2.88-15.64h0l16.17-9.34.62,3.75a8.1,8.1,0,0,0,8,6.76,7.67,7.67,0,0,0,1.34-.12,8.08,8.08,0,0,0,6.64-9.3l-1.62-9.72,8.29-4.79a9.88,9.88,0,0,1,.1,4.18,8.08,8.08,0,0,0,12.08,10.74c5.6-6.06,4.67-15.63,2.5-23.39l4.61-2.66,5.54,6.58a8.08,8.08,0,0,0,12.37-10.41l-6.19-7.35v-.95l1.69.91a8.08,8.08,0,1,0,7.69-14.22l-9.38-5.06V423l.11.1a8.08,8.08,0,0,0,10.86-12l-11-9.93V382l6.54,3a8.08,8.08,0,1,0,6.75-14.69Z"/><path class="cls-1" d="M519.19,278.7a8.08,8.08,0,0,0-9.8-5.88c-6.46,1.62-15.24,2.3-21.41,2.58L478.66,270l8.42-4.43a8.09,8.09,0,0,0-7.53-14.31l-17.44,9.19-7.21-4.16,3.76-1.43a8.08,8.08,0,0,0-5.75-15.11l-16.07,6.11-11.58-6.68a30,30,0,0,1,11.28-2,8.08,8.08,0,1,0,1.11-16.13c-10.44-.72-21.95,4-29.78,8.09l-6.14-3.55,5.87-13.13a8.08,8.08,0,0,0-14.76-6.59l-5.18,11.59-2.6-1.49V196.3a8.08,8.08,0,1,0-16.16,0v12.78l-4,2.33,2.2-4.47a8.08,8.08,0,0,0-14.51-7.13l-12.84,26.12-2.63,1.52V219a8.09,8.09,0,0,0-16.17,0v17.76l-13.28,7.66v-3.19a8.09,8.09,0,0,0-16.17,0v7l-9.73-12a8.08,8.08,0,1,0-12.57,10.16l8.77,10.84c-6.6-2.13-15.47-4.3-24.2-4.3a8.08,8.08,0,1,0,0,16.16,50.65,50.65,0,0,1,9.57,1l-16.9,9.75-26.78,2.53a8.08,8.08,0,0,0,.75,16.13c.26,0,.51,0,.77,0l18-1.69.66.38-6.7,3.8a8.09,8.09,0,1,0,8,14.06L256,306.48l6.56,3.78-5.76,2.3a8.08,8.08,0,0,0,3,15.59,8,8,0,0,0,3-.58l17.56-7,8.61,5-3,11.16a8.08,8.08,0,0,0,5.73,9.89,8.25,8.25,0,0,0,2.08.27,8.08,8.08,0,0,0,7.81-6l1.85-6.95,8.59,5-1.38,15.7a8.08,8.08,0,0,0,7.34,8.76l.72,0a8.08,8.08,0,0,0,8-7.37l.73-8.2,17.27,10-4,10.48A8.08,8.08,0,1,0,355.91,374l3-8,8.52,4.92,4,16.32a8.08,8.08,0,0,0,15.7-3.87L382.92,366l3-1.74,5.2,11.86a8.09,8.09,0,0,0,7.41,4.85,8,8,0,0,0,3.24-.69,8.07,8.07,0,0,0,4.16-10.64L400,356.13l7.19-4.15-.89,9.24a8.09,8.09,0,0,0,7.27,8.82c.26,0,.52,0,.78,0a8.08,8.08,0,0,0,8-7.31L423.93,347l6.63,9.13a8.08,8.08,0,1,0,13.08-9.49l-8-11.06,1.52-.88,13.15,12.24a8.08,8.08,0,1,0,11-11.82l-9.53-8.87,2-1.15,18.4,13.73a8.08,8.08,0,1,0,9.67-12.95L469,316.3l3.43-2c4.77,2.85,9.86,6.54,12.65,10.45a8.08,8.08,0,0,0,13.15-9.4,41.65,41.65,0,0,0-6.06-6.65l14.46,1.22.69,0a8.08,8.08,0,0,0,.67-16.13h-.05l6-3.44-2.48-1.44,1.89-.43A8.08,8.08,0,0,0,519.19,278.7Z"/><g class="cls-2"><path class="cls-3" d="M299.87,298.35a5.47,5.47,0,0,1-.9-.08c-10.47-1.87-21.68-11.18-22.92-12.24a5,5,0,0,1,6.53-7.7c2.82,2.38,11.57,8.81,18.17,10a5.06,5.06,0,0,1-.88,10Z"/><path class="cls-3" d="M405.27,264a5,5,0,0,1-5-4.71c-.78-11.78-11.67-16.72-12.13-16.92a5.05,5.05,0,0,1,4-9.28c.69.3,17,7.49,18.2,25.53a5,5,0,0,1-4.7,5.37Z"/><path class="cls-3" d="M392.62,292.78a5,5,0,0,1-3.13-1.1c-2.68-2.14-13.17-14.17-16.33-17.81a5.05,5.05,0,0,1,7.64-6.62c6.12,7.06,13.59,15.39,15,16.54a5.06,5.06,0,0,1-3.18,9Z"/><path class="cls-3" d="M449.73,318.05a5.05,5.05,0,0,1-2-9.68c10.08-4.44,13.27-16.19,13.3-16.3a5.05,5.05,0,1,1,9.8,2.45c-.17.67-4.31,16.62-19,23.1A5,5,0,0,1,449.73,318.05Z"/><path class="cls-3" d="M335.06,280.16a5.06,5.06,0,0,1-5.06-5.05c0-9.51,8.64-27.07,9.63-29a5,5,0,0,1,9,4.52c-3.3,6.63-8.56,19.14-8.56,24.52A5,5,0,0,1,335.06,280.16Z"/><path class="cls-3" d="M374.46,330.17l-.4,0c-20.4-1.61-26.78-8.64-27.86-10l8-6.15-.12-.16c0,.05,4.72,5,20.76,6.28a5.05,5.05,0,0,1-.39,10.09Z"/><path class="cls-3" d="M384.82,360a5,5,0,0,1-3-9.1c9.56-7.12,14.66-20.34,14.71-20.47A5,5,0,0,1,406,334c-.24.66-6.21,16.13-18.12,25A5.07,5.07,0,0,1,384.82,360Z"/><path class="cls-4" d="M246.66,375.13a4.76,4.76,0,0,1-1.18-.14,5,5,0,0,1-3.74-6.08c2.88-12.1,18.22-23.39,20-24.63a5,5,0,1,1,5.88,8.21c-3.87,2.79-14.31,11.59-16,18.75A5,5,0,0,1,246.66,375.13Z"/><path class="cls-4" d="M279.32,399.38a5.07,5.07,0,0,1-4.63-3c-6.26-14.23-9.48-24.33-9.62-24.76a5.05,5.05,0,1,1,9.63-3.05c0,.1,3.21,10,9.24,23.74a5.06,5.06,0,0,1-4.62,7.09Z"/><path class="cls-4" d="M295.15,450.9a5,5,0,0,1-4.77-6.71c4.72-13.58,19.35-19.9,20-20.17a5.05,5.05,0,0,1,3.95,9.3c-.19.08-11.16,4.93-14.38,14.19A5.06,5.06,0,0,1,295.15,450.9Z"/><path class="cls-4" d="M320.4,491.32a5.06,5.06,0,0,1-1.77-9.79c9.24-3.46,11.39-13.06,11.48-13.46a5.05,5.05,0,0,1,9.9,2c-.13.62-3.25,15.44-17.83,20.91A5.09,5.09,0,0,1,320.4,491.32Z"/><path class="cls-4" d="M238.07,445.35a5.05,5.05,0,0,1-2.19-9.61c13.52-6.49,14.69-15.73,14.74-16.12A5,5,0,0,1,256,415a5.09,5.09,0,0,1,4.64,5.47c-.05.62-1.39,15.22-20.43,24.37A5,5,0,0,1,238.07,445.35Z"/><path class="cls-4" d="M312.32,404.93a5,5,0,0,1-4.07-8c6.18-8.42,22.88-15.95,24.77-16.78a5.05,5.05,0,0,1,4.08,9.24c-6.17,2.72-17.25,8.81-20.7,13.52A5.06,5.06,0,0,1,312.32,404.93Z"/></g><path class="cls-3" d="M408.81,422.45a4.92,4.92,0,0,1-1.37-.19,37.25,37.25,0,0,1-21.77-16.44,5,5,0,0,1,8.87-4.83,27,27,0,0,0,15.64,11.54,5.06,5.06,0,0,1-1.37,9.92Z"/><path class="cls-3" d="M457.81,404.93a5.06,5.06,0,0,1-4.86-3.66c-.79-2.64-10.19-9.6-19.72-14.6a5.05,5.05,0,0,1,4.7-8.94c5.19,2.72,22.31,12.27,24.73,20.76a5.05,5.05,0,0,1-3.46,6.25A5.22,5.22,0,0,1,457.81,404.93Z"/><path class="cls-1" d="M510.08,349.61a80.55,80.55,0,0,1-12.75-1.08,5.05,5.05,0,0,1,1.78-9.95c3.22.58,12.91,1.71,19,.09a5.05,5.05,0,0,1,2.58,9.77A42.79,42.79,0,0,1,510.08,349.61Z"/><path class="cls-3" d="M491.15,387.25A5,5,0,0,1,487,385a88.16,88.16,0,0,0-9.48-11.35,5.06,5.06,0,0,1,7.15-7.15,98.89,98.89,0,0,1,10.73,12.9,5,5,0,0,1-1.4,7A5,5,0,0,1,491.15,387.25Z"/><path class="cls-3" d="M498.21,447.87a5.05,5.05,0,0,1-2.52-.68c-11.4-6.6-14.41-19.91-14.53-20.47a5.05,5.05,0,0,1,9.87-2.17c.05.21,2.29,9.59,9.72,13.9a5,5,0,0,1-2.54,9.42Z"/><path class="cls-3" d="M457.81,450.9a5.06,5.06,0,0,1-4.62-3c-3-6.8-10.9-15.85-13.69-18.77a5.05,5.05,0,1,1,7.31-7c.46.47,11.27,11.86,15.61,21.64a5,5,0,0,1-2.56,6.67A5.13,5.13,0,0,1,457.81,450.9Z"/><path class="cls-3" d="M395.17,462.52a5,5,0,0,1-4.79-3.45c-1.83-5.48-7.83-8.7-7.89-8.73a5.05,5.05,0,0,1,4.64-9c1,.51,9.74,5.25,12.83,14.51a5.05,5.05,0,0,1-3.2,6.39A4.9,4.9,0,0,1,395.17,462.52Z"/><path class="cls-3" d="M446.7,491.32a5.05,5.05,0,0,1-4.37-2.51c-2.1-3.6-10-8.4-13.55-10.15a5.05,5.05,0,0,1,4.51-9c1.38.69,13.59,6.94,17.77,14.1a5.06,5.06,0,0,1-4.36,7.6Z"/><path class="cls-1" d="M521.8,408.51c-7.53,0-19.91-3.35-21.39-3.76A5.05,5.05,0,0,1,503.1,395c5.34,1.47,15.35,3.69,19.49,3.37a5.05,5.05,0,0,1,.77,10.08C522.87,408.49,522.35,408.51,521.8,408.51Z"/><path class="cls-1" d="M492.12,476.16c-8.2,0-17.1-5.11-18.09-5.69a5.05,5.05,0,0,1,5.13-8.71c2,1.2,8.34,4.3,13,4.3h0a5.05,5.05,0,0,1,0,10.1Z"/><circle class="cls-1" cx="565.84" cy="263.74" r="21.33"/></g></g></svg>