<svg xmlns="http://www.w3.org/2000/svg" viewBox="0 0 725.49 729.58"><defs><style>.cls-1{fill:#e26241;opacity:0.8;isolation:isolate;}</style></defs><title>sweet-potato</title><g id="Layer_2" data-name="Layer 2"><g id="Capa_1" data-name="Capa 1"><path class="cls-1" d="M362.74,0C162.44,0,0,163.36,0,364.79S162.44,729.58,362.74,729.58,725.49,566.22,725.49,364.79,563,0,362.74,0Zm0,683.6c-175,0-316.92-142.69-316.92-318.71S187.71,46.18,362.74,46.18,679.66,188.87,679.66,364.89,537.77,683.6,362.74,683.6Z"/><path class="cls-1" d="M498.36,201.27a296.19,296.19,0,0,0-37,14.45c-54.39-8-132.57-3.29-164.21,2.54a178.37,178.37,0,0,0-103,59.32,24,24,0,0,0,6.75,36.6,178.15,178.15,0,0,0,76.64,21.45c-52.14,44.63-80.62,100.57-88.87,160a29.91,29.91,0,0,0,31.7,33.91,252.83,252.83,0,0,0,155.4-67.74c39.57-37,131.66-148.62,159.26-221.29,8.83-23.25-12.93-46.52-36.7-39.28ZM211.4,295a2.1,2.1,0,0,1-.59-3.2,156.32,156.32,0,0,1,73.69-48l1.44,11A10.93,10.93,0,1,0,307.62,252l-1.7-13c26.63-4.21,76.07-7.15,119.22-4.77-42.21,23.33-86.16,53.34-119,78.49A156.41,156.41,0,0,1,211.4,295Zm303.22-62.21c-24.18,63.67-109.35,171.59-153.75,213.08A232,232,0,0,1,317,478.17c-.29-.78,1.29,3.15-10.07-25a10.94,10.94,0,0,0-20.28,8.19c10.8,26.71,10.11,25.26,11,26.61a230.84,230.84,0,0,1-78.79,19.78,8,8,0,0,1-8.5-9.1,231,231,0,0,1,71.37-137.49c-1.23,0,47.95-43.39,120.13-88l12.79,11.1a10.88,10.88,0,0,0,7.17,2.68c10.05,0,14.82-12.55,7.17-19.19l-7.41-6.43c32.55-18.92,61.27-32.5,83.14-39.15a8.07,8.07,0,0,1,9.9,10.59Z"/><path class="cls-1" d="M429.84,351.23l-18.23-15.84a13.19,13.19,0,1,0-17.3,19.92l18.24,15.84a13.19,13.19,0,0,0,17.29-19.92Z"/><circle class="cls-1" cx="513.01" cy="452.76" r="21.33"/></g></g></svg>