<svg xmlns="http://www.w3.org/2000/svg" viewBox="0 0 737.79 737.79"><defs><style>.cls-1,.cls-3{opacity:0.8;}.cls-2{fill:#484848;}.cls-3{fill:#fff;}</style></defs><title>swipe-left</title><g id="Layer_2" data-name="Layer 2"><g id="Capa_1" data-name="Capa 1"><g class="cls-1"><path class="cls-2" d="M443.62,213H287.74a7.8,7.8,0,0,0,0,15.59H443.62a7.8,7.8,0,1,0,0-15.59Z"/><path class="cls-2" d="M298.77,220.81l25.67-25.66a7.79,7.79,0,1,0-11-11L282.24,215.3a7.81,7.81,0,0,0,0,11l31.18,31.17a7.81,7.81,0,0,0,5.5,2.28,7.8,7.8,0,0,0,5.5-13.31Z"/><path class="cls-2" d="M495.81,277.66A29.77,29.77,0,0,0,456.75,275,29.85,29.85,0,0,0,407,262L300.87,368.14,291,305.2a34.91,34.91,0,0,0-34.4-29.83,23.41,23.41,0,0,0-23.39,23.38v147a85.14,85.14,0,0,0,25.12,60.62l24.51,24.52A85.67,85.67,0,0,0,401,533.67l64.4-58.61a29.86,29.86,0,0,0-.09-42.2,29.16,29.16,0,0,0-12.89-7.54,29.86,29.86,0,0,0-2.7-39.22,29.53,29.53,0,0,0-12.58-7.48l58.75-58.77A29.84,29.84,0,0,0,495.81,277.66ZM484.9,308.8l-93.53,93.53a7.83,7.83,0,0,0-2.27,5.52,7.78,7.78,0,0,0,13.29,5.51l16.26-16.25a14.25,14.25,0,0,1,20.16,20.15l-16.26,16.26-.05.05a7.79,7.79,0,0,0,11.07,11l.67-.67a14.47,14.47,0,0,1,20.15.09,14.14,14.14,0,0,1,.27,19.82l-64.14,58.36a70.08,70.08,0,0,1-96.68-2.3l-24.52-24.52a69.65,69.65,0,0,1-20.54-49.6v-147a7.8,7.8,0,0,1,7.79-7.8,19.29,19.29,0,0,1,19,16.57l12.31,78.13a7.79,7.79,0,0,0,13.2,4.3L418,273a14.25,14.25,0,0,1,20.15,20.15l-78,78a7.8,7.8,0,0,0,11,11l93.52-93.52A14.25,14.25,0,0,1,484.9,308.8Z"/></g><path class="cls-3" d="M368.9,0C165.16,0,0,165.16,0,368.9S165.16,737.79,368.9,737.79,737.79,572.63,737.79,368.9,572.63,0,368.9,0Zm0,691.23c-178,0-322.34-144.31-322.34-322.33S190.87,46.56,368.9,46.56,691.23,190.87,691.23,368.9,546.92,691.23,368.9,691.23Z"/></g></g></svg>