<svg xmlns="http://www.w3.org/2000/svg" viewBox="0 0 737.8 737.8"><defs><style>.cls-1{fill:#e26241;opacity:0.8;isolation:isolate;}</style></defs><title>Turnips</title><g id="Layer_2" data-name="Layer 2"><g id="Capa_1" data-name="Capa 1"><path class="cls-1" d="M368.9,0C165.2,0,0,165.2,0,368.9S165.2,737.8,368.9,737.8,737.8,572.6,737.8,368.9,572.7,0,368.9,0Zm0,691.3C190.9,691.3,46.6,547,46.6,369S190.9,46.7,368.9,46.7,691.2,191,691.2,369,547,691.3,368.9,691.3Z"/><path class="cls-1" d="M527,236.57a49.23,49.23,0,0,0-84-34.8c-6.38,6.38-21.72,30.07-37.84,56.2,7.08-29.87,13-57.47,13-66.5a49.23,49.23,0,0,0-98.45,0c0,9,5.91,36.63,13,66.5-16.12-26.13-31.46-49.82-37.84-56.2a49.23,49.23,0,1,0-69.62,69.61c10.19,10.19,64.38,43.15,102.35,65.72-55.7,14.63-96.2,58-96.2,109,0,61.27,116.75,138.59,130.07,147.2a13.76,13.76,0,0,0,15,0c13.32-8.61,130.07-85.93,130.07-147.2,0-51.06-40.5-94.41-96.19-109,37.95-22.57,92.15-55.53,102.34-65.72A48.9,48.9,0,0,0,527,236.57ZM368.9,169.8a21.69,21.69,0,0,1,21.67,21.67c0,8.76-10.42,53.6-21.67,98.59-11.25-45-21.68-89.83-21.68-98.59A21.71,21.71,0,0,1,368.9,169.8ZM244.68,221.25a21.68,21.68,0,0,1,30.66,0c6.19,6.19,30.52,45.27,54.38,85-39.77-23.86-78.84-48.2-85-54.39A21.7,21.7,0,0,1,244.68,221.25Zm212,268.23H366A13.78,13.78,0,0,0,366,517h64a541.92,541.92,0,0,1-61.11,48.22c-37.1-25.12-87-66.58-104-99h70.36a13.78,13.78,0,0,0,0-27.55H259.33c4.78-44.4,52.08-79.37,109.57-79.37,32.33,0,61.43,11.06,81.58,28.63H389.81a13.78,13.78,0,0,0,0,27.55h82a70.49,70.49,0,0,1,7.08,30.6C478.9,458.35,470.09,473.58,456.72,489.48ZM493.11,251.9c-6.19,6.19-45.26,30.53-85,54.38,23.85-39.76,48.19-78.84,54.39-85a21.67,21.67,0,1,1,30.64,30.65Z"/><circle class="cls-1" cx="529.64" cy="342.07" r="21.33"/></g></g></svg>