<svg xmlns="http://www.w3.org/2000/svg" viewBox="0 0 512 512"><defs><style>.cls-1{fill:#940a37;}.cls-2{fill:none;stroke:#940a37;stroke-linecap:round;stroke-linejoin:round;stroke-width:2px;}.cls-3{fill:#fff;}</style></defs><title>add</title><g id="Layer_2" data-name="Layer 2"><g id="Capa_1" data-name="Capa 1"><circle class="cls-1" cx="256" cy="256" r="256"/><line class="cls-2" x1="256" y1="128" x2="256" y2="384"/><line class="cls-2" x1="384" y1="256" x2="128" y2="256"/><path class="cls-3" d="M403.31,265.5H108.69A9.68,9.68,0,0,1,99,255.84V239.1a9.68,9.68,0,0,1,9.65-9.66H403.31A9.68,9.68,0,0,1,413,239.1v16.74A9.68,9.68,0,0,1,403.31,265.5Z"/><path class="cls-3" d="M238,403.31V108.69A9.68,9.68,0,0,1,247.63,99h16.74a9.68,9.68,0,0,1,9.66,9.65V403.31a9.68,9.68,0,0,1-9.66,9.65H247.63A9.68,9.68,0,0,1,238,403.31Z"/></g></g></svg>