<svg xmlns="http://www.w3.org/2000/svg" xmlns:xlink="http://www.w3.org/1999/xlink" viewBox="0 0 879.16 686.78"><defs><style>.cls-1,.cls-3{fill:#fff;}.cls-1,.cls-5{stroke:#e26241;stroke-miterlimit:10;stroke-width:2px;}.cls-2{fill:#e26241;opacity:0.8;}.cls-4{clip-path:url(#clip-path);}.cls-5{fill:none;}</style><clipPath id="clip-path"><path class="cls-1" d="M665,165.79l-297.11,290a21.51,21.51,0,0,1-29.88,0L223,343.52a34.63,34.63,0,0,0-48.13,0,32.66,32.66,0,0,0,0,47l115,112.23a90.85,90.85,0,0,0,126.12,0l297.13-290a32.65,32.65,0,0,0,0-47A34.63,34.63,0,0,0,665,165.79Z"/></clipPath></defs><title>comfirm</title><g id="Layer_2" data-name="Layer 2"><g id="Capa_1" data-name="Capa 1"><circle class="cls-2" cx="322.34" cy="364.44" r="322.34"/><path class="cls-3" d="M665,165.79l-297.11,290a21.51,21.51,0,0,1-29.88,0L223,343.52a34.63,34.63,0,0,0-48.13,0,32.66,32.66,0,0,0,0,47l115,112.23a90.85,90.85,0,0,0,126.12,0l297.13-290a32.65,32.65,0,0,0,0-47A34.63,34.63,0,0,0,665,165.79Z"/><g class="cls-4"><rect class="cls-1" x="9.86" y="1" width="868.3" height="682.24"/></g><path class="cls-5" d="M665,165.79l-297.11,290a21.51,21.51,0,0,1-29.88,0L223,343.52a34.63,34.63,0,0,0-48.13,0,32.66,32.66,0,0,0,0,47l115,112.23a90.85,90.85,0,0,0,126.12,0l297.13-290a32.65,32.65,0,0,0,0-47A34.63,34.63,0,0,0,665,165.79Z"/></g></g></svg>