<svg xmlns="http://www.w3.org/2000/svg" viewBox="0 0 581.35 516.25"><defs><style>.cls-1{fill:#484848;}</style></defs><title>cow-list_1</title><g id="Layer_2" data-name="Layer 2"><g id="Capa_1" data-name="Capa 1"><path class="cls-1" d="M539.13,295.83c-2.56-79.64-44.34-135.5-59.51-153.91C465.91,125.28,406.54,53.24,304.51,47c-93.31-5.66-157.57,47.66-174,62.34-56.42,50.46-73,114.29-79.34,138.85-3.46,13.34-7.21,28.13-7.93,48.17-2.66,74,38.71,128,46.47,137.71,62.48,78.55,163.76,81.06,198.92,82,24.35.64,88.74,1.48,152.73-38.05,19-11.74,51.56-32.4,74.52-73.39C540.67,360.41,539.85,318.27,539.13,295.83Zm-53.84,91.81c-19.75,36-48.31,54.08-65.13,64.44-55,33.9-110.3,33.37-131.5,32.89-31-.7-126.82-2.87-178.54-75.8C75.26,360,77.05,302.12,77.36,295.09c.79-18,4.16-31.29,6.83-41.63,5.48-21.22,19.73-76.39,68.32-120C166.64,120.77,222,74.68,302.32,79.58,390,84.92,441.1,147,453.1,161.58c11.34,13.78,49.71,63.77,51.46,135.38C505,316.29,505.44,350.9,485.29,387.64Z"/><path class="cls-1" d="M512.21,345.13q-6.81,15.31-13.61,30.61a550.73,550.73,0,0,0-418.23.85l-10.2-32.31c86.33-35.61,160.17-43.57,205.72-45a549.62,549.62,0,0,1,117.31,8.5A523.55,523.55,0,0,1,512.21,345.13Z"/><circle class="cls-1" cx="441.48" cy="237.12" r="23.8"/><circle class="cls-1" cx="143.49" cy="237.12" r="23.8"/><circle class="cls-1" cx="348.39" cy="379.34" r="23.8"/><circle class="cls-1" cx="243.73" cy="379.34" r="23.8"/><path class="cls-1" d="M385.69,436.23c-3.83,20.94-55.95,30-90.67,30.18-33.22.2-83.71-7.49-88.41-28.33-1.36-6,.67-15.1,6.23-18.71,6-3.86,14.33-.38,19.84,1.7,0,0,31,11.72,63.47,12.47,20.88.49,41.47-5.47,47.6-7.37,16.81-5.19,28-11.67,35.71-6.23C384.17,423.26,386.75,430.42,385.69,436.23Z"/><path class="cls-1" d="M581.06,133.75c1.33,11.8-1.75,28.23-13.6,36.84-19.29,14-53.82,1.47-57.24-13-1.7-7.24,3.84-17.13,10.77-19.27,9.55-2.95,20.49,9.19,24.37,5.67,1.61-1.46.92-4.64.57-6.23-.64-2.89-2.95-9.6-25.51-21.54-10.14-5.37-15.33-8.06-21-8.5-10.65-.83-19.48,3.49-22.67,5.1-9.77,4.92-9.87,9.08-15.87,10.2-10.34,1.93-24.68-7.7-25.5-17.57C434.29,91.89,458.84,81.16,470,77.65c4.08-1.29,20.92-6.21,44.2-.57C536.63,82.51,577.34,100.73,581.06,133.75Z"/><path class="cls-1" d="M.29,133.75C-1,145.55,2,162,13.89,170.59c19.29,14,53.82,1.47,57.24-13,1.7-7.24-3.84-17.13-10.77-19.27C50.81,135.33,39.87,147.47,36,144c-1.61-1.46-.92-4.64-.57-6.23.64-2.89,2.95-9.6,25.51-21.54,10.14-5.37,15.33-8.06,21-8.5,10.64-.83,19.48,3.49,22.67,5.1,9.77,4.92,9.87,9.08,15.87,10.2,10.34,1.93,24.68-7.7,25.5-17.57,1.13-13.52-23.42-24.25-34.57-27.76-4.08-1.29-20.92-6.21-44.2-.57C44.72,82.51,4,100.73.29,133.75Z"/><path class="cls-1" d="M219.4,66.46l-30.6,6.38-28.05-35.7c-.45,3-1.22,7.47-2.55,12.75-3.57,14.18-5.36,21.27-11,23.8-6.88,3.06-15.38-2.32-17-3.4a23.61,23.61,0,0,1-7.65-8.5C122,56.94,119.06,24,139.92,7.38,142.73,5.14,148,1,155.65.16c15.28-1.73,27.53,11,37,20.83C200.06,28.71,211.9,43.29,219.4,66.46Z"/><path class="cls-1" d="M347.7,67l30.66,6.1,27.73-36c.48,3,1.29,7.46,2.66,12.72C412.46,64,414.31,71.1,420,73.58c6.91,3,15.36-2.45,17-3.55a23.64,23.64,0,0,0,7.57-8.57c.46-4.85,3.1-37.78-17.92-54.24C423.81,5,418.48.93,410.85.13,395.56-1.46,383.42,11.4,374.06,21.3,366.7,29.09,355,43.78,347.7,67Z"/></g></g></svg>