<svg xmlns="http://www.w3.org/2000/svg" viewBox="0 0 310.91 403.01"><defs><style>.cls-1{fill:#484848;}</style></defs><title>descrip_1</title><g id="Layer_2" data-name="Layer 2"><g id="Capa_1" data-name="Capa 1"><path class="cls-1" d="M49.83,390.32C78.18,398.5,115.69,403,155.45,403s77.28-4.51,105.63-12.69c33.06-9.54,49.83-22.77,49.83-39.3s-16.77-29.75-49.83-39.29c-26-7.5-59.61-11.9-95.63-12.58V155.32a76.43,76.43,0,0,0,45.21-22.14,78,78,0,1,0-65.21,22.07V299.14c-36,.69-69.66,5.09-95.62,12.59C16.77,321.27,0,334.49,0,351S16.77,380.78,49.83,390.32ZM97.68,78a57.78,57.78,0,1,1,98.8,41,56.66,56.66,0,0,1-40.57,16.72h-.46A57.74,57.74,0,0,1,97.68,78ZM55.38,330.94c24.24-7,55.93-11.12,90.07-11.8v23.37a10,10,0,0,0,20,0V319.14c34.15.68,65.84,4.8,90.08,11.8,29,8.38,35.38,17.34,35.38,20.08s-6.36,11.71-35.38,20.09c-26.6,7.67-62.13,11.9-100.08,11.9S82,378.78,55.38,371.11C26.35,362.73,20,353.77,20,351S26.35,339.32,55.38,330.94Z"/></g></g></svg>