<svg xmlns="http://www.w3.org/2000/svg" viewBox="0 0 737.79 737.79"><defs><style>.cls-1,.cls-3{fill:#e26241;}.cls-1,.cls-2{opacity:0.8;}</style></defs><title>i-cow</title><g id="Layer_2" data-name="Layer 2"><g id="Capa_1" data-name="Capa 1"><path class="cls-1" d="M368.9,0C165.16,0,0,165.16,0,368.9S165.16,737.79,368.9,737.79,737.79,572.63,737.79,368.9,572.63,0,368.9,0Zm0,691.23c-178,0-322.34-144.31-322.34-322.33S190.87,46.56,368.9,46.56,691.23,190.87,691.23,368.9,546.92,691.23,368.9,691.23Z"/><g class="cls-2"><ellipse class="cls-3" cx="305.71" cy="327.77" rx="14.01" ry="20.92"/><ellipse class="cls-3" cx="450.45" cy="327.77" rx="14.01" ry="20.92"/><path class="cls-3" d="M318.73,458.9c0,18.47,9.3,32.93,21.18,32.93s21.18-14.46,21.18-32.93S351.79,426,339.91,426,318.73,440.44,318.73,458.9Zm27.46-16.64c2.45,4.3,3.86,10.36,3.86,16.64s-1.41,12.35-3.86,16.65c-1.88,3.28-4.23,5.24-6.28,5.24s-4.41-2-6.28-5.24c-2.46-4.3-3.86-10.36-3.86-16.64s1.4-12.35,3.86-16.65c1.87-3.28,4.22-5.24,6.28-5.24s4.4,2,6.28,5.24Z"/><path class="cls-3" d="M395.07,458.9c0,18.47,9.31,32.93,21.18,32.93s21.18-14.46,21.18-32.93S428.13,426,416.25,426,395.07,440.44,395.07,458.9Zm27.46-16.64c2.46,4.3,3.86,10.36,3.86,16.64s-1.4,12.35-3.86,16.65c-1.87,3.28-4.22,5.24-6.28,5.24s-4.4-2-6.28-5.24c-2.45-4.3-3.86-10.36-3.86-16.65s1.41-12.34,3.86-16.64c1.88-3.28,4.23-5.24,6.28-5.24S420.66,439,422.53,442.26Z"/><path class="cls-3" d="M564.84,270.89c-31.49-31.49-72.5-36.1-103.55-33.69l2.23-45.74a18,18,0,0,0-34-9l-20.05,39.6a126,126,0,0,0-79.51,0l-20-39.59a18,18,0,0,0-34,9l2.23,45.77A165.47,165.47,0,0,0,244,238a5.76,5.76,0,0,0,.74,11.48,6.47,6.47,0,0,0,.76-.05,154.69,154.69,0,0,1,33.24-.59l.23,4.61a143.55,143.55,0,0,0-14.67,16.79c-20.94-9.61-43.8-9.4-60.92-7a105.45,105.45,0,0,1,21.53-9.37,5.76,5.76,0,1,0-3.42-11,112.61,112.61,0,0,0-46.86,28,5.76,5.76,0,0,0-1.24,6.31,120.83,120.83,0,0,0,17.29,27.6c13.55,16.22,29.46,25.72,46.38,27.77a158,158,0,0,0,.91,63.07c-11.87,16.62-18.18,35.37-18.18,54.89,0,30.93,15.81,59.9,44.51,81.58,40.21,30.36,84,32.86,105.42,33a202.44,202.44,0,0,0,82.61-17.09l33.46-18a10.53,10.53,0,0,0-8.58-17.59,294.16,294.16,0,0,1-34.32,15c-26.22,9.52-54.77,16.24-72.08,16.3-75.46.27-128.91-49.16-129.57-93.53-.77-52.27,71.8-91.55,129.57-90.95,6.46.06,53.66-.46,91.7,33.17C474.21,402.81,494.78,421,497,450.25c1.69,22.59-8.46,40.14-13.3,47.41,0,.88-.33,7.84,3.87,10.3,3.21,1.87,7.33.08,9-.65,11.41-5,23.29-30.13,23.13-56.77-.14-24.85-10.73-44.1-18.18-54.89a158,158,0,0,0,.91-63.07c7.22-1.5,29.54-7.11,46.38-27.78A79.66,79.66,0,0,0,564.84,270.89Zm-23.77-8.29c-16.4-2.32-38.31-2.52-58.37,6.68a138.14,138.14,0,0,0-14-16.06l.21-4.43C490.22,247,517.14,248.74,541.07,262.6ZM438.89,197.68a5.32,5.32,0,0,1,10.05,2.66l-2.13,43.57a109.42,109.42,0,0,0-24-14.44Zm-145.18-3.84a5.32,5.32,0,0,1,6.09,2.73l16.08,31.76a108.92,108.92,0,0,0-24,14.42l-2.12-43.53A5.32,5.32,0,0,1,293.71,193.84ZM202.1,294.36A108.37,108.37,0,0,1,189.78,276c12.39-3.41,42.11-9.52,67.78,1.35A144.72,144.72,0,0,0,240.32,317C226.49,315.71,213.66,308.11,202.1,294.36ZM269.81,370a125.77,125.77,0,0,0-16.06,14.39,142.16,142.16,0,0,1-1.6-21.17c0-71.11,53.19-129,118.57-129a110,110,0,0,1,18.33,1.54c-7.7,12.52-10.87,31-8.75,52.37,2,20.46,8.49,39.15,17.54,52.15a189.54,189.54,0,0,0-27.12-1.94C332.67,338.37,296.83,349.6,269.81,370Zm201.82,0c-15.85-12-34.74-20.78-55.34-26-12.51-9-22.51-31.65-25-56.91-2.06-20.81,1.44-38.65,9.38-48.65,50.93,14.46,88.63,64.93,88.63,124.8a140.84,140.84,0,0,1-1.6,21.17A125.1,125.1,0,0,0,471.63,370Zm31.7-52.29a144.6,144.6,0,0,0-17.24-39.59c25.68-10.87,55.4-4.77,67.78-1.36C547.59,288.5,530.46,315.15,503.33,317.71Z"/></g></g></g></svg>