<svg xmlns="http://www.w3.org/2000/svg" viewBox="0 0 737.79 737.79"><defs><style>.cls-1,.cls-3{fill:#e26241;}.cls-1,.cls-2{opacity:0.8;}</style></defs><title>i-donkey</title><g id="Layer_2" data-name="Layer 2"><g id="Capa_1" data-name="Capa 1"><path class="cls-1" d="M368.9,0C165.16,0,0,165.16,0,368.9S165.16,737.79,368.9,737.79,737.79,572.63,737.79,368.9,572.63,0,368.9,0Zm0,691.23c-178,0-322.34-144.31-322.34-322.33S190.87,46.56,368.9,46.56,691.23,190.87,691.23,368.9,546.92,691.23,368.9,691.23Z"/><g class="cls-2"><path class="cls-3" d="M326.34,360.42a17,17,0,1,0,16.79,17A16.88,16.88,0,0,0,326.34,360.42Z"/><path class="cls-3" d="M411.32,360.29a17.13,17.13,0,1,0,16.91,17.13A17,17,0,0,0,411.32,360.29Z"/><path class="cls-3" d="M339.41,499.13A14.67,14.67,0,1,0,353.9,513.8,14.58,14.58,0,0,0,339.41,499.13Z"/><path class="cls-3" d="M398.28,499a14.79,14.79,0,1,0,14.59,14.79A14.7,14.7,0,0,0,398.28,499Z"/><path class="cls-3" d="M540,170.18l-2.08-8.28-8.45-1.25c-1.47-.22-36.47-5.1-65.88,17.75-17.43,13.53-29,33.54-34.51,59.61-16.85-6.74-37-10.14-60.19-10.14s-43.35,3.4-60.2,10.14c-5.51-26.07-17.07-46.08-34.5-59.61-29.42-22.85-64.41-18-65.89-17.75l-8.44,1.25-2.08,8.28a139,139,0,0,0-1.14,52.4c4.21,24.58,17.36,57.29,55.3,78.61-5.08,17.95-6.36,38.94-3.77,62.84,3.43,31.56,10.88,50.35,19.51,72.11,3.36,8.45,6.83,17.2,10.35,27.44,2,5.92,2.34,22.86,1.91,33v.55c0,38.37,18.95,57.75,34.84,67.25,18.45,11,39.61,13.35,54.12,13.35s35.66-2.32,54.11-13.35c15.9-9.5,34.84-28.88,34.84-67.25v-.55c-.42-9.84-.11-27.13,1.91-33,3.53-10.24,7-19,10.35-27.44,8.63-21.76,16.09-40.55,19.51-72.11,2.59-23.9,1.32-44.89-3.77-62.84,37.94-21.32,51.09-54,55.3-78.61A139.1,139.1,0,0,0,540,170.18ZM261.92,277.42C240,264.25,226.6,244.68,222,219.09a116.82,116.82,0,0,1-.92-33.38c9.42.38,24.59,2.8,37.66,13.06,14,11,22.8,28.6,26.35,52.45a89.39,89.39,0,0,0-12.43,11.44A90.31,90.31,0,0,0,261.92,277.42Zm148,265c-14.15,8.46-31.76,9.72-41,9.72s-26.85-1.26-41-9.72c-15-9-22.33-23.7-22.39-45,.05-1.07.11-2.84.15-5.1C320,479,343.73,470.87,368.9,470.87s48.86,8.12,63.23,21.42c.05,2.26.11,4,.15,5.1C432.22,518.73,424.9,533.46,409.89,542.43Zm54.3-181.16c-3.05,28.11-9.59,44.58-17.86,65.43-3.46,8.73-7,17.76-10.76,28.56A45.35,45.35,0,0,0,433.9,462c-18-10.66-40.83-16.68-65-16.68s-47,6-65,16.68a46.59,46.59,0,0,0-1.68-6.71c-3.71-10.8-7.3-19.83-10.76-28.55-8.27-20.86-14.81-37.33-17.86-65.44-3.94-36.34,2.15-63.77,18.1-81.54,15.65-17.44,41.63-26.29,77.2-26.29s61.54,8.85,77.2,26.29C462,297.5,468.13,324.93,464.19,361.27Zm51.75-143c-4.45,26-17.91,45.85-40.07,59.16a88.65,88.65,0,0,0-23.17-26.2c3.55-23.85,12.39-41.49,26.35-52.45,13.08-10.26,28.25-12.68,37.66-13.07A117.24,117.24,0,0,1,515.94,218.26Z"/></g></g></g></svg>