<svg xmlns="http://www.w3.org/2000/svg" viewBox="0 0 737.79 737.79"><defs><style>.cls-1,.cls-3{fill:#e26241;}.cls-1,.cls-2{opacity:0.8;}</style></defs><title>i-duck</title><g id="Layer_2" data-name="Layer 2"><g id="Capa_1" data-name="Capa 1"><path class="cls-1" d="M368.9,0C165.16,0,0,165.16,0,368.9S165.16,737.79,368.9,737.79,737.79,572.63,737.79,368.9,572.63,0,368.9,0Zm0,691.23c-178,0-322.34-144.31-322.34-322.33S190.87,46.56,368.9,46.56,691.23,190.87,691.23,368.9,546.92,691.23,368.9,691.23Z"/><g class="cls-2"><path class="cls-3" d="M291,241.12c-4.32,0-9.48,3.29-9.48,19s5.16,19,9.48,19,9.48-3.29,9.48-19S295.28,241.12,291,241.12Z"/><path class="cls-3" d="M449,241.12c-4.32,0-9.48,3.29-9.48,19s5.16,19,9.48,19,9.48-3.29,9.48-19S453.28,241.12,449,241.12Z"/><path class="cls-3" d="M494.44,284.7c-4.24-13.92-7.89-25.94-7.89-33.69,0-29.69-7.77-55.13-15-66.2C453.45,157,405.27,147.1,369.24,147h-.68c-36,.11-84.21,10-102.32,37.82-7.22,11.07-15,36.51-15,66.2,0,7.75-3.65,19.77-7.88,33.69-7,22.86-15.59,51.3-12.88,78,2.9,28.48,12,50.21,26.93,64.59a68.35,68.35,0,0,0,31,16.9l.77.21c-2.06,25.57-3.3,53.51-3.3,84,0,20.2,9.6,36.85,27.76,48.14,14.79,9.2,34.48,14.27,55.45,14.27h0c21,0,40.66-5.07,55.45-14.27,18.16-11.29,27.76-27.94,27.76-48.14,0-30.58-1.24-58.56-3.31-84.17l.3-.08a68.42,68.42,0,0,0,31.05-16.9c15-14.38,24-36.11,26.92-64.59C510,336,501.38,307.56,494.44,284.7ZM370,538.21c2.13,1,5.59,8.95,7.08,12.4.92,2.11,1.8,4.15,2.73,6-3.23.32-6.51.49-9.81.49s-6.58-.17-9.8-.49c.92-1.88,1.81-3.92,2.72-6C364.37,547.16,367.83,539.17,370,538.21Zm42.12,11.55a67.3,67.3,0,0,1-18.95,7.76,6.14,6.14,0,0,0-1-.17,57.1,57.1,0,0,1-3.93-8c-3.66-8.47-8.21-19-17.68-19s-14,10.53-17.69,19a56,56,0,0,1-3.93,8,6.35,6.35,0,0,0-1,.17A67.42,67.42,0,0,1,329,549.76c-12.15-7.56-18.31-18.12-18.31-31.39,0-102.52,15.83-168.19,27.39-216.14.06-.23.11-.45.17-.68,7.84,5.73,20.51,13.36,32.28,13.36s24.44-7.63,32.29-13.36c.06.23.11.46.17.7,11.56,47.94,27.39,113.61,27.39,216.12C430.38,531.64,424.22,542.2,412.07,549.76Zm71.24-189.19c-5.08,49.9-30.77,59.71-41.67,62.82-5.92-62-17-107.93-25.12-141.73q-1.31-5.37-2.5-10.4a.14.14,0,0,1,0-.06l0-.1a6.31,6.31,0,0,0-1.89-3.09l-.1-.07-.37-.31-.19-.13-.32-.2-.24-.13-.3-.16-.25-.11a3,3,0,0,0-.32-.12l-.23-.08-.36-.11-.21,0-.39-.08-.2,0-.41,0h-.6l-.31,0-.29,0a4,4,0,0,0-.48.09l-.1,0h0a6.49,6.49,0,0,0-2.15,1l-.12.08-.29.24-.2.16,0,0c-5.24,4.81-21.52,17.29-33.64,17.29s-28.39-12.49-33.65-17.3h0c-.13-.12-.27-.23-.41-.34l-.08-.06c-.13-.1-.27-.19-.41-.28l-.11-.07-.26-.14-.3-.16s-.06,0-.08,0l-.51-.2-.06,0a5,5,0,0,0-.55-.16h0l-.14,0-.45-.08a2.48,2.48,0,0,0-.27,0l-.33,0h-.61l-.35,0-.26,0a3,3,0,0,0-.32.06l-.29.06-.27.08-.33.11-.21.08-.36.16-.18.09-.36.2-.17.11a3.29,3.29,0,0,0-.33.23l-.21.16c-.08.07-.18.14-.26.22l-.27.26-.15.15,0,0c-.11.12-.2.25-.3.37l-.1.12-.24.36c0,.05-.08.11-.11.17a1.14,1.14,0,0,0-.1.19c-.07.12-.14.24-.2.37v0c-.08.18-.16.37-.23.56a0,0,0,0,1,0,0c-.06.19-.12.38-.16.57v0q-1.2,5-2.49,10.39c-8.16,33.82-19.22,79.75-25.14,141.85-10.64-3-36.94-12.38-42.09-62.94-2.22-21.77,5.25-46.35,11.26-66.09,4.15-13.65,7.73-25.44,7.73-34.39,0-23.13,6-44.79,11.61-53.43,6.16-9.44,18.69-17.14,36.22-22.27a172.43,172.43,0,0,1,93.51,0c17.53,5.13,30.05,12.83,36.22,22.27,5.63,8.64,11.61,30.3,11.61,53.43,0,8.95,3.58,20.74,7.73,34.39C478.05,314.22,485.52,338.79,483.31,360.57Z"/></g><circle class="cls-1" cx="370.58" cy="340.61" r="7.53"/></g></g></svg>