<svg xmlns="http://www.w3.org/2000/svg" viewBox="0 0 737.79 737.79"><defs><style>.cls-1,.cls-3{fill:#e26241;}.cls-1,.cls-2{opacity:0.8;}</style></defs><title>i-pig</title><g id="Layer_2" data-name="Layer 2"><g id="Capa_1" data-name="Capa 1"><path class="cls-1" d="M368.9,0C165.16,0,0,165.16,0,368.9S165.16,737.79,368.9,737.79,737.79,572.63,737.79,368.9,572.63,0,368.9,0Zm0,691.23c-178,0-322.34-144.31-322.34-322.33S190.87,46.56,368.9,46.56,691.23,190.87,691.23,368.9,546.92,691.23,368.9,691.23Z"/><g class="cls-2"><path class="cls-3" d="M416.26,409.12a4.26,4.26,0,0,0-.36,6c5.25,5.93,8,12.78,8,19.83,0,20.24-22.59,36.7-50.36,36.7S323.21,455.2,323.21,435s22.59-36.71,50.36-36.71a63.54,63.54,0,0,1,28.63,6.55,4.26,4.26,0,0,0,3.86-7.6,72.07,72.07,0,0,0-32.49-7.47c-15.5,0-30.13,4.56-41.18,12.85-11.41,8.56-17.7,20.06-17.7,32.38s6.29,23.81,17.7,32.37c11.05,8.29,25.68,12.85,41.18,12.85s30.13-4.56,41.18-12.85c11.42-8.56,17.7-20.06,17.7-32.37,0-9.16-3.52-18-10.17-25.48a4.26,4.26,0,0,0-6-.36Z"/><path class="cls-3" d="M342,435a13.37,13.37,0,1,0,13.36-13.37A13.38,13.38,0,0,0,342,435Zm18.21,0a4.85,4.85,0,1,1-4.85-4.85A4.85,4.85,0,0,1,360.21,435Z"/><path class="cls-3" d="M336.87,362.13a13.37,13.37,0,1,0-13.37,13.36A13.38,13.38,0,0,0,336.87,362.13Zm-18.21,0A4.84,4.84,0,1,1,323.5,367,4.84,4.84,0,0,1,318.66,362.13Z"/><path class="cls-3" d="M391.78,421.59A13.37,13.37,0,1,0,405.14,435,13.39,13.39,0,0,0,391.78,421.59Zm0,18.21a4.85,4.85,0,1,1,4.84-4.84A4.84,4.84,0,0,1,391.78,439.8Z"/><path class="cls-3" d="M423.64,348.77A13.36,13.36,0,1,0,437,362.13,13.37,13.37,0,0,0,423.64,348.77Zm0,18.2a4.84,4.84,0,1,1,4.84-4.84A4.84,4.84,0,0,1,423.64,367Z"/><path class="cls-3" d="M571.16,212.23a28.32,28.32,0,0,0-35.34-25.76c-25.51,6.79-50.3,20.42-71.92,39.5a177.07,177.07,0,0,0-190.15-.14c-21.6-19-46.33-32.59-71.78-39.36a28.32,28.32,0,0,0-35.34,25.76c-1.92,37.46,9.65,77.1,32.61,111.88a177,177,0,1,0,339.16.25c23.05-34.85,34.69-74.58,32.76-112.13Zm-48.36,5.46a12.14,12.14,0,0,1,14.9,9.6,19.89,19.89,0,0,0-3.87.63c-16.69,4.44-33.14,13-47.78,24.7A130.21,130.21,0,0,0,475,243.46c14.52-12.41,31-21.29,47.82-25.77Zm-313.84,2a11.93,11.93,0,0,1,10.11-2c16.81,4.47,33.21,13.32,47.71,25.68a135.07,135.07,0,0,0-11,9.18c-14.62-11.7-31-20.2-47.7-24.63a19.77,19.77,0,0,0-3.87-.63A12,12,0,0,1,209,219.65Zm15.7,100.16a100.39,100.39,0,0,1-13.6-76.6c.32,0,.64.08.95.13,0,0,.48.09,1,.21.71.19,19.6,8.5,45.33,19.92C249.72,269.6,231.72,296.29,224.66,319.81ZM367.85,524.37c-80.68,0-146.33-65.64-146.33-146.33s65.65-146.33,146.33-146.33a146.59,146.59,0,0,1,109.07,48.77,5.25,5.25,0,0,0,7.83-7c-.94-1-1.88-2.08-2.84-3.09,16.21-12.81,34.3-22.1,52.6-27a15.07,15.07,0,0,1,2.29-.41c-.44,25.93-8.46,52.79-23.1,77.26a156.27,156.27,0,0,0-15.43-29.37,5.26,5.26,0,1,0-8.74,5.84A145.61,145.61,0,0,1,514.18,378C514.19,458.73,448.54,524.37,367.85,524.37Z"/></g></g></g></svg>