<svg xmlns="http://www.w3.org/2000/svg" viewBox="0 0 490 474.29"><defs><style>.cls-1{fill:#484848;}</style></defs><title>logout</title><g id="Layer_2" data-name="Layer 2"><g id="Capa_1" data-name="Capa 1"><path class="cls-1" d="M250.33,339.54A15.79,15.79,0,0,1,239,334.8l-85.21-86.23a16.31,16.31,0,0,1,0-22.87L239,139.46a15.87,15.87,0,0,1,22.61,0,16.31,16.31,0,0,1,0,22.87l-73.93,74.81L261.64,312a16.31,16.31,0,0,1,0,22.87A15.89,15.89,0,0,1,250.33,339.54Z"/><path class="cls-1" d="M474,253.31H165.11a16.17,16.17,0,0,1,0-32.34H474a16.17,16.17,0,0,1,0,32.34Z"/><path class="cls-1" d="M234.35,474.29C105.14,474.29,0,367.89,0,237.14S105.14,0,234.35,0c97,0,182.56,59,218.11,150.39a16.26,16.26,0,0,1-9,21,16,16,0,0,1-20.73-9.14C392,83.32,318.08,32.34,234.35,32.34,122.75,32.34,32,124.22,32,237.14S122.75,442,234.35,442c83.73,0,157.67-51,188.37-129.87a15.94,15.94,0,0,1,20.73-9.14,16.25,16.25,0,0,1,9,21C416.91,415.26,331.3,474.29,234.35,474.29Z"/></g></g></svg>