<svg xmlns="http://www.w3.org/2000/svg" viewBox="0 0 433.63 432.59"><defs><style>.cls-1{fill:#484848;}</style></defs><title>search</title><g id="Layer_2" data-name="Layer 2"><g id="Capa_1" data-name="Capa 1"><path class="cls-1" d="M428.93,405.94,337,314a189,189,0,0,0,45.45-123.3C382.43,85.68,296.75,0,191.22,0S0,85.68,0,190.69s85.68,190.7,191.22,190.7a189,189,0,0,0,123.29-45.46l92.48,92a15.93,15.93,0,0,0,11,4.7,15,15,0,0,0,11-4.7C435.2,421.62,435.2,411.69,428.93,405.94ZM304.07,303.54c-30.31,29.78-70,46.5-112.85,46.5-88.3,0-159.87-71.58-159.87-159.35S102.92,31.35,191.22,31.35s159.87,71.57,159.87,159.34A157.17,157.17,0,0,1,304.07,303.54Z"/></g></g></svg>